<svg width="16" height="15" viewBox="0 0 16 15" fill="none" xmlns="http://www.w3.org/2000/svg">
    <path d="M8.65536 14.9035C8.19111 14.6959 7.94338 14.1699 8.06633 13.6534L8.5541 10.536L6.93836 8.84638L5.01701 10.8975C4.99198 10.9243 4.96171 10.9456 4.92807 10.9602C4.89443 10.9749 4.85815 10.9824 4.82147 10.9824H1.07143C0.926007 10.9822 0.782136 10.9525 0.648524 10.8951C0.514913 10.8377 0.394333 10.7537 0.294083 10.6484C0.193408 10.5431 0.115489 10.4182 0.0651654 10.2815C0.0148421 10.1447 -0.00680455 9.99911 0.00157416 9.85366C0.0313109 9.28499 0.52121 8.83952 1.11695 8.83952H3.63L7.70445 4.28582H7.07952L5.33358 6.13354C5.24808 6.22606 5.14446 6.30001 5.02917 6.35079C4.91387 6.40157 4.78937 6.4281 4.66338 6.42872H4.65887C4.53218 6.429 4.40682 6.40293 4.29075 6.35216C4.17468 6.30139 4.07045 6.22703 3.98466 6.13381C3.65276 5.77809 3.67767 5.19389 4.03982 4.83146L6.51192 2.4842C6.56177 2.43701 6.62782 2.41074 6.69647 2.4108H9.61322C9.87193 2.41036 10.1212 2.50777 10.3111 2.6835L12.2717 4.49374C12.3085 4.52771 12.3571 4.54607 12.4072 4.54493C12.4572 4.5438 12.5049 4.52327 12.5401 4.48767L13.9386 3.07445C14.1109 2.90222 14.3444 2.80538 14.588 2.80518C14.8316 2.80498 15.0653 2.90144 15.2378 3.07338L15.2758 3.11143C15.3599 3.19513 15.4267 3.29468 15.4721 3.40432C15.5175 3.51397 15.5408 3.63154 15.5405 3.75023C15.5408 3.86892 15.5176 3.9865 15.4721 4.09616C15.4267 4.20582 15.36 4.30539 15.2758 4.38911L12.965 6.69966C12.6214 7.04363 12.0219 7.04363 11.6779 6.69966L10.4463 5.46831L8.67951 7.23243L10.9037 9.45358C10.9345 9.48434 10.9574 9.52215 10.9703 9.56373C10.9832 9.60532 10.9858 9.64942 10.9779 9.69223L10.1444 14.1618C10.1097 14.3179 10.0405 14.4642 9.94195 14.59C9.84337 14.7159 9.71786 14.818 9.57465 14.8891C9.4275 14.962 9.26551 14.9999 9.10129 15C8.9475 14.9997 8.79552 14.9669 8.65536 14.9035ZM10.7143 1.60715C10.7147 1.18103 10.8842 0.772491 11.1855 0.471181C11.4868 0.16987 11.8954 0.000403255 12.3215 -3.05176e-05C12.7476 0.000395237 13.1561 0.16986 13.4575 0.471172C13.7588 0.772485 13.9282 1.18103 13.9287 1.60715C13.9282 2.03327 13.7588 2.44183 13.4575 2.74315C13.1561 3.04447 12.7476 3.21393 12.3215 3.21436C11.8954 3.21391 11.4868 3.04444 11.1855 2.74313C10.8842 2.44182 10.7148 2.03329 10.7143 1.60718L10.7143 1.60715Z"
          fill="#4677FF"/>
</svg>
