<svg width="262" height="99" viewBox="0 0 262 99" fill="none" xmlns="http://www.w3.org/2000/svg">
<path fill-rule="evenodd" clip-rule="evenodd" d="M79.9 39.948C79.895 29.3538 75.6839 19.195 68.1922 11.7043C60.7005 4.21354 50.5412 0.00370983 39.947 0L0 0V39.948C0 50.5434 4.20901 60.7048 11.7011 68.1969C19.1932 75.689 29.3546 79.898 39.95 79.898C50.5454 79.898 60.7068 75.689 68.1989 68.1969C75.691 60.7048 79.9 50.5434 79.9 39.948Z" fill="white"/>
<path d="M100.148 49.84H114.775V57.072H92.591V18.718H100.151L100.148 49.84Z" fill="white"/>
<path d="M119.07 18.718H126.63V57.068H119.07V18.718Z" fill="white"/>
<path d="M171.806 37.893C171.888 42.6385 170.209 47.2463 167.094 50.827L171.039 54.936L165.668 59.698L161.504 55.37C158.559 57.0095 155.239 57.8588 151.868 57.835C149.246 57.8557 146.646 57.3537 144.22 56.3582C141.794 55.3628 139.59 53.8938 137.738 52.0372C135.886 50.1806 134.423 47.9736 133.434 45.5451C132.444 43.1165 131.949 40.5152 131.976 37.893C131.92 35.2644 132.407 32.6526 133.406 30.2207C134.405 27.7888 135.895 25.5891 137.783 23.759C141.525 20.0393 146.587 17.9515 151.863 17.9515C157.139 17.9515 162.201 20.0393 165.943 23.759C167.845 25.581 169.348 27.7779 170.357 30.2108C171.367 32.6437 171.86 35.2596 171.806 37.893ZM151.868 50.439C153.321 50.4342 154.765 50.1938 156.141 49.727L149.841 43.153L155.21 38.387L161.949 45.399C163.485 43.2006 164.29 40.5744 164.249 37.893C164.303 36.2231 164.016 34.5598 163.403 33.0053C162.791 31.4508 161.867 30.0381 160.688 28.854C158.32 26.5685 155.158 25.2912 151.867 25.2912C148.577 25.2912 145.415 26.5685 143.047 28.854C141.868 30.0381 140.944 31.4508 140.332 33.0053C139.72 34.5598 139.432 36.2231 139.486 37.893C139.435 39.5544 139.725 41.2086 140.337 42.7538C140.95 44.299 141.872 45.7026 143.047 46.878C144.196 48.0425 145.572 48.9592 147.089 49.5716C148.606 50.1841 150.232 50.4793 151.868 50.439Z" fill="white"/>
<path d="M191.417 57.835C187.582 57.9883 183.829 56.6981 180.899 54.219C179.537 53.0087 178.461 51.5102 177.751 49.8324C177.04 48.1545 176.712 46.3395 176.79 44.519V18.719H184.295V43.919C184.249 44.7864 184.375 45.6544 184.667 46.4725C184.959 47.2906 185.41 48.0427 185.995 48.685C187.164 49.8537 188.972 50.438 191.419 50.438C193.866 50.438 195.656 49.8537 196.789 48.685C197.389 48.0506 197.853 47.3011 198.154 46.4818C198.455 45.6625 198.587 44.7906 198.541 43.919V18.719H206.102V44.519C206.18 46.3395 205.852 48.1545 205.141 49.8324C204.431 51.5102 203.355 53.0087 201.993 54.219C199.044 56.7049 195.271 57.9951 191.417 57.835Z" fill="white"/>
<path d="M212.912 18.718H220.472V57.068H212.912V18.718Z" fill="white"/>
<path d="M242.802 18.718C245.26 18.6583 247.703 19.1206 249.969 20.0744C252.235 21.0281 254.273 22.4517 255.949 24.251C257.696 26.0583 259.065 28.1952 259.978 30.5372C260.89 32.8792 261.327 35.3794 261.263 37.892C261.327 40.4048 260.89 42.9052 259.978 45.2474C259.065 47.5896 257.696 49.7267 255.949 51.534C254.273 53.3334 252.235 54.7569 249.969 55.7107C247.703 56.6644 245.26 57.1267 242.802 57.067H227.571V18.718H242.802ZM242.802 49.836C244.309 49.8918 245.81 49.6276 247.208 49.0611C248.605 48.4945 249.866 47.6384 250.909 46.549C253.042 44.1835 254.163 41.0757 254.031 37.893C254.17 34.7261 253.047 31.6334 250.909 29.293C249.875 28.1892 248.616 27.3197 247.218 26.7432C245.819 26.1667 244.314 25.8966 242.802 25.951H235.131V49.84L242.802 49.836Z" fill="white"/>
<path d="M150.871 72.92C151.086 71.0902 151.958 69.4005 153.323 68.1638C154.689 66.9271 156.457 66.2273 158.299 66.194H254.353C255.213 66.1747 256.068 66.3408 256.859 66.681C257.649 67.0211 258.357 67.5274 258.935 68.1654C259.513 68.8034 259.946 69.5582 260.206 70.3785C260.467 71.1989 260.547 72.0657 260.443 72.92L258.621 91.275C258.405 93.1047 257.534 94.7943 256.168 96.031C254.803 97.2676 253.035 97.9675 251.193 98.001H155.135C154.275 98.0203 153.42 97.8542 152.629 97.514C151.839 97.1739 151.131 96.6676 150.553 96.0297C149.975 95.3917 149.542 94.6368 149.282 93.8165C149.021 92.9961 148.941 92.1293 149.045 91.275L150.871 72.92Z" fill="#4677FF"/>
<path d="M176.431 82.398C176.958 82.6767 177.396 83.099 177.693 83.6161C177.991 84.1333 178.136 84.724 178.111 85.32C178.126 85.8215 178.03 86.3201 177.831 86.7807C177.632 87.2413 177.335 87.6527 176.96 87.986C176.185 88.6834 175.172 89.0562 174.13 89.027H168.706V76.243H173.746C174.763 76.2133 175.752 76.5801 176.504 77.266C176.872 77.5846 177.164 77.9809 177.36 78.4262C177.555 78.8715 177.65 79.3548 177.636 79.841C177.651 80.332 177.55 80.8197 177.34 81.2641C177.131 81.7085 176.819 82.097 176.431 82.398ZM173.746 78.598H171.227V81.41H173.746C173.926 81.4154 174.106 81.3826 174.273 81.3136C174.44 81.2447 174.59 81.1412 174.714 81.01C174.845 80.8793 174.948 80.7232 175.017 80.5513C175.086 80.3793 175.119 80.1951 175.114 80.01C175.124 79.6389 174.985 79.2793 174.73 79.01C174.604 78.8758 174.452 78.7698 174.282 78.699C174.112 78.6281 173.93 78.5941 173.746 78.599V78.598ZM174.13 86.67C174.326 86.6759 174.521 86.6417 174.703 86.5694C174.885 86.4972 175.05 86.3885 175.189 86.25C175.329 86.1039 175.438 85.9313 175.51 85.7424C175.583 85.5536 175.617 85.3521 175.61 85.15C175.616 84.9541 175.582 84.7591 175.509 84.5769C175.437 84.3948 175.328 84.2294 175.189 84.091C175.053 83.9478 174.889 83.8348 174.706 83.7593C174.524 83.6838 174.327 83.6476 174.13 83.653H171.23V86.666L174.13 86.67Z" fill="white"/>
<path d="M190.519 87.364C189.587 88.2909 188.401 88.9209 187.11 89.1745C185.82 89.4281 184.484 89.294 183.27 88.789C182.056 88.2841 181.019 87.431 180.29 86.3372C179.56 85.2435 179.171 83.9582 179.171 82.6435C179.171 81.3287 179.56 80.0435 180.29 78.9497C181.019 77.856 182.056 77.0029 183.27 76.498C184.484 75.993 185.82 75.8589 187.11 76.1125C188.401 76.3661 189.587 76.9961 190.519 77.923C191.76 79.1809 192.455 80.8767 192.455 82.6435C192.455 84.4103 191.76 86.1061 190.519 87.364ZM182.867 85.647C183.662 86.3978 184.714 86.816 185.808 86.816C186.902 86.816 187.954 86.3978 188.749 85.647C189.511 84.8288 189.935 83.7522 189.935 82.634C189.935 81.5158 189.511 80.4391 188.749 79.621C187.959 78.8595 186.905 78.434 185.808 78.434C184.711 78.434 183.657 78.8595 182.867 79.621C182.105 80.4391 181.681 81.5158 181.681 82.634C181.681 83.7522 182.105 84.8288 182.867 85.647Z" fill="white"/>
<path d="M198.902 89.282C197.624 89.3334 196.373 88.9034 195.396 88.077C194.942 87.6737 194.584 87.1744 194.347 86.6154C194.11 86.0564 194 85.4516 194.026 84.845V76.245H196.526V84.645C196.511 84.9341 196.553 85.2234 196.65 85.4962C196.747 85.769 196.897 86.0197 197.092 86.234C197.34 86.4462 197.627 86.607 197.937 86.7073C198.248 86.8075 198.575 86.8452 198.9 86.818C199.222 86.8462 199.547 86.809 199.854 86.7087C200.162 86.6083 200.446 86.4468 200.689 86.234C200.889 86.0227 201.044 85.7729 201.145 85.4997C201.246 85.2265 201.289 84.9357 201.274 84.645V76.245H203.794V84.845C203.82 85.4516 203.71 86.0564 203.473 86.6154C203.236 87.1744 202.878 87.6737 202.424 88.077C201.442 88.9048 200.185 89.3347 198.902 89.282Z" fill="white"/>
<path d="M213.464 76.243H215.983V89.026H214.065L208.587 81.21V89.026H206.066V76.243H207.984L213.464 84.043V76.243Z" fill="white"/>
<path d="M224.418 89.282C223.534 89.3094 222.654 89.1532 221.833 88.823C221.013 88.4929 220.27 87.9961 219.651 87.364C218.443 86.0853 217.77 84.393 217.77 82.634C217.77 80.875 218.443 79.1827 219.651 77.904C220.688 76.8958 222.019 76.2453 223.451 76.0474C224.884 75.8495 226.342 76.1146 227.613 76.804C228.567 77.3087 229.363 78.0669 229.913 78.995L227.74 80.255C227.429 79.6886 226.959 79.2253 226.388 78.922C225.785 78.5886 225.105 78.4187 224.416 78.429C223.86 78.406 223.306 78.498 222.787 78.6991C222.268 78.9003 221.797 79.2063 221.402 79.598C220.672 80.4357 220.27 81.5093 220.27 82.6205C220.27 83.7317 220.672 84.8053 221.402 85.643C222.064 86.2525 222.895 86.6456 223.786 86.7696C224.677 86.8936 225.585 86.7427 226.388 86.337C226.959 86.0339 227.429 85.5706 227.74 85.004L229.913 86.264C229.363 87.1913 228.575 87.9544 227.63 88.474C226.646 89.0135 225.54 89.2916 224.418 89.282Z" fill="white"/>
<path d="M233.983 86.62H239.374V89.03H231.466V76.243H239.274V78.653H233.974V81.374H238.813V83.748H233.974L233.983 86.62Z" fill="white"/>
</svg>
