<svg width="64px" height="64px" viewBox="0 0 58 58" xmlns="http://www.w3.org/2000/svg" fill="#ffffff">
    <g id="SVGRepo_bgCarrier" stroke-width="0"></g>
    <g id="SVGRepo_tracerCarrier" stroke-linecap="round" stroke-linejoin="round"></g>
    <g id="SVGRepo_iconCarrier">
        <defs>
            <filter id="a" width="200%" height="200%" x="-50%" y="-50%" filterUnits="objectBoundingBox">
                <feOffset dy="1" in="SourceAlpha" result="shadowOffsetOuter1"></feOffset>
                <feGaussianBlur stdDeviation="10" in="shadowOffsetOuter1" result="shadowBlurOuter1"></feGaussianBlur>
                <feColorMatrix values="0 0 0 0 0 0 0 0 0 0 0 0 0 0 0 0 0 0 0.1 0" in="shadowBlurOuter1"
                               result="shadowMatrixOuter1"></feColorMatrix>
                <feMerge>
                    <feMergeNode in="shadowMatrixOuter1"></feMergeNode>
                    <feMergeNode in="SourceGraphic"></feMergeNode>
                </feMerge>
            </filter>
        </defs>
        <path fill-rule="evenodd"
              d="M31.171 34h-11.179c-.536 0-.992.448-.992 1 0 .556.444 1 .992 1h11.179c.412 1.165 1.523 2 2.829 2 1.306 0 2.417-.835 2.829-2h1.179c.536 0 .992-.448.992-1 0-.556-.444-1-.992-1h-1.179c-.412-1.165-1.523-2-2.829-2-1.306 0-2.417.835-2.829 2zm-3.341-5h10.179c.536 0 .992-.448.992-1 0-.556-.444-1-.992-1h-10.179c-.412-1.165-1.523-2-2.829-2-1.306 0-2.417.835-2.829 2h-2.179c-.536 0-.992.448-.992 1 0 .556.444 1 .992 1h2.179c.412 1.165 1.523 2 2.829 2 1.306 0 2.417-.835 2.829-2zm3.341-9h-11.179c-.536 0-.992.448-.992 1 0 .556.444 1 .992 1h11.179c.412 1.165 1.523 2 2.829 2 1.306 0 2.417-.835 2.829-2h1.179c.536 0 .992-.448.992-1 0-.556-.444-1-.992-1h-1.179c-.412-1.165-1.523-2-2.829-2-1.306 0-2.417.835-2.829 2zm2.829 2c.552 0 1-.448 1-1s-.448-1-1-1-1 .448-1 1 .448 1 1 1zm-9 5c-.552 0-1 .448-1 1s.448 1 1 1 1-.448 1-1-.448-1-1-1zm9 9c.552 0 1-.448 1-1s-.448-1-1-1-1 .448-1 1 .448 1 1 1z"
              filter="url(#a)"></path>
    </g>
</svg>