<svg xmlns="http://www.w3.org/2000/svg" width="512" height="512"><mask id="a"><circle cx="256" cy="256" r="256" fill="#fff"/></mask><g mask="url(#a)"><path fill="#ffda44" d="m0 128 192-32 192 32-256 256-64 32-64-32Z"/><rect width="16" height="24" x="128" y="192" fill="#d80027" rx="8"/><rect width="16" height="24" x="272" y="192" fill="#d80027" rx="8"/><rect width="32" height="16" x="120" y="208" fill="#ff9811" ry="8"/><rect width="32" height="16" x="120" y="304" fill="#ff9811" rx="8"/><path fill="#eee" d="M208 264a48 32 0 0 0-48 32 48 32 0 0 0 27.2 28.8L240 272a48 32 0 0 0-32-8z"/><path d="M122 252h172m-172 24h28m116 0h28"/><path fill="#eee" d="M128 224v80h16v-80h-16zm144 0v16l16-16h-16z"/><path fill="#d80027" d="M122 272a4 4 0 0 0-4 4 4 4 0 0 0 4 4h28a4 4 0 0 0 4-4 4 4 0 0 0-4-4z"/><path fill="#eee" d="M196 168c-7 0-13 5-15 11l-5-1c-9 0-16 7-16 16s7 16 16 16c7 0 13-4 15-11a16 16 0 0 0 17-4 16 16 0 0 0 17 4 16 16 0 1 0 10-20 16 16 0 0 0-27-5c-3-4-7-6-12-6zm0 8c5 0 8 4 8 8 0 5-3 8-8 8-4 0-8-3-8-8 0-4 4-8 8-8zm24 0c5 0 8 4 8 8 0 5-3 8-8 8-4 0-8-3-8-8 0-4 4-8 8-8zm-44 10 4 1 4 8c0 4-4 7-8 7s-8-3-8-8c0-4 4-8 8-8zm64 0c5 0 8 4 8 8 0 5-3 8-8 8-4 0-8-3-8-7l4-8z"/><path fill="none" d="M220 284v12c0 7 5 12 12 12s12-5 12-12v-12z"/><path fill="#ff9811" d="M200 160h16v32h-16z"/><path fill="#d80027" d="m248 208-8 8h-64l-8-8c0-13 18-24 40-24s40 11 40 24zm-88 16h48v48h-48z"/><path fill="#d80027" d="M122 248a4 4 0 0 0-4 4 4 4 0 0 0 4 4h134l8-8H122z"/><path fill="#eee" d="M208 224v48h32l16-16v-32h-48z"/><rect width="20" height="32" x="222" y="232" fill="#d80027" rx="10" ry="10"/><path fill="#ff9811" d="M168 232v8h8v16h-8v8h32v-8h-8v-16h8v-8zm8-16h64v8h-64z"/><g fill="#ffda44"><circle cx="186" cy="202" r="6"/><circle cx="208" cy="202" r="6"/><circle cx="230" cy="202" r="6"/></g><rect width="32" height="16" x="120" y="320" fill="#338af3" ry="8"/><path fill="#d80027" d="M0 384v128l128-128ZM0 0v128h384L512 0Z"/><path fill="#eee" d="m368 512 32-184-32-184.5-224 224-32 72.5 32 72z"/><path fill="#d80027" d="M511.5 0 368 143.5V512h143.5z"/><path fill="#496e2d" d="M144 367.5 0 511.5v.5h144z"/><path fill="#ffda44" d="M256 277v10h12l10-22z"/><path fill="#338af3" d="M256 316c-14 0-28-5-40-13l6-9c20 13 48 13 68 0l7 9c-12 8-26 13-41 13z"/><path fill="#751a46" d="m312.9 198.6-30 30L301 239c4 11 12 21 23 26 3.5-32-2-52.8-11.1-66.4zm-37 37-24.8 24.8 9.9-2.4 18 18v-11l11 11 23-11-35-21z"/><path fill="#496e2d" d="M341 242a85 85 0 0 1-137.8 66.3l-7.9 7.9A96 96 0 0 0 352 242Zm-28 17.5c-1.5 0-3 .5-4 1.5a78 78 0 0 1-53 21c-7.7 0-15.3-1.3-22.8-3.7l-8.6 8.6A96 96 0 0 0 250 293v17h12v-17c20-2 39-10 54-24 3-2 3-6 1-8-1-1-2.5-1.5-4-1.5z"/><circle cx="216" cy="323" r="8" fill="#ffda44"/><circle cx="297" cy="323" r="8" fill="#ffda44"/><circle cx="324" cy="302" r="8" fill="#ffda44"/><circle cx="341" cy="275" r="8" fill="#ffda44"/><path fill="#d80027" d="M208 272v24a24 24 0 0 0 1 7l31-31h-32z"/><path fill="#ff9811" d="M272 208a8 8 0 1 0 0 16h16l8-8a8 8 0 0 0-8-8h-16zm-112 64v24c0 8 4 14 9 19l5-6 5 10a21 21 0 0 0 10 0l5-10 4 5 8-8c1.3-3 2-6.3 2-10v-24h-9l-5 8-5-8h-10l-5 8-5-8h-9z"/><path fill="#d80027" d="M169 272v43a24 24 0 0 0 10 4v-47h-10zm20 0v47a24 24 0 0 0 5.6-1.6l4.4-4.4v-41h-10z"/><circle cx="208" cy="272" r="16" fill="#338af3"/><rect width="34" height="22" x="239" y="299" fill="#ff9811" rx="11" ry="11"/></g></svg>