<svg width="14" height="12" viewBox="0 0 14 12" fill="none" xmlns="http://www.w3.org/2000/svg">
    <path d="M2.74728 11.571L7.20951 7.53061L10.8906 11.5959C11.0784 11.8034 11.3489 11.9204 11.6427 11.9213C11.9365 11.9222 12.2295 11.8069 12.4571 11.6007C12.6848 11.3946 12.8285 11.1145 12.8567 10.822C12.8849 10.5296 12.7952 10.2488 12.6074 10.0414L8.92637 5.97604L13.3886 1.93562C13.6163 1.72947 13.76 1.44935 13.7882 1.15691C13.8164 0.864471 13.7267 0.583664 13.5389 0.376243C13.3511 0.168822 13.0805 0.0517846 12.7867 0.0508859C12.4929 0.0499873 12.2 0.165301 11.9723 0.371451L7.51006 4.41187L3.82901 0.346541C3.6412 0.139121 3.37064 0.0220831 3.07684 0.0211844C2.78305 0.0202857 2.49009 0.1356 2.26242 0.341749C2.03475 0.547899 1.89102 0.827993 1.86284 1.12043C1.83466 1.41287 1.92434 1.69369 2.11216 1.90111L5.7932 5.96644L1.33097 10.0069C1.1033 10.213 0.959571 10.4931 0.931388 10.7856C0.903205 11.078 0.99289 11.3588 1.1807 11.5662C1.36852 11.7737 1.63907 11.8907 1.93286 11.8916C2.22666 11.8925 2.51961 11.7772 2.74728 11.571Z"
          fill="white"/>
</svg>
