<svg xmlns="http://www.w3.org/2000/svg" xmlns:xlink="http://www.w3.org/1999/xlink" width="22" height="22"
     viewBox="0 0 22 22">
    <defs>
        <clipPath id="a">
            <rect width="22" height="22" transform="translate(491 478)" fill="#fff"/>
        </clipPath>
    </defs>
    <g transform="translate(-491 -478)" clip-path="url(#a)">
        <g transform="translate(492.381 478)">
            <path d="M10.124,8.745V9.851a1.68,1.68,0,0,0,.209.876.991.991,0,0,0,.861.5,1.477,1.477,0,0,0,1.03-.5l3.653-3.653a2.06,2.06,0,0,0,0-2.909L12.223.5a1.476,1.476,0,0,0-1.03-.5c-.532,0-1.069.425-1.069,1.374v1A10.852,10.852,0,0,0,0,11.877a.645.645,0,0,0,1.16.459,9.093,9.093,0,0,1,8.959-3.591Zm0,0"
                  fill="#fff"/>
            <path d="M18.831,9.445a.644.644,0,0,0-.757.219,9.093,9.093,0,0,1-8.959,3.591V12.149c0-.949-.537-1.374-1.069-1.374a1.477,1.477,0,0,0-1.03.5L3.362,14.933a2.06,2.06,0,0,0,0,2.91L7.016,21.5a1.477,1.477,0,0,0,1.03.5c.532,0,1.069-.425,1.069-1.374v-1a10.852,10.852,0,0,0,10.119-9.5.644.644,0,0,0-.4-.678Zm0,0"
                  fill="#fff"/>
        </g>
    </g>
</svg>