<svg xmlns="http://www.w3.org/2000/svg" xmlns:xlink="http://www.w3.org/1999/xlink" width="34" height="34"
     viewBox="0 0 34 34">
    <defs>
        <clipPath id="a">
            <rect width="34" height="34" transform="translate(38 28.377)" fill="#fff"/>
        </clipPath>
    </defs>
    <g transform="translate(-38 -28.377)" clip-path="url(#a)">
        <path d="M32.134,13.308l-2.663-.339a13.388,13.388,0,0,0-.806-1.946L30.31,8.905a2.106,2.106,0,0,0-.173-2.8L27.905,3.87a2.112,2.112,0,0,0-2.812-.18L22.978,5.335a13.34,13.34,0,0,0-1.948-.806L20.692,1.87A2.122,2.122,0,0,0,18.587,0H15.413a2.122,2.122,0,0,0-2.105,1.866L12.97,4.529a13.185,13.185,0,0,0-1.948.806L8.905,3.69a2.108,2.108,0,0,0-2.8.173L3.87,6.093a2.112,2.112,0,0,0-.18,2.813l1.645,2.116a13.232,13.232,0,0,0-.806,1.946l-2.659.339A2.122,2.122,0,0,0,0,15.413v3.173a2.122,2.122,0,0,0,1.866,2.105l2.663.339a13.387,13.387,0,0,0,.806,1.946L3.69,25.095a2.106,2.106,0,0,0,.173,2.8L6.094,30.13a2.113,2.113,0,0,0,2.812.178l2.116-1.645a13.079,13.079,0,0,0,1.946.806l.339,2.658A2.122,2.122,0,0,0,15.413,34h3.173a2.122,2.122,0,0,0,2.105-1.866l.339-2.663a13.388,13.388,0,0,0,1.947-.806l2.118,1.645a2.106,2.106,0,0,0,2.8-.173l2.231-2.231a2.11,2.11,0,0,0,.18-2.812l-1.645-2.116a13.079,13.079,0,0,0,.806-1.947l2.658-.339A2.122,2.122,0,0,0,34,18.587V15.413a2.119,2.119,0,0,0-1.864-2.105ZM17,24.083A7.083,7.083,0,1,1,24.083,17,7.091,7.091,0,0,1,17,24.083Z"
              transform="translate(38.001 28.377)" fill="#fff"/>
    </g>
</svg>