<svg width="155" height="58" viewBox="0 0 155 58" fill="none" xmlns="http://www.w3.org/2000/svg">
<path fill-rule="evenodd" clip-rule="evenodd" d="M47.2849 23.6424C47.2818 17.3729 44.7899 11.3611 40.3567 6.92792C35.9235 2.49477 29.9117 0.00295175 23.6423 0H0V23.6424C0 29.9127 2.49089 35.9263 6.92471 40.3602C11.3585 44.794 17.3721 47.2849 23.6424 47.2849C29.9128 47.2849 35.9264 44.794 40.3602 40.3602C44.794 35.9263 47.2849 29.9127 47.2849 23.6424Z" fill="white"/>
<path d="M59.2709 29.495H67.9281V33.7749H54.7964V11.0782H59.2709V29.495Z" fill="white"/>
<path d="M70.4701 11.0782H74.9446V33.7749H70.4701V11.0782Z" fill="white"/>
<path d="M101.681 22.4265C101.681 25.3663 100.751 27.917 98.8922 30.0786L101.227 32.5104L98.0492 35.3313L95.585 32.7698C93.8341 33.7425 91.9319 34.2289 89.8784 34.2289C86.6144 34.2289 83.8367 33.094 81.5454 30.8243C79.2541 28.5331 78.1085 25.7338 78.1085 22.4265C78.1085 19.1193 79.2541 16.3308 81.5454 14.0612C83.8367 11.7699 86.6144 10.6242 89.8784 10.6242C93.1424 10.6242 95.92 11.7699 98.2113 14.0612C100.524 16.3308 101.681 19.1193 101.681 22.4265ZM89.8784 29.8516C90.7214 29.8516 91.5644 29.7111 92.4074 29.4301L88.6787 25.5392L91.8562 22.7184L95.8444 26.8686C96.7522 25.5717 97.2062 24.091 97.2062 22.4265C97.2062 20.2649 96.5037 18.4816 95.0986 17.0766C93.6936 15.6716 91.9535 14.969 89.8784 14.969C87.8032 14.969 86.0632 15.6716 84.6581 17.0766C83.2531 18.4816 82.5506 20.2649 82.5506 22.4265C82.5506 24.5665 83.2531 26.339 84.6581 27.7441C86.0632 29.1491 87.8032 29.8516 89.8784 29.8516Z" fill="white"/>
<path d="M113.288 34.2289C110.759 34.2289 108.684 33.5155 107.063 32.0889C105.442 30.6622 104.631 28.7492 104.631 26.3498V11.0782H109.073V25.9932C109.073 27.1821 109.408 28.1223 110.078 28.8141C110.77 29.5058 111.84 29.8516 113.288 29.8516C114.736 29.8516 115.796 29.5058 116.466 28.8141C117.157 28.1223 117.503 27.1821 117.503 25.9932V11.0782H121.978V26.3498C121.978 28.7492 121.167 30.6622 119.546 32.0889C117.925 33.5155 115.839 34.2289 113.288 34.2289Z" fill="white"/>
<path d="M126.009 11.0782H130.483V33.7749H126.009V11.0782Z" fill="white"/>
<path d="M143.699 11.0782C146.811 11.0782 149.405 12.1698 151.48 14.353C153.577 16.5362 154.625 19.2274 154.625 22.4265C154.625 25.6257 153.577 28.3169 151.48 30.5001C149.405 32.6833 146.811 33.7749 143.699 33.7749H134.685V11.0782H143.699ZM143.699 29.495C145.666 29.495 147.265 28.8465 148.497 27.5495C149.729 26.231 150.345 24.5233 150.345 22.4265C150.345 20.3298 149.729 18.6329 148.497 17.336C147.265 16.0174 145.666 15.3581 143.699 15.3581H139.159V29.495H143.699Z" fill="white"/>
<rect width="64.8479" height="18.914" rx="4" transform="matrix(1 0 -0.0989724 0.99509 89.6868 39.1789)" fill="#4677FF"/>
<path d="M104.418 48.7656C105.081 49.1475 105.412 49.7239 105.412 50.4949C105.412 51.1361 105.185 51.6621 104.731 52.0728C104.278 52.4835 103.719 52.6889 103.056 52.6889H99.8463V45.1233H102.829C103.478 45.1233 104.022 45.325 104.461 45.7285C104.908 46.1248 105.131 46.6328 105.131 47.2525C105.131 47.8793 104.894 48.3837 104.418 48.7656ZM102.829 46.5175H101.338V48.182H102.829C103.06 48.182 103.251 48.1027 103.402 47.9442C103.561 47.7857 103.64 47.5875 103.64 47.3497C103.64 47.112 103.564 46.9138 103.413 46.7553C103.262 46.5968 103.067 46.5175 102.829 46.5175ZM103.056 51.2947C103.308 51.2947 103.517 51.2118 103.683 51.0461C103.849 50.8731 103.932 50.657 103.932 50.3976C103.932 50.1454 103.849 49.9364 103.683 49.7707C103.517 49.5978 103.308 49.5113 103.056 49.5113H101.338V51.2947H103.056Z" fill="white"/>
<path d="M112.756 51.7054C111.992 52.4619 111.063 52.8402 109.968 52.8402C108.872 52.8402 107.943 52.4619 107.179 51.7054C106.423 50.9416 106.044 50.0085 106.044 48.9061C106.044 47.8037 106.423 46.8742 107.179 46.1176C107.943 45.3539 108.872 44.972 109.968 44.972C111.063 44.972 111.992 45.3539 112.756 46.1176C113.52 46.8742 113.902 47.8037 113.902 48.9061C113.902 50.0085 113.52 50.9416 112.756 51.7054ZM108.227 50.6894C108.696 51.1505 109.276 51.3811 109.968 51.3811C110.659 51.3811 111.239 51.1505 111.708 50.6894C112.176 50.2211 112.41 49.6266 112.41 48.9061C112.41 48.1856 112.176 47.5911 111.708 47.1228C111.239 46.6544 110.659 46.4203 109.968 46.4203C109.276 46.4203 108.696 46.6544 108.227 47.1228C107.759 47.5911 107.525 48.1856 107.525 48.9061C107.525 49.6266 107.759 50.2211 108.227 50.6894Z" fill="white"/>
<path d="M117.718 52.8402C116.875 52.8402 116.183 52.6024 115.643 52.1269C115.103 51.6513 114.832 51.0136 114.832 50.2139V45.1233H116.313V50.095C116.313 50.4913 116.425 50.8047 116.648 51.0353C116.879 51.2658 117.235 51.3811 117.718 51.3811C118.201 51.3811 118.554 51.2658 118.777 51.0353C119.008 50.8047 119.123 50.4913 119.123 50.095V45.1233H120.615V50.2139C120.615 51.0136 120.344 51.6513 119.804 52.1269C119.264 52.6024 118.568 52.8402 117.718 52.8402Z" fill="white"/>
<path d="M126.336 45.1233H127.827V52.6889H126.692L123.45 48.0631V52.6889H121.958V45.1233H123.093L126.336 49.7383V45.1233Z" fill="white"/>
<path d="M132.819 52.8402C131.68 52.8402 130.74 52.4619 129.998 51.7054C129.256 50.9488 128.885 50.0157 128.885 48.9061C128.885 47.7893 129.256 46.8562 129.998 46.1068C130.74 45.3503 131.68 44.972 132.819 44.972C133.503 44.972 134.134 45.1341 134.71 45.4583C135.294 45.7754 135.748 46.2077 136.072 46.7553L134.786 47.5011C134.598 47.1624 134.332 46.8994 133.986 46.7121C133.64 46.5175 133.251 46.4203 132.819 46.4203C132.084 46.4203 131.489 46.6508 131.035 47.112C130.589 47.5731 130.365 48.1711 130.365 48.9061C130.365 49.6338 130.589 50.2283 131.035 50.6894C131.489 51.1505 132.084 51.3811 132.819 51.3811C133.251 51.3811 133.64 51.2874 133.986 51.1001C134.339 50.9056 134.606 50.6426 134.786 50.3111L136.072 51.0569C135.748 51.6045 135.297 52.0404 134.721 52.3646C134.144 52.6817 133.51 52.8402 132.819 52.8402Z" fill="white"/>
<path d="M138.48 51.2622H141.668V52.6889H136.988V45.1233H141.614V46.5499H138.48V48.1603H141.344V49.5654H138.48V51.2622Z" fill="white"/>
</svg>
