<svg xmlns="http://www.w3.org/2000/svg" width="512" height="512" viewBox="0 0 512 512"><mask id="a"><circle cx="256" cy="256" r="256" fill="#fff"/></mask><g mask="url(#a)"><path fill="#9c27b0" d="m0 425 256-32 256 32v87H0Z"/><path fill="#0052b4" d="m0 340 256-32 256 32v85H0Z"/><path fill="#6da544" d="m0 255 256-32 256 32v85H0Z"/><path fill="#ffda44" d="m0 170 256-32 256 32v85H0Z"/><path fill="#ff9811" d="m0 85 256-32 256 32v85H0Z"/><path fill="#d80027" d="M0 0h512v85H0Z"/><path fill="#333" d="M160 0H80l192 256L80 512h80l256-256Z"/><path fill="#85693d" d="M80 0H0l192 256L0 512h80l256-256Z"/><path fill="#338af3" d="M0 0v80l112 176L0 432v80l256-256Z"/><path fill="#f5a9b8" d="M0 80v80l32 96-32 96v80l176-176Z"/><path fill="#eee" d="M0 160v192l96-96Z"/></g></svg>