<svg width="17" height="12" viewBox="0 0 17 12" fill="none" xmlns="http://www.w3.org/2000/svg">
    <path d="M4.51632 11.3671C4.60874 11.4699 4.72252 11.5516 4.85116 11.6073C4.97979 11.6629 5.12076 11.6916 5.26601 11.6916C5.41126 11.6916 5.55793 11.6629 5.69764 11.6073C5.83736 11.5516 5.96737 11.4699 6.08026 11.3671L16.4882 1.89015C16.7162 1.68251 16.8607 1.40086 16.8899 1.10721C16.9191 0.813555 16.8306 0.53193 16.6439 0.324285C16.4572 0.11664 16.1875 9.28248e-09 15.8942 0C15.6009 -9.28244e-09 15.308 0.11664 15.08 0.324285L5.5319 9.01827L2.3435 5.47291C2.15676 5.26526 1.88708 5.1486 1.59379 5.1486C1.30049 5.1486 1.00761 5.26526 0.779567 5.47291C0.551524 5.68055 0.406998 5.96218 0.377791 6.25583C0.348583 6.54948 0.437088 6.83111 0.623826 7.03875L4.51632 11.3671Z"
          fill="white"/>
</svg>
