<svg xmlns="http://www.w3.org/2000/svg" width="10" height="10" viewBox="0 0 5.775 5.774"><g transform="translate(0 -0.032)"><path d="M122.488.564a1.736,1.736,0,0,0-2.926.723,2.818,2.818,0,0,1-.778,1.664l-.2.2L119.9,4.464l.174-.174a2.906,2.906,0,0,1,1.693-.8,1.7,1.7,0,0,0,.75-.436h0A1.759,1.759,0,0,0,122.488.564Z" transform="translate(-117.245 0)" fill="#fff"/><path d="M1.506,332.1l-.543.543a.524.524,0,0,0-.777-.035.514.514,0,0,0,.139.878.476.476,0,0,1,.3.3.514.514,0,0,0,.878.139.524.524,0,0,0-.032-.774l.543-.543Z" transform="translate(0 -328.305)" fill="#fff"/></g></svg>