<svg xmlns="http://www.w3.org/2000/svg" width="10" height="10" viewBox="0 0 4.895 5.763"><path d="M43.426,1.563V1.558c0-.144-.005-.279-.005-.41a.359.359,0,0,0-.359-.359A2.459,2.459,0,0,1,41.235.1a.357.357,0,0,0-.5,0,2.458,2.458,0,0,1-1.828.687.359.359,0,0,0-.359.359c0,.133,0,.27-.005.415A6.245,6.245,0,0,0,38.8,3.849a2.906,2.906,0,0,0,.7,1.087,3.659,3.659,0,0,0,1.37.807.358.358,0,0,0,.235,0,3.659,3.659,0,0,0,1.37-.807,2.907,2.907,0,0,0,.7-1.087A6.244,6.244,0,0,0,43.426,1.563Z" transform="translate(-38.537 0)" fill="#fff"/></svg>