<svg width="8" height="9" viewBox="0 0 8 9" fill="none" xmlns="http://www.w3.org/2000/svg">
<path d="M7.01653 2.30021V2.29286C7.01653 2.08123 7.00938 1.88283 7.00938 1.69031C7.00938 1.55038 6.95522 1.41618 6.85881 1.31724C6.7624 1.21829 6.63164 1.16271 6.4953 1.16271C6.01495 1.18622 5.53501 1.1085 5.08505 0.934348C4.6351 0.760197 4.22467 0.493304 3.87907 0.150123C3.78349 0.053902 3.65495 0 3.52107 0C3.38719 0 3.25865 0.053902 3.16308 0.150123C2.81712 0.493033 2.40636 0.759538 1.95614 0.93319C1.50592 1.10684 1.0258 1.18395 0.545417 1.15977C0.409074 1.15977 0.278314 1.21535 0.181905 1.3143C0.0854958 1.41324 0.0313343 1.54744 0.0313343 1.68737C0.0313343 1.88283 0.0313328 2.08417 0.0241729 2.29727C-0.0572748 3.43184 0.0675186 4.57206 0.392192 5.65981C0.605197 6.26281 0.947805 6.80882 1.39458 7.25731C1.95591 7.79545 2.62565 8.20035 3.35639 8.44332C3.46537 8.48218 3.58393 8.48218 3.69291 8.44332C4.42365 8.20035 5.0934 7.79545 5.65472 7.25731C6.10146 6.80879 6.44406 6.26279 6.65711 5.65981C6.97856 4.57244 7.10044 3.43326 7.01653 2.30021Z" fill="#4677FF"/>
</svg>
