<svg width="9" height="9" viewBox="0 0 9 9" fill="none" xmlns="http://www.w3.org/2000/svg">
<path d="M3.15053 7.42185L3.65316 7.87597L4.22595 8.38447C4.30035 8.45046 4.3954 8.48676 4.49373 8.48676C4.59206 8.48676 4.68711 8.45046 4.76151 8.38447L5.3343 7.87597C6.26706 7.08027 7.14017 6.21368 7.94624 5.28353C8.5842 4.58849 8.95814 3.6817 9.00017 2.72782C9.00381 2.36858 8.93755 2.01221 8.80528 1.67959C8.673 1.34697 8.47737 1.04478 8.22985 0.79075C7.98232 0.536716 7.68788 0.335939 7.36379 0.200184C7.03969 0.0644294 6.69245 -0.00357324 6.34242 0.000161969C5.66621 0.00504013 5.01364 0.256062 4.50089 0.70853C3.98814 0.256062 3.33557 0.00504013 2.65936 0.000161969C2.30897 -0.00377722 1.96133 0.0641728 1.63688 0.200022C1.31242 0.33587 1.01769 0.53688 0.769969 0.791247C0.522254 1.04561 0.326554 1.34821 0.194361 1.68128C0.0621681 2.01434 -0.00385317 2.37115 0.000173713 2.73076C0.000173713 4.58104 1.25459 5.71119 3.15053 7.42185Z" fill="#FC4130"/>
</svg>
