<svg xmlns="http://www.w3.org/2000/svg" width="30" height="27" viewBox="281 576.5 30 27"><g data-name="Gruppe 154"><g data-name="timer"><path d="M289 600.85h-.002a13.597 13.597 0 0 1-1.898-1.001 13.72 13.72 0 0 1-3.04-2.702l-.633-.823a11.741 11.741 0 0 1-.336-.526l-.01-.015a19.212 19.212 0 0 0-.203-.324c-.16-.248-.288-.51-.413-.762l-.072-.146-.232-.465a11.89 11.89 0 0 0-.092-.235l-.01-.022-.088-.228-.19-.485a3.258 3.258 0 0 1-.17-.486l-.274-.992a8.506 8.506 0 0 1-.127-.657l-.002-.01-.004-.02a14.297 14.297 0 0 0-.057-.326 3.94 3.94 0 0 0-.026-.172 2.075 2.075 0 0 1-.037-.334l-.042-.507c-.02-.324-.042-.69-.042-1.034 0-.345.022-.71.042-1.032.066-.736.177-1.405.338-2.05l2.807-1.35 1.414 2.427a9.756 9.756 0 0 0-.274 1.372c-.028.154-.038.31-.047.46v.015c-.006.073-.01.148-.017.221-.014.171-.009.332-.004.487.002.067.004.151.004.23v.36c0 .108.016.202.033.301l.01.058c.02.114.036.231.052.344l.003.02c.015.108.03.221.05.332l.169.696c.02.122.062.228.099.322l.006.016.106.338c.023.056.045.119.068.18l.058.157.149.317c.036.073.072.152.1.216.065.143.132.29.216.417.076.115.144.235.215.362l.003.005c.046.083.092.165.14.246l.423.59a9.797 9.797 0 0 0 1.837 1.816v4.399Zm16-4.794V596h-4.326a9.312 9.312 0 0 0 1.56-1.682 10.019 10.019 0 0 0 1.329-2.637c.29-.868.441-1.834.464-2.955l-.02-.76c-.01-.105-.024-.211-.038-.324v-.006l-.002-.009c-.017-.13-.034-.265-.045-.4-.02-.23-.073-.44-.129-.663l-.019-.076a4.3 4.3 0 0 0-.19-.739c-.253-.895-.707-1.804-1.35-2.701-.636-.884-1.353-1.615-2.133-2.174a10.069 10.069 0 0 0-2.702-1.435 10.333 10.333 0 0 0-1.942-.444 1.247 1.247 0 0 1-1.097-1.245 1.257 1.257 0 0 1 1.372-1.245c.869.089 1.693.245 2.449.464 1.177.366 2.35.934 3.482 1.689 1.001.668 1.946 1.57 2.808 2.68.84 1.083 1.471 2.24 1.878 3.44.125.311.209.627.29.933l.005.018c.119.354.195.665.233.95.021.162.05.339.073.481l.005.034c.025.151.05.307.07.455l.063.992c.023 1.481-.136 2.758-.486 3.904-.371 1.26-.91 2.44-1.6 3.508l-.002.003Z" fill="#4677ff" fill-rule="evenodd" data-name="Differenzmenge 3"/><path d="M294.213 591.638a2.747 2.747 0 0 0 1.583-5.086l-.423-4.01c-.063-.528-.506-.93-1.013-.93-.527 0-.97.402-1.013.908l-.422 4.01a2.797 2.797 0 0 0-1.309 2.597c.127 1.35 1.246 2.448 2.597 2.511Zm-.38-3.968c.147-.063.337-.105.506-.105.169 0 .359.042.507.105.485.19.802.676.802 1.224 0 .718-.591 1.33-1.33 1.33-.718 0-1.33-.59-1.33-1.33.043-.57.38-1.034.845-1.224Z" fill="#e4eaf8" fill-rule="evenodd" data-name="Pfad 99"/></g><path d="M307.902 603.5h-16.803c-1.71 0-3.013-1.191-3.098-2.832v-3.297c.084-1.664 1.387-2.871 3.098-2.871h16.803c1.71 0 3.012 1.19 3.097 2.832v3.297c-.084 1.663-1.387 2.87-3.097 2.87Zm-19.008-2.87h-.001c.061 1.182.989 2.042 2.206 2.042h16.803-16.803c-1.217 0-2.144-.86-2.205-2.042Zm16.95-.584v1.185a.46.46 0 0 0 .918 0v-1.185l1.026.592a.458.458 0 1 0 .46-.794l-1.026-.592 1.025-.593a.457.457 0 0 0 .169-.627.46.46 0 0 0-.628-.168l-1.026.592v-1.184a.46.46 0 0 0-.918 0v1.184l-1.026-.592a.457.457 0 0 0-.626.168.46.46 0 0 0 .167.627l1.026.593-1.026.592a.454.454 0 0 0-.167.626.46.46 0 0 0 .626.168l1.025-.59.001-.002Zm-4.818 0v1.185a.46.46 0 0 0 .917 0v-1.185l1.026.592a.457.457 0 0 0 .628-.168.46.46 0 0 0-.169-.626l-1.026-.592 1.026-.593a.461.461 0 0 0 .17-.627.464.464 0 0 0-.629-.168l-1.026.592v-1.184a.46.46 0 0 0-.917 0v1.184l-1.027-.592a.455.455 0 0 0-.626.168c-.126.22-.051.5.167.627l1.027.593-1.027.592a.46.46 0 0 0 .459.794l1.025-.59.002-.002Zm-4.821 0v1.185a.46.46 0 0 0 .918 0v-1.185l1.025.592a.458.458 0 1 0 .46-.794l-1.025-.592 1.024-.593a.457.457 0 0 0 .169-.627.46.46 0 0 0-.628-.168l-1.025.592v-1.184a.46.46 0 0 0-.918 0v1.184l-1.027-.592a.457.457 0 0 0-.626.168.46.46 0 0 0 .167.627l1.027.593-1.027.592a.454.454 0 0 0-.167.626.46.46 0 0 0 .626.168l1.025-.59.002-.002Zm-4.819 0v1.185a.46.46 0 0 0 .917 0v-1.185l1.026.592a.457.457 0 0 0 .628-.168.46.46 0 0 0-.169-.626l-1.026-.592 1.026-.593a.461.461 0 0 0 .17-.627.464.464 0 0 0-.629-.168l-1.026.592v-1.184a.46.46 0 0 0-.917 0v1.184l-1.027-.592a.455.455 0 0 0-.626.168.46.46 0 0 0 .167.627l1.027.593-1.027.592a.46.46 0 0 0 .46.794l1.025-.59.001-.002Z" fill="#e4eaf8" fill-rule="evenodd" data-name="Differenzmenge 2"/></g></svg>