<svg xmlns="http://www.w3.org/2000/svg" width="22.499" height="22" viewBox="490.497 478 22.499 22"><g data-name="Gruppe maskieren 15" transform="translate(491 478)" clip-path="url(&quot;#a&quot;)"><path d="M1.654 14.41a1.1 1.1 0 0 1 1.473.495A8.8 8.8 0 1 0 11.003 2.2a8.722 8.722 0 0 0-7.876 4.894 1.107 1.107 0 0 1-1.98-.99 10.999 10.999 0 1 1 0 9.79 1.1 1.1 0 0 1 .507-1.485Z" fill="#fff" fill-rule="evenodd" data-name="login"/><path d="M.031 10.967A1.222 1.222 0 0 1 1.258 9.74l8.838.052-.009-2.239c.004-.493.304-.937.76-1.123.456-.19.981-.088 1.332.26l3.457 3.456c.111.115.2.25.259.398.124.299.124.634 0 .933-.06.148-.148.283-.26.398l-3.456 3.457c-.35.347-.876.45-1.331.259a1.222 1.222 0 0 1-.76-1.124l.008-2.238-8.88.009a1.222 1.222 0 0 1-1.185-1.27Z" fill="#fff" fill-rule="evenodd" data-name="Pfad 101"/></g><defs><clipPath id="a"><path d="M0 0h22v22H0V0z" data-name="Rechteck 141"/></clipPath></defs></svg>