<svg xmlns="http://www.w3.org/2000/svg" width="26.505" height="30" viewBox="282.747 575 26.505 30"><path d="M35.309 33.14h-.003a2.734 2.734 0 0 1-.25-.107 5.6 5.6 0 0 1-.325-.17 1.606 1.606 0 0 1-.146-.076l-10.731-6.195a1.626 1.626 0 0 1-.154-.102 6.707 6.707 0 0 1-.337-.218 3.12 3.12 0 0 1-.226-.172l-.004-.004a1.528 1.528 0 0 1-.338-.393 1.515 1.515 0 0 1-.175-.51v-.005a3.03 3.03 0 0 1-.032-.289 6.502 6.502 0 0 1-.01-.471V12.045c-.002-.13 0-.305.01-.472.005-.084.014-.187.031-.29v-.005c.028-.18.087-.353.176-.511a1.583 1.583 0 0 1 .382-.43c.086-.07.179-.136.258-.189a7.821 7.821 0 0 1 .497-.304l5.285-3.052.019-.01 5.307-3.065c.11-.067.269-.158.426-.238.08-.04.18-.088.281-.128l.006-.003c.176-.072.364-.11.555-.114.173.003.345.035.507.095l.005.002c.095.034.186.074.26.109.135.063.274.135.385.196.036.018.072.037.106.057l10.73 6.194.001.001-.513 1.079a4.836 4.836 0 0 0-.081-.049L36.48 4.723a.412.412 0 0 0-.048-.024c-.208-.116-.52-.275-.621-.275-.114 0-.474.202-.662.317l-5.327 3.075a.283.283 0 0 0-.007.004l-5.344 3.086.001-.003-.002.001h-.001c-.192.112-.585.355-.644.457-.04.07-.055.299-.058.504v12.57c-.003.228.006.582.058.673.05.088.35.281.555.404.021.019.044.036.07.05l10.73 6.195a.407.407 0 0 0 .075.034c.194.113.461.254.556.254.093 0 .363-.135.568-.246a.402.402 0 0 0 .1-.042l1.268-.731-.888 1.865a5.867 5.867 0 0 1-.314.156c-.07.031-.156.068-.247.1h-.003a1.392 1.392 0 0 1-.986-.006Zm2.438-2.114 9.464-5.464a.411.411 0 0 0 .076-.057c.204-.122.494-.31.544-.397.049-.084.06-.394.059-.62a.39.39 0 0 0 .003-.053v-12.39a.396.396 0 0 0-.003-.053c0-.227-.01-.546-.059-.63-.05-.087-.335-.273-.539-.395l.513-1.079.035.02c.115.068.271.164.416.263.073.05.16.113.242.18l.005.005c.143.114.264.253.358.41a1.5 1.5 0 0 1 .172.491v.004c.018.1.027.198.033.277.01.14.013.285.013.406.002.033.003.067.003.1v12.392c0 .033 0 .067-.003.101 0 .12-.004.264-.014.402a2.822 2.822 0 0 1-.032.274v.003c-.03.17-.087.335-.171.486-.089.149-.202.28-.335.391l-.004.003a3.043 3.043 0 0 1-.223.17c-.108.076-.224.15-.324.213-.055.041-.112.079-.17.113l-10.731 6.195c-.07.04-.142.075-.216.104l.888-1.865ZM36.29 25.54l5.607-3.237.516-1.085V14.99l4.097-2.381.781-1.642-.781 1.642.97-.564v12.39l-5.067-2.945v-.272l-.516 1.085.022-.013 5.085 2.915-8.946 5.165-.312.656.312-.656-1.785 1.03.017-5.86Zm-11.636-.335 5.085-2.915 5.629 3.25.017 5.86-10.73-6.195Zm-.476-13.16 5.067 2.945v6.5l-5.067 2.946V12.045Zm14.927.52L36.29 10.94l-.017-5.86 5.365 3.097 5.366 3.098-5.085 2.915-2.814-1.625Zm-14.451-1.29 5.365-3.098 5.366-3.098-.018 5.861-2.814 1.625-2.815 1.625-5.084-2.915Z" fill-rule="evenodd" fill="url(&quot;#a&quot;)" transform="translate(260.17 571.766)" data-name="Altening"/><defs><linearGradient x1=".5" y1="0" x2=".5" y2=".547" id="a"><stop stop-color="#a5c371" offset="0"/><stop stop-color="#008e86" offset="1"/></linearGradient></defs></svg>