<svg width="15" height="15" viewBox="0 0 15 15" fill="none" xmlns="http://www.w3.org/2000/svg">
    <path d="M7.5 0C3.35798 0 0 3.35798 0 7.5C0 11.642 3.35798 15 7.5 15C11.642 15 15 11.642 15 7.5C15 3.35798 11.642 0 7.5 0ZM8.4993 11.6524C8.49745 11.7255 8.46759 11.7951 8.41589 11.8468C8.36419 11.8985 8.29461 11.9284 8.22151 11.9302H6.55487C6.48178 11.9284 6.41219 11.8985 6.36049 11.8468C6.30879 11.7951 6.27893 11.7255 6.27709 11.6524V9.98578C6.27893 9.91269 6.30879 9.8431 6.36049 9.7914C6.41219 9.7397 6.48178 9.70984 6.55487 9.70799H8.22164C8.29473 9.70984 8.36432 9.7397 8.41602 9.7914C8.46772 9.8431 8.49758 9.91269 8.49942 9.98578L8.4993 11.6524ZM10.342 7.05473C10.2346 7.20952 10.1061 7.34848 9.96006 7.46754C9.83432 7.5776 9.70088 7.67855 9.56077 7.76962C9.45869 7.83212 9.3176 7.91418 9.13749 8.0158C8.94455 8.12535 8.78122 8.28028 8.66165 8.46719C8.53457 8.66164 8.47103 8.81673 8.47103 8.93247C8.46961 9.01475 8.44023 9.0941 8.38771 9.15747C8.3662 9.18958 8.33733 9.21609 8.30352 9.23482C8.2697 9.25354 8.23191 9.26393 8.19328 9.26512H6.52777C6.45832 9.26512 6.3993 9.22229 6.3507 9.13664C6.30389 9.05777 6.27874 8.96793 6.27778 8.87622V8.56371C6.27778 8.17968 6.42825 7.81764 6.72917 7.47759C7.0301 7.13755 7.36088 6.8865 7.72153 6.72444C7.99445 6.59991 8.18878 6.47039 8.30452 6.33589C8.42025 6.2014 8.47812 6.02559 8.47812 5.80847C8.47812 5.61448 8.3706 5.44326 8.15556 5.29481C7.93576 5.14546 7.67506 5.06794 7.40937 5.07293C7.10845 5.07293 6.85868 5.13995 6.66006 5.27398C6.49803 5.38972 6.25045 5.65592 5.91734 6.07261C5.89261 6.1066 5.86025 6.13433 5.82287 6.15356C5.78549 6.1728 5.74412 6.18301 5.70208 6.18337C5.64014 6.18153 5.57998 6.16227 5.52848 6.12782L4.39027 5.25977C4.33291 5.21835 4.29422 5.15596 4.28263 5.08617C4.27076 5.01886 4.28437 4.94955 4.32082 4.89173C5.06158 3.66112 6.13496 3.04582 7.54097 3.04582C7.92379 3.04904 8.30273 3.12297 8.65869 3.26389C9.02438 3.40193 9.36623 3.59629 9.67188 3.83994C9.97401 4.08155 10.2243 4.38166 10.4076 4.72229C10.5949 5.059 10.6935 5.43773 10.6944 5.82299C10.6935 6.25835 10.5715 6.68486 10.342 7.05485L10.342 7.05473Z"
          fill="white"/>
</svg>
