<?xml version="1.0" encoding="UTF-8"?>
<svg xmlns:cc="http://creativecommons.org/ns#" xmlns:dc="http://purl.org/dc/elements/1.1/"
     xmlns:rdf="http://www.w3.org/1999/02/22-rdf-syntax-ns#" width="995.34" height="289.89" clip-rule="evenodd"
     fill-rule="evenodd" stroke-linejoin="round" stroke-miterlimit="1.4142" version="1.1" viewBox="0 0 995.34 289.89"
     xml:space="preserve" xmlns="http://www.w3.org/2000/svg"><metadata><rdf:RDF><cc:Work rdf:about=""><dc:format>image/svg+xml</dc:format><dc:type
        rdf:resource="http://purl.org/dc/dcmitype/StillImage"/><dc:title/></cc:Work></rdf:RDF></metadata>
    <g transform="translate(-83.908 -685.39)">
        <g transform="matrix(.31644 0 0 .31644 21.201 546.28)">
            <path d="m1072.3 910.24c0-241.21-195.84-437.04-437.05-437.04h-437.04v437.04c0 241.22 195.83 437.05 437.04 437.05s437.05-195.83 437.05-437.05z"
                  fill="#fff"/>
        </g>
        <g transform="matrix(.62902 0 0 .62902 141.11 332.83)" fill="#fff" fill-rule="nonzero">
            <path d="m572.58 750h-131.04v-187.16h37.459v149.7h93.58z"/>
            <rect x="592.03" y="562.84" width="37.458" height="187.16"/>
            <path d="m822.52 787.46h-42.548l-22.449-33.673c-1.218 0.174-2.371 0.261-3.459 0.261h-3.197c-8.875 0-17.424-1.153-25.647-3.459-8.222-2.305-15.923-5.568-23.101-9.788-7.179-4.22-13.726-9.289-19.643-15.206-5.917-5.916-10.985-12.464-15.205-19.642-4.22-7.179-7.483-14.879-9.789-23.102-2.306-8.222-3.459-16.771-3.459-25.646s1.153-17.446 3.459-25.712 5.569-15.967 9.789-23.101c4.22-7.135 9.288-13.661 15.205-19.578s12.464-10.963 19.643-15.14c7.178-4.176 14.879-7.418 23.101-9.723 8.223-2.306 16.772-3.459 25.647-3.459s17.445 1.153 25.711 3.459c8.266 2.305 15.967 5.547 23.102 9.723 7.135 4.177 13.661 9.223 19.577 15.14 5.917 5.917 10.964 12.443 15.14 19.578 4.177 7.134 7.418 14.835 9.724 23.101 2.305 8.266 3.458 16.837 3.458 25.712 0 9.223-1.283 18.185-3.85 26.886s-6.199 16.815-10.898 24.341c-4.699 7.527-10.376 14.336-17.032 20.426-6.657 6.091-14.074 11.181-22.253 15.271zm-12.138-130.26c0-8.179-1.566-15.902-4.698-23.167-3.133-7.265-7.375-13.574-12.726-18.925s-11.659-9.593-18.925-12.725c-7.265-3.133-14.987-4.699-23.166-4.699-8.266 0-16.01 1.566-23.232 4.699-7.222 3.132-13.531 7.374-18.925 12.725-5.395 5.351-9.658 11.66-12.791 18.925-3.132 7.265-4.698 14.988-4.698 23.167s1.566 15.858 4.698 23.036c3.133 7.178 7.396 13.465 12.791 18.86 5.394 5.394 11.703 9.658 18.925 12.79 7.222 3.133 14.966 4.699 23.232 4.699 8.179 0 15.901-1.566 23.166-4.699 7.266-3.132 13.574-7.396 18.925-12.79 5.351-5.395 9.593-11.682 12.726-18.86 3.132-7.178 4.698-14.857 4.698-23.036z"/>
            <path d="m1019.7 675.21c0 10.354-1.96 20.078-5.87 29.17-3.92 9.093-9.27 17.011-16.056 23.754-6.787 6.744-14.727 12.073-23.819 15.989-9.093 3.915-18.816 5.873-29.171 5.873-10.354 0-20.078-1.958-29.17-5.873-9.093-3.916-17.011-9.245-23.754-15.989-6.744-6.743-12.073-14.661-15.989-23.754-3.915-9.092-5.873-18.816-5.873-29.17v-112.38h37.328v112.38c0 5.134 0.979 9.963 2.937 14.487 1.957 4.525 4.633 8.484 8.026 11.877 3.394 3.394 7.375 6.069 11.943 8.027s9.419 2.937 14.552 2.937c5.134 0 9.985-0.979 14.553-2.937s8.549-4.633 11.942-8.027c3.393-3.393 6.069-7.352 8.027-11.877 1.958-4.524 2.936-9.353 2.936-14.487v-112.38h37.458z"/>
            <rect x="1052.2" y="562.84" width="37.458" height="187.16"/>
            <path d="m1274.4 656.42c0 8.614-1.11 16.902-3.33 24.863-2.22 7.962-5.37 15.401-9.46 22.318-4.09 6.918-8.96 13.226-14.62 18.925s-11.96 10.594-18.92 14.683c-6.97 4.09-14.43 7.244-22.39 9.463s-16.25 3.328-24.86 3.328h-56.39v-187.16h56.39c8.61 0 16.9 1.11 24.86 3.328 7.96 2.219 15.42 5.373 22.39 9.463 6.96 4.089 13.26 8.984 18.92 14.683s10.53 12.008 14.62 18.925 7.24 14.357 9.46 22.318c2.22 7.962 3.33 16.25 3.33 24.864zm-37.46 0c0-7.744-1.46-15.01-4.37-21.797-2.92-6.786-6.92-12.725-12.01-17.815s-11.05-9.115-17.88-12.073-14.12-4.437-21.86-4.437h-18.67v112.24h18.67c7.74 0 15.03-1.458 21.86-4.373 6.83-2.914 12.79-6.917 17.88-12.007s9.09-11.05 12.01-17.881c2.91-6.83 4.37-14.117 4.37-21.861z"/>
            <path d="m591.24 961.18c0 7.744-1.479 15.009-4.438 21.796-2.958 6.787-6.982 12.725-12.072 17.818-5.091 5.09-11.029 9.11-17.816 12.07s-14.052 4.44-21.796 4.44h-93.581v-187.16h93.581c7.744 0 15.009 1.479 21.796 4.438 6.787 2.958 12.725 6.982 17.816 12.072 5.09 5.091 9.114 11.029 12.072 17.816 2.959 6.787 4.438 14.052 4.438 21.796 0 3.481-0.479 7.048-1.436 10.703-0.957 3.654-2.306 7.178-4.046 10.571-1.74 3.394-3.828 6.483-6.265 9.267-2.436 2.784-5.133 5.09-8.092 6.918 3.046 1.653 5.787 3.893 8.223 6.721s4.525 5.939 6.265 9.332 3.067 6.939 3.98 10.637c0.914 3.698 1.371 7.287 1.371 10.768zm-112.24 18.664h56.122c2.61 0 5.046-0.479 7.309-1.436 2.262-0.957 4.242-2.284 5.938-3.981 1.697-1.697 3.024-3.676 3.981-5.938 0.957-2.263 1.436-4.699 1.436-7.309 0-2.611-0.479-5.047-1.436-7.309s-2.284-4.242-3.981-5.939c-1.696-1.696-3.676-3.023-5.938-3.98-2.263-0.958-4.699-1.436-7.309-1.436h-56.122zm0-74.786h56.122c2.61 0 5.046-0.479 7.309-1.436 2.262-0.957 4.242-2.284 5.938-3.981 1.697-1.697 3.024-3.698 3.981-6.004 0.957-2.305 1.436-4.763 1.436-7.374 0-2.61-0.479-5.046-1.436-7.309-0.957-2.262-2.284-4.241-3.981-5.938-1.696-1.697-3.676-3.024-5.938-3.981-2.263-0.957-4.699-1.436-7.309-1.436h-56.122z"/>
            <path d="m802.94 924.5c0 8.875-1.153 17.424-3.459 25.646-2.306 8.223-5.547 15.923-9.723 23.102-4.177 7.178-9.224 13.726-15.14 19.642-5.917 5.917-12.443 10.989-19.578 15.209s-14.835 7.48-23.101 9.78c-8.266 2.31-16.837 3.46-25.712 3.46s-17.424-1.15-25.647-3.46c-8.222-2.3-15.923-5.56-23.101-9.78s-13.726-9.292-19.643-15.209c-5.916-5.916-10.985-12.464-15.205-19.642-4.22-7.179-7.483-14.879-9.789-23.102-2.305-8.222-3.458-16.771-3.458-25.646 0-8.876 1.153-17.446 3.458-25.712 2.306-8.266 5.569-15.967 9.789-23.102 4.22-7.134 9.289-13.66 15.205-19.577 5.917-5.917 12.465-10.963 19.643-15.14s14.879-7.418 23.101-9.723c8.223-2.306 16.772-3.459 25.647-3.459s17.446 1.153 25.712 3.459c8.266 2.305 15.966 5.546 23.101 9.723s13.661 9.223 19.578 15.14c5.916 5.917 10.963 12.443 15.14 19.577 4.176 7.135 7.417 14.836 9.723 23.102s3.459 16.836 3.459 25.712zm-37.197 0c0-8.179-1.567-15.902-4.699-23.167s-7.374-13.574-12.725-18.925c-5.352-5.351-11.66-9.593-18.925-12.725-7.266-3.133-14.988-4.699-23.167-4.699-8.266 0-16.01 1.566-23.232 4.699-7.222 3.132-13.53 7.374-18.925 12.725s-9.658 11.66-12.79 18.925c-3.133 7.265-4.699 14.988-4.699 23.167s1.566 15.857 4.699 23.036c3.132 7.178 7.395 13.465 12.79 18.859 5.395 5.395 11.703 9.659 18.925 12.791s14.966 4.699 23.232 4.699c8.179 0 15.901-1.567 23.167-4.699 7.265-3.132 13.573-7.396 18.925-12.791 5.351-5.394 9.593-11.681 12.725-18.859 3.132-7.179 4.699-14.857 4.699-23.036z"/>
            <path d="m975.09 942.51c0 10.354-1.958 20.078-5.873 29.17-3.916 9.093-9.267 17.011-16.054 23.754-6.787 6.744-14.726 12.074-23.819 15.994-9.093 3.91-18.816 5.87-29.17 5.87-10.355 0-20.078-1.96-29.171-5.87-9.093-3.92-17.011-9.25-23.754-15.994-6.743-6.743-12.073-14.661-15.988-23.754-3.916-9.092-5.873-18.816-5.873-29.17v-112.38h37.327v112.38c0 5.134 0.979 9.963 2.937 14.487 1.958 4.525 4.633 8.484 8.027 11.877 3.393 3.394 7.374 6.069 11.942 8.027s9.419 2.937 14.553 2.937c5.133 0 9.984-0.979 14.552-2.937s8.549-4.633 11.942-8.027c3.394-3.393 6.069-7.352 8.027-11.877 1.958-4.524 2.937-9.353 2.937-14.487v-112.38h37.458z"/>
            <path d="m1157.3 1017.3h-40.07l-72.18-123.21v123.21h-37.46v-187.16h40.07l72.18 123.34v-123.34h37.46z"/>
            <path d="m1341.4 998.11c-8.7 7.488-18.44 13.228-29.23 17.228s-21.97 6-33.54 6c-8.88 0-17.43-1.15-25.65-3.46-8.22-2.3-15.92-5.56-23.1-9.78s-13.73-9.292-19.64-15.209c-5.92-5.916-10.99-12.464-15.21-19.642-4.22-7.179-7.48-14.879-9.79-23.102-2.3-8.222-3.46-16.771-3.46-25.646 0-8.876 1.16-17.446 3.46-25.712 2.31-8.266 5.57-15.988 9.79-23.167 4.22-7.178 9.29-13.726 15.21-19.643 5.91-5.916 12.46-10.985 19.64-15.205s14.88-7.483 23.1-9.788c8.22-2.306 16.77-3.459 25.65-3.459 11.57 0 22.75 1.979 33.54 5.938s20.53 9.724 29.23 17.294l-19.83 32.629c-5.49-5.917-11.97-10.463-19.45-13.639s-15.31-4.764-23.49-4.764c-8.27 0-16.02 1.566-23.24 4.699-7.22 3.132-13.53 7.374-18.92 12.725-5.4 5.351-9.66 11.66-12.79 18.925s-4.7 14.988-4.7 23.167 1.57 15.857 4.7 23.036c3.13 7.178 7.39 13.465 12.79 18.859 5.39 5.395 11.7 9.659 18.92 12.791s14.97 4.699 23.24 4.699c8.18 0 16.01-1.588 23.49-4.764s13.96-7.722 19.45-13.639z"/>
            <path d="m1491.4 1017.3h-128.3v-187.16h128.3v37.458h-90.84v37.459h61.47v37.458h-61.47v37.328h90.84z"/>
        </g>
    </g>
</svg>
