<svg xmlns="http://www.w3.org/2000/svg" width="22" height="22.001" viewBox="0 0 22 22.001"><path d="M-1627-480a11,11,0,0,1,11-11,11,11,0,0,1,11,11,11,11,0,0,1-11,11A11,11,0,0,1-1627-480Zm2.5,0a8.51,8.51,0,0,0,8.5,8.5,8.51,8.51,0,0,0,8.5-8.5,8.51,8.51,0,0,0-8.5-8.5A8.51,8.51,0,0,0-1624.5-480Zm8.5,5.5a1.236,1.236,0,0,1-.88-.365,1.239,1.239,0,0,1-.366-.884v-3h-3a1.254,1.254,0,0,1-1.25-1.25,1.244,1.244,0,0,1,.366-.884,1.244,1.244,0,0,1,.884-.367h3v-3a1.241,1.241,0,0,1,.366-.884,1.243,1.243,0,0,1,.883-.366,1.255,1.255,0,0,1,1.251,1.251v3h3a1.253,1.253,0,0,1,1.25,1.25,1.25,1.25,0,0,1-.367.884,1.24,1.24,0,0,1-.883.365h-3v3a1.243,1.243,0,0,1-.366.884,1.24,1.24,0,0,1-.884.365Z" transform="translate(1627 491)" fill="currentColor"/></svg>