<svg width="22" height="22" viewBox="0 0 22 22" fill="none" xmlns="http://www.w3.org/2000/svg">
<g clip-path="url(#clip0_3227_104)">
<mask id="mask0_3227_104" style="mask-type:luminance" maskUnits="userSpaceOnUse" x="0" y="0" width="22" height="22">
<path d="M22 0H0V22H22V0Z" fill="currentColor"/>
</mask>
<g mask="url(#mask0_3227_104)">
<mask id="mask1_3227_104" style="mask-type:luminance" maskUnits="userSpaceOnUse" x="0" y="0" width="22" height="22">
<path d="M22 0H0V22H22V0Z" fill="currentColor"/>
</mask>
<g mask="url(#mask1_3227_104)">
<path d="M20.347 14.409C20.0859 14.2793 19.7839 14.2586 19.5076 14.3514C19.2312 14.4442 19.0029 14.643 18.873 14.904C17.9921 16.6832 16.5355 18.1123 14.7398 18.959C12.944 19.8058 10.9148 20.0204 8.98165 19.568C7.04853 19.1157 5.32517 18.023 4.09157 16.4674C2.85797 14.9118 2.18663 12.9848 2.18663 10.9995C2.18663 9.01416 2.85797 7.08716 4.09157 5.53159C5.32517 3.97601 7.04853 2.88329 8.98165 2.43095C10.9148 1.97861 12.944 2.19325 14.7398 3.03998C16.5355 3.88671 17.9921 5.31578 18.873 7.095C18.9366 7.22743 19.0258 7.34589 19.1356 7.44348C19.2454 7.54107 19.3735 7.61583 19.5125 7.66341C19.6514 7.71099 19.7985 7.73044 19.945 7.72062C20.0916 7.71081 20.2347 7.67192 20.3661 7.60623C20.4975 7.54054 20.6145 7.44936 20.7103 7.338C20.8061 7.22664 20.8787 7.09734 20.9241 6.95761C20.9694 6.81789 20.9864 6.67054 20.9742 6.52416C20.962 6.37778 20.9208 6.23529 20.853 6.105C19.7494 3.88372 17.9274 2.10063 15.6828 1.04515C13.4383 -0.0103306 10.9029 -0.276241 8.48815 0.290579C6.07344 0.857398 3.92117 2.22367 2.38069 4.16764C0.840198 6.11161 0.00192261 8.51915 0.00192261 10.9995C0.00192261 13.4798 0.840198 15.8874 2.38069 17.8314C3.92117 19.7753 6.07344 21.1416 8.48815 21.7084C10.9029 22.2752 13.4383 22.0093 15.6828 20.9538C17.9274 19.8984 19.7494 18.1153 20.853 15.894C20.9186 15.7635 20.9575 15.6213 20.9675 15.4756C20.9775 15.3299 20.9584 15.1837 20.9113 15.0454C20.8642 14.9072 20.79 14.7797 20.6931 14.6705C20.5963 14.5612 20.4786 14.4723 20.347 14.409Z" fill="currentColor"/>
<path d="M21.9692 10.9679C21.9699 10.8065 21.9387 10.6465 21.8772 10.4973C21.8158 10.348 21.7254 10.2124 21.6113 10.0983C21.4971 9.98414 21.3615 9.89375 21.2123 9.83232C21.063 9.77089 20.903 9.73964 20.7416 9.74037L11.9049 9.79199L11.9134 7.55329C11.9107 7.31216 11.8372 7.07713 11.7021 6.87744C11.5669 6.67774 11.376 6.52218 11.1531 6.43011C10.9302 6.33803 10.6852 6.31351 10.4485 6.35957C10.2118 6.40564 9.99386 6.52027 9.82179 6.68921L6.36474 10.1463C6.19693 10.3191 6.08304 10.537 6.03696 10.7734C5.99088 11.0098 6.0146 11.2546 6.10523 11.4777C6.16414 11.6262 6.25158 11.7617 6.36262 11.8765L9.81966 15.3336C9.99174 15.5025 10.2097 15.6172 10.4464 15.6632C10.6831 15.7093 10.9281 15.6848 11.151 15.5927C11.3739 15.5006 11.5648 15.3451 11.6999 15.1454C11.8351 14.9457 11.9086 14.7106 11.9113 14.4695L11.9042 12.2294L20.7834 12.24C20.9451 12.2353 21.1042 12.1986 21.2517 12.132C21.3991 12.0653 21.5318 11.9701 21.6421 11.8517C21.7524 11.7334 21.8381 11.5943 21.8943 11.4426C21.9504 11.2909 21.9759 11.1295 21.9692 10.9679Z" fill="currentColor"/>
</g>
</g>
</g>
<defs>
<clipPath id="clip0_3227_104">
<rect width="22" height="22" fill="currentColor"/>
</clipPath>
</defs>
</svg>
