<svg xmlns="http://www.w3.org/2000/svg" viewBox="0 0 22 22"><defs><clipPath id="a"><path data-name="Rectangle 28" fill="#fff" d="M0 0h22v22H0z"/></clipPath></defs><g data-name="Mask Group 8" clip-path="url(#a)"><g data-name="Mask Group 16" clip-path="url(#a)" fill="currentColor"><path d="M20.347 14.409a1.1 1.1 0 0 0-1.474.495 8.8 8.8 0 1 1 0-7.809 1.107 1.107 0 1 0 1.98-.99 11 11 0 1 0 0 9.789 1.1 1.1 0 0 0-.506-1.485Z"/><path data-name="Path 102" d="M21.9690726 10.96801792a1.222 1.222 0 0 0-1.22753736-1.22753737l-8.83671345.0516188.00848528-2.23870008a1.23 1.23 0 0 0-2.09162186-.86408448l-3.45704505 3.45704505a1.241 1.241 0 0 0-.25950819 1.33148207 1.222 1.222 0 0 0 .25738687.39880822L9.8195639 15.3336952a1.23 1.23 0 0 0 2.09162186-.8640845l-.00707106-2.24011427 8.87913985.0106066a1.222 1.222 0 0 0 1.18581807-1.2720851Z"/></g></g></svg>