<svg width="22" height="22" viewBox="0 0 22 22" fill="none" xmlns="http://www.w3.org/2000/svg">
<g clip-path="url(#clip0_3225_22)">
<mask id="mask0_3225_22" style="mask-type:luminance" maskUnits="userSpaceOnUse" x="0" y="0" width="22" height="22">
<path d="M22 0H0V22H22V0Z" fill="currentColor"/>
</mask>
<g mask="url(#mask0_3225_22)">
<path d="M11.505 8.745V9.851C11.4936 10.1566 11.5659 10.4595 11.714 10.727C11.8006 10.8789 11.9259 11.0052 12.0771 11.093C12.2284 11.1808 12.4001 11.227 12.575 11.227C12.7713 11.2164 12.9635 11.1667 13.1404 11.0809C13.3173 10.995 13.4752 10.8747 13.605 10.727L17.258 7.074C17.643 6.68785 17.8592 6.1648 17.8592 5.6195C17.8592 5.0742 17.643 4.55115 17.258 4.165L13.604 0.5C13.4743 0.352257 13.3163 0.231922 13.1395 0.146059C12.9626 0.0601972 12.7703 0.0105388 12.574 0C12.042 0 11.505 0.425 11.505 1.374V2.374C8.97288 2.52505 6.57369 3.55835 4.72421 5.29439C2.87472 7.03043 1.69182 9.3595 1.381 11.877C1.36402 12.0185 1.39437 12.1616 1.46729 12.284C1.54021 12.4064 1.65161 12.5012 1.78409 12.5536C1.91657 12.606 2.06268 12.6131 2.19961 12.5737C2.33654 12.5344 2.45658 12.4508 2.541 12.336C3.54675 10.9569 4.92037 9.88875 6.50471 9.2537C8.08906 8.61865 9.82016 8.44236 11.5 8.745H11.505Z" fill="currentColor"/>
<path d="M20.212 9.445C20.0794 9.39252 19.9331 9.38556 19.7961 9.42519C19.6591 9.46483 19.5391 9.54882 19.455 9.664C18.4492 11.0431 17.0756 12.1112 15.4913 12.7463C13.9069 13.3813 12.1758 13.5576 10.496 13.255V12.149C10.496 11.2 9.95899 10.775 9.42699 10.775C9.23067 10.7856 9.03844 10.8353 8.86157 10.9211C8.6847 11.007 8.52675 11.1273 8.39699 11.275L4.74299 14.933C4.35767 15.3192 4.14127 15.8425 4.14127 16.388C4.14127 16.9335 4.35767 17.4568 4.74299 17.843L8.39699 21.5C8.52675 21.6477 8.6847 21.768 8.86157 21.8539C9.03844 21.9397 9.23067 21.9894 9.42699 22C9.95899 22 10.496 21.575 10.496 20.626V19.626C13.0268 19.4739 15.4244 18.4406 17.2728 16.7052C19.1212 14.9699 20.3037 12.6422 20.615 10.126C20.6327 9.98466 20.603 9.84145 20.5306 9.71876C20.4583 9.59608 20.3473 9.50086 20.215 9.448L20.212 9.445Z" fill="currentColor"/>
</g>
</g>
<defs>
<clipPath id="clip0_3225_22">
<rect width="22" height="22" fill="currentColor"/>
</clipPath>
</defs>
</svg>
