<svg xmlns="http://www.w3.org/2000/svg" viewBox="0 0 22 22"><defs><clipPath id="a"><path data-name="Rectangle 28" transform="translate(491 478)" fill="#fff" d="M0 0h22v22H0z"/></clipPath></defs><g data-name="Mask Group 9" transform="translate(-491 -478)" clip-path="url(#a)"><g fill="currentColor"><path data-name="Path 32" d="M502.505 486.745v1.106a1.68 1.68 0 0 0 .209.876.991.991 0 0 0 .861.5 1.477 1.477 0 0 0 1.03-.5l3.653-3.653a2.06 2.06 0 0 0 0-2.909l-3.654-3.665a1.476 1.476 0 0 0-1.03-.5c-.532 0-1.069.425-1.069 1.374v1a10.852 10.852 0 0 0-10.124 9.503.645.645 0 0 0 1.16.459 9.093 9.093 0 0 1 8.959-3.591Zm0 0"/><path data-name="Path 33" d="M511.212 487.445a.644.644 0 0 0-.757.219 9.093 9.093 0 0 1-8.959 3.591v-1.106c0-.949-.537-1.374-1.069-1.374a1.477 1.477 0 0 0-1.03.5l-3.654 3.658a2.06 2.06 0 0 0 0 2.91l3.654 3.657a1.477 1.477 0 0 0 1.03.5c.532 0 1.069-.425 1.069-1.374v-1a10.852 10.852 0 0 0 10.119-9.5.644.644 0 0 0-.4-.678zm0 0"/></g></g></svg>