<svg xmlns="http://www.w3.org/2000/svg" width="22" height="16.112" viewBox="0 0 22 16.112"><path d="M7.263,15.665a1.5,1.5,0,0,0,1.069.447A1.514,1.514,0,0,0,8.913,16a1.531,1.531,0,0,0,.495-.331L22.5,2.6a1.543,1.543,0,0,0,.453-1.079A1.518,1.518,0,0,0,22.513.447,1.5,1.5,0,0,0,21.444,0a1.525,1.525,0,0,0-1.076.447L8.362,12.428,3.546,7.542A1.5,1.5,0,0,0,2.478,7.1,1.524,1.524,0,0,0,1.4,7.542,1.543,1.543,0,0,0,.948,8.621,1.518,1.518,0,0,0,1.384,9.7Z" transform="translate(-0.948)" fill="currentColor"/></svg>