<svg width="21" height="12" viewBox="0 0 21 12" fill="none" xmlns="http://www.w3.org/2000/svg">
<g clip-path="url(#clip0_3228_154)">
<path d="M5.72205e-06 1C4.79464e-05 0.80225 0.0587196 0.608952 0.168604 0.444542C0.278488 0.280132 0.434652 0.151993 0.617352 0.0763226C0.800051 0.000652529 1.00108 -0.0191504 1.19504 0.0194171C1.38899 0.0579847 1.56715 0.153191 1.70701 0.293001L10.361 8.947L19.015 0.293001C19.2036 0.110842 19.4562 0.0100481 19.7184 0.0123265C19.9806 0.0146049 20.2314 0.119774 20.4168 0.305182C20.6022 0.49059 20.7074 0.741403 20.7097 1.0036C20.712 1.2658 20.6112 1.5184 20.429 1.707L11.068 11.068C10.8805 11.2555 10.6262 11.3608 10.361 11.3608C10.0958 11.3608 9.84153 11.2555 9.65401 11.068L0.292006 1.707C0.104823 1.51934 -0.000202941 1.26505 5.72205e-06 1Z" fill="currentColor"/>
</g>
<defs>
<clipPath id="clip0_3228_154">
<rect width="20.722" height="11.361" fill="currentColor"/>
</clipPath>
</defs>
</svg>
