<svg xmlns="http://www.w3.org/2000/svg" xmlns:xlink="http://www.w3.org/1999/xlink" width="22" height="22" viewBox="0 0 22 22"><defs><clipPath id="a"><rect width="22" height="22" transform="translate(491 478)" fill="currentColor"/></clipPath></defs><g transform="translate(-491 -478)" clip-path="url(#a)"><g transform="translate(491 478)"><rect width="22" height="22" fill="none"/><path d="M17.188,2.75H14.071a4.118,4.118,0,0,0-6.143,0H4.813A1.377,1.377,0,0,0,3.438,4.125V18.563a1.377,1.377,0,0,0,1.375,1.375H17.188a1.377,1.377,0,0,0,1.375-1.375V4.125A1.377,1.377,0,0,0,17.188,2.75ZM11,2.75A2.753,2.753,0,0,1,13.75,5.5H8.25A2.753,2.753,0,0,1,11,2.75Zm2.75,11H8.25a.688.688,0,0,1,0-1.375h5.5a.688.688,0,0,1,0,1.375Zm0-2.75H8.25a.688.688,0,0,1,0-1.375h5.5a.688.688,0,0,1,0,1.375Z" fill="currentColor"/></g></g></svg>