<svg xmlns="http://www.w3.org/2000/svg" xmlns:xlink="http://www.w3.org/1999/xlink" width="34" height="34" viewBox="0 0 34 34">
  <defs>
    <clipPath id="clip-path">
      <rect id="Rectangle_7" data-name="Rectangle 7" width="34" height="34" transform="translate(38 28.011)" fill="#fff"/>
    </clipPath>
  </defs>
  <g id="Mask_Group_7" data-name="Mask Group 7" transform="translate(-38 -28.011)" clip-path="url(#clip-path)">
    <g id="customize" transform="translate(38 28.011)">
      <g id="Group_52" data-name="Group 52">
        <g id="Group_51" data-name="Group 51">
          <path id="Path_25" data-name="Path 25" d="M2.162,26.2,0,34l7.8-2.162Z" fill="currentColor"/>
        </g>
      </g>
      <g id="Group_54" data-name="Group 54">
        <g id="Group_53" data-name="Group 53">
          <path id="Path_26" data-name="Path 26" d="M33.128,2.28,31.72.872a3,3,0,0,0-4.226,0L26.488,1.878l5.635,5.635,1.006-1.006A3,3,0,0,0,33.128,2.28Z" fill="currentColor"/>
        </g>
      </g>
      <g id="Group_56" data-name="Group 56">
        <g id="Group_55" data-name="Group 55">
          <rect id="Rectangle_41" data-name="Rectangle 41" width="1.992" height="7.969" transform="translate(23.67 4.695) rotate(-45)" fill="currentColor"/>
        </g>
      </g>
      <g id="Group_58" data-name="Group 58">
        <g id="Group_57" data-name="Group 57">
          <rect id="Rectangle_42" data-name="Rectangle 42" width="26.432" height="2.988" transform="translate(7.092 28.316) rotate(-45)" fill="currentColor"/>
        </g>
      </g>
      <g id="Group_60" data-name="Group 60">
        <g id="Group_59" data-name="Group 59">
          <rect id="Rectangle_43" data-name="Rectangle 43" width="26.432" height="2.988" transform="translate(3.571 24.794) rotate(-45)" fill="currentColor"/>
        </g>
      </g>
      <g id="Group_62" data-name="Group 62">
        <g id="Group_61" data-name="Group 61">
          <path id="Path_27" data-name="Path 27" d="M32.1,22.948a6.463,6.463,0,0,0-5.37-1.848l-2.691-2.691-5.635,5.635L21.1,26.735a6.47,6.47,0,0,0,1.2,4.611l5.933-5.933,5.061,5.061A6.477,6.477,0,0,0,32.1,22.948Z" fill="currentColor"/>
        </g>
      </g>
      <g id="Group_64" data-name="Group 64">
        <g id="Group_63" data-name="Group 63">
          <path id="Path_28" data-name="Path 28" d="M26.821,29.639l-3.115,3.115a6.482,6.482,0,0,0,6.768.538Z" fill="currentColor"/>
        </g>
      </g>
      <g id="Group_66" data-name="Group 66">
        <g id="Group_65" data-name="Group 65">
          <path id="Path_29" data-name="Path 29" d="M3.526.708,7.179,4.361l3.115-3.115A6.482,6.482,0,0,0,3.526.708Z" fill="currentColor"/>
        </g>
      </g>
      <g id="Group_68" data-name="Group 68">
        <g id="Group_67" data-name="Group 67">
          <path id="Path_30" data-name="Path 30" d="M12.9,7.265a6.47,6.47,0,0,0-1.2-4.611L5.77,8.587.709,3.526A6.476,6.476,0,0,0,7.266,12.9l2.691,2.691,5.635-5.635Z" fill="currentColor"/>
        </g>
      </g>
    </g>
  </g>
</svg>
