<svg xmlns="http://www.w3.org/2000/svg" xmlns:xlink="http://www.w3.org/1999/xlink" width="22" height="22" viewBox="0 0 22 22"><defs><clipPath id="a"><rect width="22" height="22" transform="translate(491 478)" fill="currentColor" stroke="#707070" stroke-width="1"/></clipPath></defs><g transform="translate(-491 -478)" clip-path="url(#a)"><path d="M.83,12.441l4.663,3.045v5.088a1.071,1.071,0,0,0,1.817.752l2.81-2.81,3.932,2.569a1.06,1.06,0,0,0,1.583-.518L22.3,2.5a.91.91,0,0,0,.05-.433,1.07,1.07,0,0,0-1.512-.894L.958,10.589A1.072,1.072,0,0,0,.83,12.441ZM16.2,5.727,7.6,14.322,3.584,11.7Z" transform="translate(490.644 477.645)" fill="currentColor"/></g></svg>