<svg width="22" height="22" viewBox="0 0 22 22" fill="none" xmlns="http://www.w3.org/2000/svg">
<g clip-path="url(#clip0_3225_15)">
<mask id="mask0_3225_15" style="mask-type:luminance" maskUnits="userSpaceOnUse" x="0" y="0" width="22" height="22">
<path d="M22 0H0V22H22V0Z" fill="currentColor"/>
</mask>
<g mask="url(#mask0_3225_15)">
<path d="M11 0C8.82441 0 6.69767 0.645139 4.88873 1.85383C3.07979 3.06253 1.66989 4.78049 0.83733 6.79048C0.00476617 8.80047 -0.213071 11.0122 0.211367 13.146C0.635804 15.2798 1.68345 17.2398 3.22183 18.7782C4.76021 20.3166 6.72022 21.3642 8.85401 21.7886C10.9878 22.2131 13.1995 21.9952 15.2095 21.1627C17.2195 20.3301 18.9375 18.9202 20.1462 17.1113C21.3549 15.3023 22 13.1756 22 11C22 8.08262 20.8411 5.28473 18.7782 3.22183C16.7153 1.15893 13.9174 0 11 0ZM15.73 13.979L13.978 15.729C13.0377 14.6866 12.0437 13.6939 11 12.755C9.95772 13.6947 8.96441 14.6873 8.024 15.729L6.271 13.979C7.32234 13.0478 8.31554 12.0529 9.245 11C8.31532 9.94757 7.32106 8.95398 6.268 8.025L8.021 6.272C8.021 6.272 10.816 9.247 11 9.247C11.184 9.247 13.978 6.272 13.978 6.272L15.73 8.026C14.6855 8.96471 13.6908 9.9574 12.75 11C12.75 11.2 15.728 13.979 15.728 13.979H15.73Z" fill="currentColor"/>
</g>
</g>
<defs>
<clipPath id="clip0_3225_15">
<rect width="22" height="22" fill="currentColor"/>
</clipPath>
</defs>
</svg>
