<svg xmlns="http://www.w3.org/2000/svg" viewBox="0 0 22 22"><defs><clipPath id="a"><path data-name="Rectangle 28" transform="translate(491 478)" fill="#fff" d="M0 0h22v22H0z"/></clipPath></defs><g data-name="Mask Group 10" transform="translate(-491 -478)" clip-path="url(#a)"><g data-name="Group 70"><g data-name="Group 69"><path data-name="Path 34" d="M512 478h-8a1 1 0 1 0 0 2h5.586l-10.293 10.293a1 1 0 1 0 1.414 1.414L511 481.414V487a1 1 0 1 0 2 0v-8a1 1 0 0 0-1-1Z" fill="currentColor"/></g></g><g data-name="Group 72"><g data-name="Group 71"><path data-name="Path 35" d="M508 488a1 1 0 0 0-1 1v9h-14v-14h9a1 1 0 1 0 0-2h-10a1 1 0 0 0-1 1v16a1 1 0 0 0 1 1h16a1 1 0 0 0 1-1v-10a1 1 0 0 0-1-1Z" fill="currentColor"/></g></g></g></svg>