<svg xmlns="http://www.w3.org/2000/svg" xmlns:xlink="http://www.w3.org/1999/xlink" width="22" height="22" viewBox="0 0 22 22">
  <defs>
    <clipPath id="clip-path">
      <rect id="Rectangle_28" data-name="Rectangle 28" width="22" height="22" transform="translate(491 478)" fill="#fff"/>
    </clipPath>
  </defs>
  <g id="Mask_Group_10" data-name="Mask Group 10" transform="translate(-491 -478)" clip-path="url(#clip-path)">
    <g id="foreign" transform="translate(491 478)">
      <g id="Group_70" data-name="Group 70">
        <g id="Group_69" data-name="Group 69">
          <path id="Path_34" data-name="Path 34" d="M21,0H13a1,1,0,1,0,0,2h5.586L8.293,12.293a1,1,0,1,0,1.414,1.414L20,3.414V9a1,1,0,1,0,2,0V1A1,1,0,0,0,21,0Z" fill="currentColor"/>
        </g>
      </g>
      <g id="Group_72" data-name="Group 72">
        <g id="Group_71" data-name="Group 71">
          <path id="Path_35" data-name="Path 35" d="M17,10a1,1,0,0,0-1,1v9H2V6h9a1,1,0,1,0,0-2H1A1,1,0,0,0,0,5V21a1,1,0,0,0,1,1H17a1,1,0,0,0,1-1V11A1,1,0,0,0,17,10Z" fill="currentColor"/>
        </g>
      </g>
    </g>
  </g>
</svg>
