<svg xmlns="http://www.w3.org/2000/svg" width="26.346" height="15.705" viewBox="0 0 26.346 15.705">
  <path id="Path_100" data-name="Path 100" d="M13.173,0C8.139,0,3.575,2.754.206,7.227a1.043,1.043,0,0,0,0,1.245C3.575,12.951,8.139,15.7,13.173,15.7s9.6-2.754,12.967-7.227a1.043,1.043,0,0,0,0-1.245C22.772,2.754,18.207,0,13.173,0Zm.361,13.382A5.538,5.538,0,1,1,18.7,8.214,5.545,5.545,0,0,1,13.534,13.382Zm-.167-2.555a2.979,2.979,0,1,1,1.92-.867A2.984,2.984,0,0,1,13.367,10.827Z" transform="translate(0)" fill="currentColor"/>
</svg>
