<svg xmlns="http://www.w3.org/2000/svg" xmlns:xlink="http://www.w3.org/1999/xlink" width="22" height="22" viewBox="0 0 22 22">
  <defs>
    <clipPath id="clip-path">
      <rect id="Rectangle_122" data-name="Rectangle 122" width="22" height="22" transform="translate(774 103)" fill="currentColor" stroke="#707070" stroke-width="1"/>
    </clipPath>
  </defs>
  <g id="Mask_Group_13" data-name="Mask Group 13" transform="translate(-774 -103)" clip-path="url(#clip-path)">
    <g id="filter_2_" data-name="filter (2)" transform="translate(774 118.583)">
      <path id="Path_95" data-name="Path 95" d="M23.833,19.25H11.917a.917.917,0,1,1,0-1.833H23.833a.917.917,0,1,1,0,1.833Zm-16.5,0H3.667a.917.917,0,1,1,0-1.833H7.333a.917.917,0,1,1,0,1.833Z" transform="translate(-2.75 -15.125)" fill="currentColor"/>
      <path id="Path_96" data-name="Path 96" d="M9.625,21.542a3.208,3.208,0,1,1,3.208-3.208,3.208,3.208,0,0,1-3.208,3.208Zm0-4.583A1.375,1.375,0,1,0,11,18.333,1.375,1.375,0,0,0,9.625,16.958Z" transform="translate(-2.75 -15.125)" fill="currentColor"/>
    </g>
    <g id="filter_2_2" data-name="filter (2)" transform="translate(774 103)">
      <path id="Path_95-2" data-name="Path 95" d="M23.833,19.25H11.917a.917.917,0,1,1,0-1.833H23.833a.917.917,0,1,1,0,1.833Zm-16.5,0H3.667a.917.917,0,1,1,0-1.833H7.333a.917.917,0,1,1,0,1.833Z" transform="translate(-2.75 -15.125)" fill="currentColor"/>
      <path id="Path_96-2" data-name="Path 96" d="M9.625,21.542a3.208,3.208,0,1,1,3.208-3.208,3.208,3.208,0,0,1-3.208,3.208Zm0-4.583A1.375,1.375,0,1,0,11,18.333,1.375,1.375,0,0,0,9.625,16.958Z" transform="translate(-2.75 -15.125)" fill="currentColor"/>
    </g>
    <g id="filter_2_3" data-name="filter (2)" transform="translate(774 110.583)">
      <path id="Path_95-3" data-name="Path 95" d="M3.667,19.25H15.583a.917.917,0,1,0,0-1.833H3.667a.917.917,0,1,0,0,1.833Zm16.5,0h3.667a.917.917,0,1,0,0-1.833H20.167a.917.917,0,1,0,0,1.833Z" transform="translate(-2.75 -15.125)" fill="currentColor"/>
      <path id="Path_96-3" data-name="Path 96" d="M9.625,21.542a3.208,3.208,0,1,0-3.208-3.208,3.208,3.208,0,0,0,3.208,3.208Zm0-4.583A1.375,1.375,0,1,1,8.25,18.333,1.375,1.375,0,0,1,9.625,16.958Z" transform="translate(5.5 -15.125)" fill="currentColor"/>
    </g>
  </g>
</svg>
