<svg width="40" height="40" viewBox="0 0 40 40" fill="none" xmlns="http://www.w3.org/2000/svg">
<g clip-path="url(#clip0_3227_42)">
<path fill-rule="evenodd" clip-rule="evenodd" d="M19.998 1.14087e-08C15.2467 -0.00225117 10.6498 1.68706 7.03063 4.76538C3.41144 7.8437 1.00636 12.1099 0.246164 16.8C-0.514036 21.4901 0.420307 26.2976 2.88183 30.3615C5.34335 34.4255 9.17126 37.4803 13.68 38.979C14.68 39.162 15.045 38.546 15.045 38.015C15.045 37.54 15.028 36.283 15.018 34.615C9.45498 35.824 8.28098 31.935 8.28098 31.935C7.91314 30.7261 7.12546 29.6884 6.05999 29.009C4.24399 27.768 6.19799 27.793 6.19799 27.793C6.83171 27.8804 7.43708 28.1114 7.96792 28.4685C8.49876 28.8255 8.94103 29.299 9.26098 29.853C11.045 32.91 13.943 32.027 15.082 31.515C15.1733 30.5009 15.6237 29.5526 16.352 28.841C11.911 28.341 7.24198 26.621 7.24198 18.956C7.21308 16.9689 7.95043 15.0469 9.30099 13.589C8.69116 11.8636 8.76269 9.97048 9.50099 8.296C9.50099 8.296 11.179 7.758 15.001 10.346C18.2787 9.44886 21.7373 9.44886 25.015 10.346C28.833 7.758 30.509 8.296 30.509 8.296C31.2471 9.97053 31.3186 11.8635 30.709 13.589C32.0594 15.0468 32.7954 16.9692 32.764 18.956C32.764 26.639 28.087 28.33 23.632 28.825C24.1086 29.3095 24.4764 29.8903 24.7106 30.5284C24.9447 31.1664 25.04 31.8471 24.99 32.525C24.99 35.199 24.965 37.356 24.965 38.012C24.965 38.546 25.326 39.169 26.34 38.973C30.8479 37.4722 34.6743 34.4157 37.1339 30.3507C39.5935 26.2858 40.5256 21.478 39.7634 16.7884C39.0012 12.0988 36.5943 7.83368 32.974 4.75696C29.3536 1.68023 24.7561 -0.00715706 20.005 -0.00300597L19.998 1.14087e-08Z" fill="currentColor"/>
</g>
<defs>
<clipPath id="clip0_3227_42">
<rect width="40" height="39.013" fill="currentColor"/>
</clipPath>
</defs>
</svg>
