<svg xmlns="http://www.w3.org/2000/svg" xmlns:xlink="http://www.w3.org/1999/xlink" width="22" height="22" viewBox="0 0 22 22"><defs><clipPath id="a"><rect width="22" height="22" transform="translate(491 478)" fill="currentColor"/></clipPath></defs><g transform="translate(-491 -478)" clip-path="url(#a)"><g transform="translate(487.333 474.333)"><path d="M22,25.667H7.333A3.667,3.667,0,0,1,3.667,22V7.333A3.667,3.667,0,0,1,7.333,3.667h6.111a1.222,1.222,0,0,1,0,2.444H7.333A1.222,1.222,0,0,0,6.111,7.333V22a1.222,1.222,0,0,0,1.222,1.222H22A1.222,1.222,0,0,0,23.222,22V15.889a1.222,1.222,0,1,1,2.444,0V22A3.667,3.667,0,0,1,22,25.667Z" fill="currentColor"/><path d="M25.251,4.082a1.222,1.222,0,0,0-1.736,0l-7.627,7.7-1.577-1.589a1.23,1.23,0,0,0-2.09.868V15.95a1.241,1.241,0,0,0,1.222,1.222h4.889a1.23,1.23,0,0,0,.868-2.09l-1.589-1.577,7.7-7.688a1.222,1.222,0,0,0-.061-1.736Z" fill="currentColor"/></g></g></svg>