<svg xmlns="http://www.w3.org/2000/svg" width="16.5" height="22" viewBox="0 0 16.5 22"><path d="M-2707.538-462.753a1,1,0,0,1-1-1v-10.831a1,1,0,0,1,1-1h14.5a1,1,0,0,1,1,1v10.831a1,1,0,0,1-1,1Zm5.4-7.35a1.842,1.842,0,0,0,.849,1.556v1.894a.25.25,0,0,0,.25.25h1.5a.25.25,0,0,0,.249-.25v-1.893a1.842,1.842,0,0,0,.85-1.557,1.852,1.852,0,0,0-1.849-1.85A1.852,1.852,0,0,0-2702.137-470.1Zm5.516-5.484v-3.667a3.671,3.671,0,0,0-3.667-3.667,3.671,3.671,0,0,0-3.667,3.667v3.667h-1.833v-3.667a5.5,5.5,0,0,1,5.5-5.5,5.5,5.5,0,0,1,5.5,5.5v3.667Zm-7.333,0h0Z" transform="translate(2708.537 484.754)" fill="#fff"/></svg>