<svg width="30" height="30" viewBox="0 0 30 30" fill="none" xmlns="http://www.w3.org/2000/svg">
<g clip-path="url(#clip0_994_430)">
<mask id="mask0_994_430" style="mask-type:luminance" maskUnits="userSpaceOnUse" x="0" y="0" width="30" height="30">
<path d="M30 0H0V30H30V0Z" fill="white"/>
</mask>
<g mask="url(#mask0_994_430)">
<path d="M4.45293 28.125C4.19118 28.1258 3.93187 28.0747 3.69002 27.9747C3.44816 27.8746 3.22856 27.7275 3.04393 27.542C2.85822 27.3574 2.71098 27.1379 2.61073 26.896C2.51049 26.6542 2.45923 26.3948 2.45993 26.133V18.047H0.702927C0.517275 18.047 0.339222 17.9733 0.207947 17.842C0.0766713 17.7107 0.00292969 17.5327 0.00292969 17.347V11.25C0.00292969 11.0643 0.0766713 10.8863 0.207947 10.755C0.339222 10.6237 0.517275 10.55 0.702927 10.55H9.11493C7.97068 10.5392 6.87674 10.0781 6.07004 9.26655C5.26334 8.45498 4.80883 7.35829 4.80493 6.214C4.80546 5.06391 5.26236 3.96103 6.07532 3.14751C6.88827 2.33399 7.99084 1.87632 9.14093 1.875C9.82515 1.8751 10.4996 2.03706 11.1093 2.34763C11.719 2.6582 12.2466 3.10859 12.6489 3.662L14.9999 6.62L17.3509 3.663C17.7532 3.1094 18.2807 2.65882 18.8904 2.34807C19.5001 2.03732 20.1746 1.87522 20.8589 1.875C22.0085 1.87632 23.1106 2.33358 23.9235 3.14645C24.7363 3.95932 25.1936 5.06143 25.1949 6.211C25.191 7.35529 24.7365 8.45198 23.9298 9.26355C23.1231 10.0751 22.0292 10.5362 20.8849 10.547H29.2969C29.4826 10.547 29.6606 10.6208 29.7919 10.752C29.9232 10.8833 29.9969 11.0613 29.9969 11.247V17.341C29.9969 17.5267 29.9232 17.7047 29.7919 17.836C29.6606 17.9673 29.4826 18.041 29.2969 18.041H27.5389V26.127C27.5398 26.3887 27.4887 26.648 27.3886 26.8899C27.2885 27.1318 27.1415 27.3514 26.9559 27.536C26.7713 27.7215 26.5516 27.8685 26.3098 27.9686C26.0679 28.0686 25.8087 28.1198 25.5469 28.119L4.45293 28.125ZM11.8359 24.609C11.8362 24.8887 11.9474 25.1569 12.1452 25.3547C12.343 25.5525 12.6112 25.6637 12.8909 25.664H17.1099C17.3896 25.6637 17.6578 25.5525 17.8556 25.3547C18.0534 25.1569 18.1647 24.8887 18.1649 24.609V10.547H11.8369L11.8359 24.609ZM19.3169 5.144L16.9779 8.085H20.8729C21.3679 8.08157 21.8415 7.88251 22.1904 7.53125C22.5392 7.17999 22.7349 6.70504 22.7349 6.21C22.7349 5.71272 22.5374 5.23581 22.1857 4.88417C21.8341 4.53254 21.3572 4.335 20.8599 4.335C20.5566 4.33491 20.2578 4.40849 19.9892 4.54941C19.7206 4.69033 19.4902 4.89437 19.3179 5.144H19.3169ZM7.26593 6.21C7.26592 6.70486 7.46153 7.17967 7.81013 7.5309C8.15874 7.88213 8.63207 8.08131 9.12692 8.085H13.0219L10.6829 5.145C10.5106 4.89537 10.2803 4.69133 10.0117 4.55041C9.74306 4.40949 9.44425 4.33591 9.14093 4.336C8.64365 4.336 8.16672 4.53354 7.81509 4.88517C7.46346 5.23681 7.26593 5.71272 7.26593 6.21Z" fill="#29ABE0"/>
</g>
</g>
<defs>
<clipPath id="clip0_994_430">
<rect width="30" height="30" fill="white"/>
</clipPath>
</defs>
</svg>
