<svg xmlns="http://www.w3.org/2000/svg" xmlns:xlink="http://www.w3.org/1999/xlink" width="34" height="34" viewBox="0 0 34 34">
  <defs>
    <clipPath id="clip-path">
      <rect id="Rectangle_7" data-name="Rectangle 7" width="34" height="34" transform="translate(38 27.646)" fill="#fff"/>
    </clipPath>
  </defs>
  <g id="Mask_Group_5" data-name="Mask Group 5" transform="translate(-38 -27.646)" clip-path="url(#clip-path)">
    <g id="friends" transform="translate(38 27.646)">
      <g id="Group_44" data-name="Group 44">
        <g id="Group_43" data-name="Group 43">
          <path id="Path_21" data-name="Path 21" d="M10.315,3.795a6.408,6.408,0,0,0-6.206,6.58,6.408,6.408,0,0,0,6.206,6.58,6.408,6.408,0,0,0,6.206-6.58A6.408,6.408,0,0,0,10.315,3.795Z" fill="currentColor"/>
        </g>
      </g>
      <g id="Group_46" data-name="Group 46">
        <g id="Group_45" data-name="Group 45">
          <path id="Path_22" data-name="Path 22" d="M24.424,4.736h-.042A5.148,5.148,0,0,0,20.6,6.444a5.877,5.877,0,0,0,.065,7.924,5.15,5.15,0,0,0,3.762,1.645h.043a5.148,5.148,0,0,0,3.777-1.708,5.778,5.778,0,0,0,1.5-3.975A5.5,5.5,0,0,0,24.424,4.736Z" fill="currentColor"/>
        </g>
      </g>
      <g id="Group_48" data-name="Group 48">
        <g id="Group_47" data-name="Group 47">
          <path id="Path_23" data-name="Path 23" d="M24.686,17.09h-.515A9.28,9.28,0,0,0,17.927,19.5a11.981,11.981,0,0,1,4.678,8.889H34V26.4A9.325,9.325,0,0,0,24.686,17.09Z" fill="currentColor"/>
        </g>
      </g>
      <g id="Group_50" data-name="Group 50">
        <g id="Group_49" data-name="Group 49">
          <path id="Path_24" data-name="Path 24" d="M20.609,28.387a10,10,0,0,0-9.984-9.374H10a10,10,0,0,0-10,10v1.187H20.629V29.018Q20.629,28.7,20.609,28.387Z" fill="currentColor"/>
        </g>
      </g>
    </g>
  </g>
</svg>
