<svg width="34" height="34" viewBox="0 0 34 34" fill="none" xmlns="http://www.w3.org/2000/svg">
<g clip-path="url(#clip0_3227_115)">
<mask id="mask0_3227_115" style="mask-type:luminance" maskUnits="userSpaceOnUse" x="0" y="0" width="34" height="34">
<path d="M34 0H0V34H34V0Z" fill="white"/>
</mask>
<g mask="url(#mask0_3227_115)">
<path d="M10.315 3.795C8.62055 3.8478 7.01608 4.5699 5.85292 5.80317C4.68975 7.03643 4.06267 8.68037 4.10899 10.375C4.06267 12.0696 4.68975 13.7136 5.85292 14.9468C7.01608 16.1801 8.62055 16.9022 10.315 16.955C12.0094 16.9022 13.6139 16.1801 14.7771 14.9468C15.9402 13.7136 16.5673 12.0696 16.521 10.375C16.5673 8.68037 15.9402 7.03643 14.7771 5.80317C13.6139 4.5699 12.0094 3.8478 10.315 3.795Z" fill="currentColor"/>
<path d="M24.424 4.736H24.382C23.6676 4.74268 22.9624 4.89799 22.3113 5.19204C21.6602 5.48609 21.0774 5.91246 20.6 6.444C19.6205 7.5349 19.0841 8.95253 19.0961 10.4186C19.1082 11.8847 19.6677 13.2933 20.665 14.368C21.1457 14.8855 21.7278 15.2986 22.375 15.5816C23.0222 15.8646 23.7207 16.0115 24.427 16.013H24.47C25.1836 16.0056 25.8878 15.85 26.538 15.556C27.1882 15.2619 27.7702 14.8359 28.247 14.305C29.2337 13.2186 29.77 11.7974 29.747 10.33C29.7725 8.88528 29.2283 7.48857 28.2323 6.4418C27.2362 5.39503 25.8682 4.78228 24.424 4.736Z" fill="currentColor"/>
<path d="M24.686 17.09H24.171C21.8623 17.0887 19.6361 17.9479 17.927 19.5C19.3036 20.5548 20.4349 21.8959 21.2425 23.4306C22.0502 24.9653 22.5151 26.6571 22.605 28.389H34V26.4C33.996 23.9314 33.0133 21.565 31.2674 19.8198C29.5214 18.0746 27.1546 17.0929 24.686 17.09Z" fill="currentColor"/>
<path d="M20.609 28.387C20.4497 25.8476 19.3284 23.4644 17.4735 21.7227C15.6185 19.9811 13.1694 19.0121 10.625 19.013H10C7.34784 19.013 4.8043 20.0666 2.92893 21.9419C1.05357 23.8173 0 26.3608 0 29.013L0 30.2H20.629V29.018C20.629 28.806 20.6223 28.5957 20.609 28.387Z" fill="currentColor"/>
</g>
</g>
<defs>
<clipPath id="clip0_3227_115">
<rect width="34" height="34" fill="currentColor"/>
</clipPath>
</defs>
</svg>
