<svg width="22" height="22" viewBox="0 0 22 22" fill="none" xmlns="http://www.w3.org/2000/svg">
<g clip-path="url(#clip0_3236_158)">
<mask id="mask0_3236_158" style="mask-type:luminance" maskUnits="userSpaceOnUse" x="0" y="0" width="22" height="22">
<path d="M22 0H0V22H22V0Z" fill="currentColor"/>
</mask>
<g mask="url(#mask0_3236_158)">
<path d="M1.65398 14.409C1.91454 14.2797 2.21569 14.2589 2.49155 14.3511C2.76741 14.4433 2.99552 14.641 3.12599 14.901C4.00687 16.6802 5.4635 18.1093 7.25922 18.956C9.05494 19.8028 11.0842 20.0174 13.0173 19.5651C14.9505 19.1127 16.6738 18.02 17.9074 16.4644C19.141 14.9088 19.8124 12.9818 19.8124 10.9965C19.8124 9.01116 19.141 7.08416 17.9074 5.52859C16.6738 3.97301 14.9505 2.88029 13.0173 2.42795C11.0842 1.97561 9.05494 2.19025 7.25922 3.03698C5.4635 3.88371 4.00687 5.31278 3.12599 7.092C3.06244 7.22443 2.97317 7.34289 2.86339 7.44048C2.7536 7.53807 2.62549 7.61283 2.48653 7.66041C2.34756 7.70799 2.20051 7.72744 2.05395 7.71763C1.90739 7.70781 1.76425 7.66892 1.63287 7.60323C1.50149 7.53754 1.3845 7.44636 1.28871 7.335C1.19292 7.22364 1.12025 7.09434 1.07493 6.95461C1.02962 6.81489 1.01256 6.66755 1.02476 6.52117C1.03696 6.37478 1.07817 6.23229 1.14598 6.102C2.24963 3.88072 4.07159 2.09763 6.31616 1.04215C8.56072 -0.0133289 11.0961 -0.279239 13.5108 0.28758C15.9255 0.8544 18.0778 2.22068 19.6183 4.16464C21.1588 6.10861 21.9971 8.51616 21.9971 10.9965C21.9971 13.4768 21.1588 15.8844 19.6183 17.8284C18.0778 19.7723 15.9255 21.1386 13.5108 21.7054C11.0961 22.2722 8.56072 22.0063 6.31616 20.9508C4.07159 19.8954 2.24963 18.1123 1.14598 15.891C1.08043 15.7605 1.04152 15.6183 1.03152 15.4726C1.02151 15.3269 1.04062 15.1807 1.08772 15.0424C1.13482 14.9042 1.20897 14.7767 1.30585 14.6675C1.40273 14.5582 1.52039 14.4693 1.65198 14.406L1.65398 14.409Z" fill="currentColor"/>
<path d="M0.0307767 10.9669C0.0300436 10.8055 0.0612943 10.6455 0.122724 10.4962C0.184154 10.347 0.274546 10.2114 0.38868 10.0972C0.502813 9.98309 0.638427 9.8927 0.78769 9.83127C0.936952 9.76984 1.09691 9.73859 1.25831 9.73932L10.0957 9.79165L10.0872 7.55295C10.0899 7.31182 10.1634 7.07679 10.2986 6.87709C10.4338 6.6774 10.6247 6.52184 10.8475 6.42976C11.0704 6.33769 11.3154 6.31316 11.5521 6.35923C11.7888 6.4053 12.0068 6.51993 12.1789 6.68886L15.6359 10.1459C15.803 10.3188 15.9162 10.5364 15.9619 10.7724C16.0076 11.0084 15.9838 11.2526 15.8933 11.4753C15.8344 11.6238 15.747 11.7592 15.6359 11.8741L12.1789 15.3311C12.0068 15.5001 11.7888 15.6147 11.5521 15.6608C11.3154 15.7068 11.0704 15.6823 10.8475 15.5902C10.6247 15.4982 10.4338 15.3426 10.2986 15.1429C10.1634 14.9432 10.0899 14.7082 10.0872 14.467L10.0957 12.2283L1.21518 12.2375C1.05372 12.2327 0.894812 12.1959 0.747661 12.1292C0.60051 12.0626 0.468032 11.9675 0.357889 11.8493C0.247747 11.7311 0.162125 11.5923 0.105977 11.4408C0.0498296 11.2894 0.0242703 11.1283 0.0307767 10.9669Z" fill="currentColor"/>
</g>
</g>
<defs>
<clipPath id="clip0_3236_158">
<rect width="22" height="22" fill="currentColor"/>
</clipPath>
</defs>
</svg>
