<svg width="40" height="40" viewBox="0 0 40 40" fill="none" xmlns="http://www.w3.org/2000/svg">
<g clip-path="url(#clip0_3226_36)">
<mask id="mask0_3226_36" style="mask-type:luminance" maskUnits="userSpaceOnUse" x="0" y="0" width="40" height="40">
<path d="M40 0H0V40H40V0Z" fill="currentColor"/>
</mask>
<g mask="url(#mask0_3226_36)">
<path d="M19.519 7.14301V25.586C19.519 28.658 19.466 30.774 19.466 32.857H9.357C3.316 32.857 1.46101e-06 30.028 1.46101e-06 25.584C-0.0429958 24.2407 0.360257 22.9209 1.14673 21.8311C1.9332 20.7412 3.05858 19.9426 4.347 19.56C3.27483 19.1033 2.36636 18.3322 1.74149 17.3484C1.11663 16.3647 0.80474 15.2146 0.847002 14.05C0.847002 9.93601 4.126 7.144 9.872 7.144L19.519 7.14301ZM30.119 7.14301C35.866 7.14301 39.144 9.93501 39.144 14.049C39.1863 15.2136 38.8744 16.3637 38.2495 17.3474C37.6246 18.3312 36.7162 19.1023 35.644 19.559C36.9324 19.9416 38.0578 20.7402 38.8443 21.8301C39.6308 22.9199 40.034 24.2397 39.991 25.583C39.991 30.028 36.676 32.856 30.634 32.856H20.529C20.529 30.772 20.48 28.656 20.476 25.585V7.14301H30.127H30.119ZM14.319 21.837H9.75101C6.73001 21.837 5.22 22.976 5.22 25.217C5.22 27.568 6.62001 28.744 9.38301 28.744H11.777C13.693 28.744 14.319 27.826 14.319 25.034V21.834V21.837ZM30.227 21.837H25.659V25.037C25.659 27.829 26.285 28.747 28.201 28.747H30.595C33.358 28.747 34.758 27.571 34.758 25.22C34.769 22.975 33.259 21.836 30.238 21.836L30.227 21.837ZM14.355 11.257H10.155C7.46601 11.257 6.066 12.469 6.066 14.526C6.066 16.583 7.46601 17.795 10.155 17.795H14.355V11.257ZM29.821 11.257H25.621V17.795H29.821C32.51 17.795 33.91 16.583 33.91 14.526C33.91 12.469 32.51 11.257 29.821 11.257Z" fill="currentColor"/>
</g>
</g>
<defs>
<clipPath id="clip0_3226_36">
<rect width="40" height="40" fill="currentColor"/>
</clipPath>
</defs>
</svg>
