<svg xmlns="http://www.w3.org/2000/svg" width="22.015" height="21.999" viewBox="0 0 22.015 21.999"><path d="M-6004.8-469a11.1,11.1,0,0,1-11.2-10.981,11.1,11.1,0,0,1,11.2-10.982,11.237,11.237,0,0,1,5.946,1.7l2.127-1.415a1.24,1.24,0,0,1,1.066-.3,1.241,1.241,0,0,1,.989,1.451l-.917,4.881a1.663,1.663,0,0,1-.085.22c-.062.048-.012.1-.062.171s-.157.122-.157.183l-.11.134a1,1,0,0,1-.245.134.382.382,0,0,1-.122.072,1.216,1.216,0,0,1-.415.074h-.207l-5.174-.855a1.223,1.223,0,0,1-.8-.491,1.224,1.224,0,0,1-.216-.912,1.219,1.219,0,0,1,.478-.788h0l1.564-1.04a8.861,8.861,0,0,0-3.661-.782,8.664,8.664,0,0,0-8.76,8.543,8.662,8.662,0,0,0,8.76,8.541,8.712,8.712,0,0,0,8.384-6,1.22,1.22,0,0,1,1.525-.794,1.221,1.221,0,0,1,.749.583,1.218,1.218,0,0,1,.105.944,11.129,11.129,0,0,1-10.59,7.712Z" transform="translate(6016 491)" fill="currentColor"/></svg>