<svg xmlns="http://www.w3.org/2000/svg" width="30" height="27" viewBox="0 0 30 27"><g transform="translate(-190 -177)"><g transform="translate(190 177)"><path d="M-3181-261.15h0a13.6,13.6,0,0,1-1.9-1,13.721,13.721,0,0,1-3.039-2.7l-.634-.823c-.117-.169-.224-.342-.336-.525l-.01-.015c-.065-.106-.133-.216-.2-.325a7.665,7.665,0,0,1-.413-.762l-.072-.146-.232-.464c-.031-.082-.061-.159-.092-.235l-.009-.022c-.03-.074-.059-.149-.089-.228l-.19-.485a3.258,3.258,0,0,1-.169-.486l-.275-.992c-.054-.219-.092-.441-.128-.657l0-.01,0-.02c-.018-.107-.036-.218-.057-.327-.007-.059-.017-.12-.026-.172a2.075,2.075,0,0,1-.037-.334l-.042-.507c-.02-.324-.042-.69-.042-1.034s.022-.71.042-1.033a13.367,13.367,0,0,1,.338-2.049l2.807-1.351,1.415,2.427a9.756,9.756,0,0,0-.274,1.372,3.916,3.916,0,0,0-.047.46v.015c0,.073-.009.148-.016.221a4.345,4.345,0,0,0,0,.487c0,.068,0,.151,0,.231v.359a1.729,1.729,0,0,0,.033.3l.01.057c.021.115.037.231.052.344l0,.019c.015.109.031.222.051.333l.168.7a1.6,1.6,0,0,0,.1.322l.006.016.106.337c.022.056.045.119.067.179s.04.11.059.158l.149.317c.036.073.072.152.1.216a2.962,2.962,0,0,0,.215.417c.076.115.144.235.215.362l0,0c.047.083.093.165.141.246l.422.59a9.8,9.8,0,0,0,1.837,1.816v4.4Zm16-4.794V-266h-4.326a9.312,9.312,0,0,0,1.56-1.681,10.019,10.019,0,0,0,1.329-2.638,9.88,9.88,0,0,0,.464-2.955l-.021-.76c-.01-.1-.023-.211-.038-.323v-.015c-.017-.131-.034-.266-.045-.4a4.108,4.108,0,0,0-.129-.663l-.019-.076a4.3,4.3,0,0,0-.19-.739,8.778,8.778,0,0,0-1.351-2.7,9.4,9.4,0,0,0-2.132-2.173,10.069,10.069,0,0,0-2.7-1.436,10.333,10.333,0,0,0-1.942-.444,1.247,1.247,0,0,1-1.1-1.245,1.257,1.257,0,0,1,1.26-1.25c.037,0,.075,0,.112,0a13.971,13.971,0,0,1,2.449.464,13.55,13.55,0,0,1,3.482,1.688,12.121,12.121,0,0,1,2.808,2.681,11.826,11.826,0,0,1,1.878,3.44,8.106,8.106,0,0,1,.291.932l0,.018a5.148,5.148,0,0,1,.232.949c.022.163.051.34.073.482l.005.034c.024.151.049.307.069.455l.064.992a12.593,12.593,0,0,1-.486,3.9,13.462,13.462,0,0,1-1.6,3.508Z" transform="translate(3189 285.5)" fill="#4677ff"/><path d="M55.064,39.026a2.749,2.749,0,0,0,1.583-5.087l-.422-4.01A1.043,1.043,0,0,0,55.212,29h0a1.011,1.011,0,0,0-1.013.908l-.422,4.01a2.759,2.759,0,0,0,1.288,5.108Zm-.38-3.968a1.269,1.269,0,0,1,1.013,0,1.3,1.3,0,0,1,.8,1.224,1.33,1.33,0,0,1-2.659,0A1.413,1.413,0,0,1,54.684,35.058Z" transform="translate(-41.851 -23.887)" fill="#e4eaf8"/></g><path d="M-2979.1-99.5h-16.8a2.976,2.976,0,0,1-3.1-2.831v-3.3a2.994,2.994,0,0,1,3.1-2.872h16.8a2.976,2.976,0,0,1,3.1,2.832v3.3A2.993,2.993,0,0,1-2979.1-99.5Zm-19.008-2.87h0a2.132,2.132,0,0,0,2.206,2.042h0A2.131,2.131,0,0,1-2998.106-102.37Zm16.951-.583v1.184a.459.459,0,0,0,.459.459.459.459,0,0,0,.459-.459v-1.184l1.026.592a.458.458,0,0,0,.229.062.46.46,0,0,0,.4-.23.454.454,0,0,0,.046-.348.454.454,0,0,0-.214-.278l-1.025-.592,1.025-.592a.457.457,0,0,0,.214-.279.454.454,0,0,0-.046-.348.46.46,0,0,0-.4-.23.458.458,0,0,0-.229.062l-1.026.592v-1.184a.459.459,0,0,0-.459-.459.459.459,0,0,0-.459.459v1.184l-1.026-.592a.457.457,0,0,0-.229-.062.46.46,0,0,0-.4.23.46.46,0,0,0,.167.627l1.026.592-1.026.592a.454.454,0,0,0-.213.277.457.457,0,0,0,.046.349.46.46,0,0,0,.4.23.457.457,0,0,0,.229-.062l1.025-.591Zm-4.819,0v1.184a.459.459,0,0,0,.458.459.459.459,0,0,0,.459-.459v-1.184l1.026.592a.457.457,0,0,0,.229.062.464.464,0,0,0,.4-.23.459.459,0,0,0-.169-.626l-1.026-.592,1.026-.592a.461.461,0,0,0,.169-.627.464.464,0,0,0-.4-.23.457.457,0,0,0-.229.062l-1.026.592v-1.184a.459.459,0,0,0-.459-.459.459.459,0,0,0-.458.459v1.184l-1.027-.592a.455.455,0,0,0-.228-.062.461.461,0,0,0-.4.23.461.461,0,0,0,.167.627l1.027.592-1.027.592a.46.46,0,0,0-.167.626.461.461,0,0,0,.4.23.456.456,0,0,0,.228-.062l1.025-.591Zm-4.821,0v1.184a.459.459,0,0,0,.459.459.459.459,0,0,0,.459-.459v-1.184l1.026.592a.458.458,0,0,0,.229.062.46.46,0,0,0,.4-.23.454.454,0,0,0,.046-.348.454.454,0,0,0-.214-.278l-1.025-.592,1.025-.592a.457.457,0,0,0,.214-.279.454.454,0,0,0-.046-.348.46.46,0,0,0-.4-.23.458.458,0,0,0-.229.062l-1.026.592v-1.184a.459.459,0,0,0-.459-.459.459.459,0,0,0-.459.459v1.184l-1.026-.592a.457.457,0,0,0-.229-.062.46.46,0,0,0-.4.23.46.46,0,0,0,.167.627l1.026.592-1.026.592a.454.454,0,0,0-.213.277.457.457,0,0,0,.046.349.46.46,0,0,0,.4.23.457.457,0,0,0,.229-.062l1.025-.591Zm-4.819,0v1.184a.459.459,0,0,0,.459.459.459.459,0,0,0,.458-.459v-1.184l1.026.592a.457.457,0,0,0,.229.062.464.464,0,0,0,.4-.23.459.459,0,0,0-.169-.626l-1.026-.592,1.026-.592a.461.461,0,0,0,.169-.627.464.464,0,0,0-.4-.23.457.457,0,0,0-.229.062l-1.026.592v-1.184a.459.459,0,0,0-.458-.459.459.459,0,0,0-.459.459v1.184l-1.027-.592a.455.455,0,0,0-.228-.062.461.461,0,0,0-.4.23.461.461,0,0,0,.167.627l1.027.592-1.027.592a.46.46,0,0,0-.167.626.461.461,0,0,0,.4.23.456.456,0,0,0,.228-.062l1.025-.591Z" transform="translate(3196 303.5)" fill="#e4eaf8"/></g></svg>