<svg xmlns="http://www.w3.org/2000/svg" width="22" height="22" viewBox="0 0 22 22"><path d="M-806.086-946.612a1.175,1.175,0,0,1-.345-.834v-1.627h-.18c-2.17,0-3.211-.338-4.048-2.43l-.344-.863a1.169,1.169,0,0,1,.01-.9,1.172,1.172,0,0,1,.647-.632,1.179,1.179,0,0,1,.437-.084,1.172,1.172,0,0,1,1.1.744l.345.863a1.782,1.782,0,0,0,.5.838,1.855,1.855,0,0,0,.878.111l.474,0h.18v-1.626a1.172,1.172,0,0,1,.345-.834,1.172,1.172,0,0,1,.834-.346,1.176,1.176,0,0,1,.835.346l2.806,2.806a1.183,1.183,0,0,1,0,1.668l-2.806,2.807a1.175,1.175,0,0,1-.835.344A1.171,1.171,0,0,1-806.086-946.612Zm.133-.834a.7.7,0,0,0,.2.5.7.7,0,0,0,.5.206.7.7,0,0,0,.5-.2l2.806-2.807a.7.7,0,0,0,.205-.5.7.7,0,0,1-.205.5l-2.806,2.807a.7.7,0,0,1-.5.2.7.7,0,0,1-.5-.206A.7.7,0,0,1-805.953-947.446Zm-4.607-5.1.344.863c.75,1.875,1.584,2.13,3.6,2.13h0c-2.02,0-2.854-.255-3.6-2.13l-.344-.863a.7.7,0,0,1-.051-.257A.7.7,0,0,0-810.559-952.544Zm3.475,1.593h0Zm.027,0h0Zm-1.755-1.011-.016-.036Zm-.052-.121-.033-.079Zm-.407-1.013-.006-.014Zm-.011-.022a.7.7,0,0,0-.887-.337.7.7,0,0,1,.26-.05A.7.7,0,0,1-809.281-953.119Zm-12.806,4.046a1.181,1.181,0,0,1-1.18-1.179,1.181,1.181,0,0,1,1.18-1.179h4.165a3.015,3.015,0,0,0,2.813-1.9l3.494-8.738a5.363,5.363,0,0,1,5-3.388h.18v-1.625a1.172,1.172,0,0,1,.345-.834,1.172,1.172,0,0,1,.834-.346,1.176,1.176,0,0,1,.835.346l2.806,2.806a1.183,1.183,0,0,1,0,1.668l-2.806,2.807a1.181,1.181,0,0,1-.835.344,1.178,1.178,0,0,1-.833-.344,1.176,1.176,0,0,1-.346-.836V-963.1h-.18a3.019,3.019,0,0,0-2.813,1.905l-3.494,8.737a5.364,5.364,0,0,1-5,3.387Zm-.7-1.179a.7.7,0,0,0,.7.7h4.165a4.889,4.889,0,0,0,4.559-3.086l3.494-8.738a3.493,3.493,0,0,1,3.257-2.2h0a3.493,3.493,0,0,0-3.257,2.2l-3.494,8.738a4.889,4.889,0,0,1-4.559,3.086h-4.165a.7.7,0,0,1-.7-.7Zm16.836-11.224a.7.7,0,0,0,.2.5l.015.015-.015-.015A.7.7,0,0,1-805.953-961.475Zm4-2.31-2.806,2.807,2.806-2.807a.7.7,0,0,0,.205-.5A.7.7,0,0,1-801.949-963.785Zm-13.771,2.5-.345-.864a1.78,1.78,0,0,0-.5-.838,1.848,1.848,0,0,0-.879-.111h-4.638a1.181,1.181,0,0,1-1.18-1.179,1.182,1.182,0,0,1,1.18-1.18h4.165c2.168,0,3.209.338,4.047,2.43l.345.866a1.182,1.182,0,0,1-.658,1.533,1.186,1.186,0,0,1-.437.083A1.174,1.174,0,0,1-815.72-961.289Zm.1-1.042.345.864a.7.7,0,0,0,.652.441.7.7,0,0,0,.26-.05.7.7,0,0,0,.441-.655.7.7,0,0,1-.441.655.7.7,0,0,1-.26.05.7.7,0,0,1-.652-.441l-.345-.864Zm-.016-.038-.032-.079Zm-.044-.107-.029-.068Zm-7.107-1.8a.7.7,0,0,0,.7.7h0a.7.7,0,0,1-.7-.7Zm5.187.7h0Zm.172,0h0Z" transform="translate(823.267 968.267)" fill="currentColor"/></svg>