<svg width="27" height="34" viewBox="0 0 27 34" fill="none" xmlns="http://www.w3.org/2000/svg">
<g clip-path="url(#clip0_3227_146)">
<path d="M13.28 0C11.0987 0.0682291 9.03337 0.997939 7.53605 2.58559C6.03874 4.17324 5.23148 6.28948 5.29101 8.471C5.23175 10.6524 6.03913 12.7683 7.53641 14.3558C9.0337 15.9432 11.0989 16.8728 13.28 16.941C15.4613 16.8728 17.5266 15.9431 19.024 14.3554C20.5213 12.7678 21.3285 10.6515 21.269 8.47C21.3283 6.28865 20.5209 4.17267 19.0236 2.58523C17.5263 0.997801 15.4611 0.0682308 13.28 0Z" fill="currentColor"/>
<path d="M26.531 31.659C26.3252 28.3901 24.8815 25.3224 22.4937 23.0804C20.1058 20.8384 16.9534 19.5906 13.678 19.591H12.878C11.1867 19.5911 9.512 19.9244 7.9495 20.5717C6.38699 21.2191 4.9673 22.1679 3.77146 23.3639C2.57563 24.5599 1.62708 25.9797 0.979973 27.5423C0.332864 29.1049 -0.000131288 30.7797 3.88295e-08 32.471V34H26.557V32.471C26.557 32.1983 26.5483 31.9277 26.531 31.659Z" fill="currentColor"/>
</g>
<defs>
<clipPath id="clip0_3227_146">
<rect width="26.557" height="34" fill="white"/>
</clipPath>
</defs>
</svg>
