<svg xmlns="http://www.w3.org/2000/svg" xmlns:xlink="http://www.w3.org/1999/xlink" width="26.505" height="30" viewBox="0 0 26.505 30">
  <defs>
    <linearGradient id="linear-gradient" x1="0.5" x2="0.5" y2="0.547" gradientUnits="objectBoundingBox">
      <stop offset="0" stop-color="#a5c371"/>
      <stop offset="1" stop-color="#008e86"/>
    </linearGradient>
  </defs>
  <path id="Altening" d="M35.309,33.141h0c-.093-.034-.181-.073-.251-.107-.112-.054-.226-.115-.324-.17a1.606,1.606,0,0,1-.146-.075l-10.732-6.2a1.626,1.626,0,0,1-.154-.1c-.1-.063-.224-.14-.336-.218-.068-.047-.149-.107-.226-.172l0,0a1.528,1.528,0,0,1-.338-.394h0a1.515,1.515,0,0,1-.174-.509v0c-.017-.1-.026-.205-.031-.289-.011-.167-.012-.341-.011-.471V12.045c0-.13,0-.305.01-.473.005-.084.014-.187.031-.29v-.005a1.516,1.516,0,0,1,.175-.511h0a1.583,1.583,0,0,1,.377-.425l.006,0c.086-.07.179-.135.258-.188.16-.108.332-.212.445-.276l.052-.028,5.286-3.051.018-.01,5.307-3.064c.11-.067.269-.158.426-.238.08-.041.179-.088.281-.128l.006,0a1.542,1.542,0,0,1,.555-.114,1.525,1.525,0,0,1,.507.095l0,0c.095.034.186.074.26.109.135.063.273.135.384.2q.054.026.106.056L47.8,9.887h0l-.513,1.079-.067-.04-.015-.009L36.48,4.723a.412.412,0,0,0-.048-.024,2.417,2.417,0,0,0-.621-.275,2.5,2.5,0,0,0-.662.317L29.822,7.816l-.008,0-5.344,3.085,0,0h0a2.94,2.94,0,0,0-.644.456,1.582,1.582,0,0,0-.058.5c0,.061,0,.12,0,.173v12.4a2.246,2.246,0,0,0,.058.673,2.452,2.452,0,0,0,.555.4.414.414,0,0,0,.069.05l10.731,6.2a.407.407,0,0,0,.075.034,1.99,1.99,0,0,0,.556.254,2.155,2.155,0,0,0,.568-.246.4.4,0,0,0,.1-.041l1.267-.731-.888,1.865c-.1.051-.207.107-.314.156-.07.032-.156.069-.247.1h0a1.392,1.392,0,0,1-.986-.007Zm2.437-2.115,9.464-5.464a.411.411,0,0,0,.076-.056,2.386,2.386,0,0,0,.545-.4,2.027,2.027,0,0,0,.058-.62.391.391,0,0,0,0-.052V12.045a.4.4,0,0,0,0-.052,2.07,2.07,0,0,0-.058-.631,2.361,2.361,0,0,0-.539-.394l.513-1.079.035.021c.115.067.271.164.415.263.074.05.161.113.243.18l.005,0a1.556,1.556,0,0,1,.358.411,1.5,1.5,0,0,1,.172.491v0c.017.1.027.2.032.277.01.139.013.285.013.406,0,.034,0,.067,0,.1V24.436c0,.034,0,.068,0,.1,0,.12,0,.264-.014.4-.006.078-.015.175-.032.274v0a1.491,1.491,0,0,1-.17.486,1.523,1.523,0,0,1-.334.391l0,0c-.076.065-.156.124-.223.171-.108.075-.224.15-.324.212a1.608,1.608,0,0,1-.17.113h0l-10.731,6.2h0a1.584,1.584,0,0,1-.216.1ZM36.291,25.54,41.9,22.3l.516-1.085V14.99l4.1-2.382.781-1.642-.781,1.642.97-.564V24.436L42.414,21.49v-.272L41.9,22.3l.023-.013L47,25.205,38.059,30.37l-.312.656.312-.656L36.274,31.4Zm-11.636-.334L29.74,22.29l5.629,3.25.017,5.861Zm-.476-13.161,5.067,2.946v6.5l-5.067,2.946Zm14.927.521L36.291,10.94l-.017-5.861,5.365,3.1L47,11.275,41.92,14.19ZM24.655,11.275l5.365-3.1h0l5.365-3.1-.017,5.861-2.815,1.625L29.739,14.19Z" transform="translate(-22.577 -3.234)" fill="url(#linear-gradient)"/>
</svg>
