<svg width="40" height="40" viewBox="0 0 40 40" fill="none" xmlns="http://www.w3.org/2000/svg">
<g clip-path="url(#clip0_3227_44)">
<mask id="mask0_3227_44" style="mask-type:luminance" maskUnits="userSpaceOnUse" x="0" y="0" width="40" height="40">
<path d="M40 0H0V40H40V0Z" fill="#fff"/>
</mask>
<g mask="url(#mask0_3227_44)">
<path d="M12.579 36.251C27.673 36.251 35.929 23.745 35.929 12.901C35.929 12.546 35.929 12.192 35.905 11.84C37.5109 10.6798 38.8975 9.24306 40 7.59703C38.5021 8.26068 36.9131 8.69585 35.286 8.88803C36.9992 7.86246 38.2814 6.2494 38.894 4.34903C37.2831 5.30494 35.5208 5.97863 33.683 6.34103C32.4457 5.02715 30.81 4.15737 29.0289 3.8661C27.2477 3.57484 25.4202 3.87831 23.8288 4.72961C22.2374 5.58091 20.9707 6.93265 20.2244 8.57593C19.4781 10.2192 19.2938 12.0625 19.7 13.821C16.4368 13.6578 13.2445 12.8101 10.3302 11.333C7.41592 9.85584 4.84488 7.78232 2.784 5.24703C1.73617 7.05324 1.41568 9.19075 1.8877 11.2248C2.35972 13.2589 3.58881 15.0369 5.325 16.197C4.01935 16.1599 2.74177 15.8094 1.6 15.175V15.275C1.60055 17.1698 2.25645 19.006 3.45648 20.4724C4.6565 21.9387 6.32677 22.9448 8.184 23.32C6.97568 23.6496 5.70788 23.6979 4.478 23.461C5.00227 25.0918 6.02315 26.518 7.39785 27.54C8.77255 28.562 10.4323 29.1288 12.145 29.161C9.23898 31.4449 5.6491 32.6848 1.953 32.681C1.30029 32.6805 0.648175 32.6418 0 32.565C3.75297 34.9734 8.11973 36.2509 12.579 36.245" fill="currentColor"/>
</g>
</g>
<defs>
<clipPath id="clip0_3227_44">
<rect width="40" height="40" fill="currentColor"/>
</clipPath>
</defs>
</svg>
