<svg xmlns="http://www.w3.org/2000/svg" xmlns:xlink="http://www.w3.org/1999/xlink" width="22" height="22" viewBox="0 0 22 22">
  <defs>
    <clipPath id="clip-path">
      <rect id="Rectangle_28" data-name="Rectangle 28" width="22" height="22" transform="translate(491 478)" fill="#fff"/>
    </clipPath>
    </clipPath>
  </defs>
  <g id="Mask_Group_8" data-name="Mask Group 8" transform="translate(-491 -478)" clip-path="url(#clip-path)">
    <g id="remove-button" transform="translate(491 478)">
      <g id="c142_x">
        <path id="Subtraction_2" data-name="Subtraction 2" d="M-1157-947a10.928,10.928,0,0,1-7.778-3.222A10.928,10.928,0,0,1-1168-958a10.929,10.929,0,0,1,3.222-7.779A10.927,10.927,0,0,1-1157-969a10.929,10.929,0,0,1,7.779,3.222A10.929,10.929,0,0,1-1146-958a10.927,10.927,0,0,1-3.222,7.778A10.929,10.929,0,0,1-1157-947Zm-3-15.255a1.243,1.243,0,0,0-.884.366,1.254,1.254,0,0,0,0,1.768l2.121,2.121-2.12,2.121a1.241,1.241,0,0,0-.366.884,1.241,1.241,0,0,0,.366.884,1.242,1.242,0,0,0,.884.366,1.244,1.244,0,0,0,.884-.366l2.12-2.121,2.122,2.121a1.24,1.24,0,0,0,.883.365,1.246,1.246,0,0,0,.885-.365,1.252,1.252,0,0,0,0-1.768l-2.121-2.121,2.121-2.121a1.254,1.254,0,0,0,0-1.768,1.242,1.242,0,0,0-.884-.366,1.242,1.242,0,0,0-.884.366l-2.121,2.121-2.121-2.121A1.244,1.244,0,0,0-1160.005-962.255Z" transform="translate(1168 969)" fill="currentColor"/>
      </g>
    </g>
  </g>
</svg>
