<svg width="40" height="40" viewBox="0 0 40 40" fill="none" xmlns="http://www.w3.org/2000/svg">
<g clip-path="url(#clip0_3227_58)">
<mask id="mask0_3227_58" style="mask-type:luminance" maskUnits="userSpaceOnUse" x="0" y="0" width="40" height="40">
<path d="M40 0H0V40H40V0Z" fill="currentColor"/>
</mask>
<g mask="url(#mask0_3227_58)">
<path d="M19.193 33.842C16.437 33.842 7.23899 33.787 4.59899 33.078C3.71387 32.8306 2.89795 32.382 2.21498 31.767C1.52499 31.1746 1.02108 30.3953 0.763986 29.523C0.34406 27.5752 0.109678 25.592 0.0639847 23.6C-0.0210153 21.633 -0.0030147 20.016 -0.0030147 20C-0.0030147 19.984 -0.0210153 18.367 0.0639847 16.4C0.109633 14.4076 0.344015 12.4241 0.763986 10.476C1.01863 9.60503 1.51893 8.82593 2.20499 8.23199C2.88954 7.61388 3.70948 7.16487 4.59899 6.921C7.38899 6.195 17.555 6.159 19.565 6.159H19.989C20.021 6.159 23.153 6.159 26.627 6.259C29.6344 6.26657 32.6368 6.50426 35.608 6.96999C36.4515 7.19289 37.2216 7.63355 37.8411 8.24783C38.4607 8.86211 38.9079 9.62843 39.138 10.47C39.5625 12.4185 39.8121 14.4011 39.884 16.394C39.993 18.36 40.001 19.978 40.001 19.994C40.001 20.01 40.001 21.63 39.901 23.603C39.8377 25.5926 39.5923 27.5722 39.168 29.517C38.9177 30.3839 38.4267 31.162 37.752 31.761C37.0785 32.3805 36.2666 32.83 35.384 33.072C32.595 33.798 22.432 33.834 20.421 33.834H19.988C19.956 33.84 19.666 33.842 19.193 33.842ZM16.154 13.853V26.148L26.135 20.002L16.154 13.853Z" fill="currentColor"/>
</g>
</g>
<defs>
<clipPath id="clip0_3227_58">
<rect width="40" height="40" fill="currentColor"/>
</clipPath>
</defs>
</svg>
