<svg width="7" height="17" viewBox="0 0 7 17" fill="none" xmlns="http://www.w3.org/2000/svg">
    <path d="M3.70183 11H3.14568C2.53969 11 2.07297 10.4653 2.15485 9.86489L3.38212 0.864887C3.44969 0.369402 3.87288 0 4.37295 0H5.74729C6.38901 0 6.86464 0.595858 6.72242 1.22162L4.67697 10.2216C4.57349 10.6769 4.16873 11 3.70183 11Z"
          fill="white"/>
    <path d="M3.69884 16.2283C3.225 16.6214 2.70809 16.818 2.14809 16.818C1.58809 16.818 1.145 16.6214 0.818837 16.2283C0.492671 15.8351 0.381272 15.3634 0.48464 14.813C0.588008 14.2626 0.876609 13.7909 1.35044 13.3978C1.82428 13.0046 2.34119 12.8081 2.90119 12.8081C3.46119 12.8081 3.90428 13.0046 4.23044 13.3978C4.55661 13.7909 4.66801 14.2626 4.56464 14.813C4.46127 15.3634 4.17267 15.8351 3.69884 16.2283Z"
          fill="white"/>
</svg>
