<svg width="14" height="15" viewBox="0 0 14 15" fill="none" xmlns="http://www.w3.org/2000/svg">
    <path d="M0.43926 15C0.32271 15 0.210946 14.9537 0.128535 14.8713C0.0461244 14.7889 -0.000177259 14.6771 -0.000177258 14.5605C-0.00234514 13.0375 0.598376 11.5755 1.67074 10.4939C2.75355 9.39451 4.18907 8.78912 5.71271 8.78912H7.4705C8.9942 8.78912 10.4295 9.3946 11.5125 10.4939C12.5848 11.5755 13.1856 13.0375 13.1834 14.5605C13.1834 14.6771 13.1371 14.7888 13.0547 14.8712C12.9723 14.9536 12.8606 15 12.7441 15H0.43926ZM2.63651 3.95505C2.63771 2.90644 3.05482 1.90113 3.79632 1.15967C4.53781 0.418207 5.54314 0.00115098 6.59175 0C7.64034 0.00118435 8.64565 0.418258 9.38712 1.15972C10.1286 1.90119 10.5457 2.90649 10.5469 3.95508C10.5457 5.00368 10.1286 6.00899 9.38712 6.75047C8.64565 7.49194 7.64035 7.90902 6.59175 7.9102C5.54315 7.90901 4.53784 7.49192 3.79638 6.75044C3.05491 6.00897 2.63784 5.00365 2.63666 3.95505H2.63651Z"
          fill="#4677FF"/>
</svg>
