<svg width="15" height="9" viewBox="0 0 15 9" fill="none" xmlns="http://www.w3.org/2000/svg">
    <path d="M7.50006 0C4.63415 0 2.03519 1.56797 0.117426 4.11476C0.0412179 4.2172 6.10352e-05 4.34148 6.10352e-05 4.46916C6.10352e-05 4.59684 0.0412179 4.72112 0.117426 4.82357C2.03519 7.37343 4.63415 8.94139 7.50006 8.94139C10.366 8.94139 12.9649 7.37343 14.8827 4.82663C14.9589 4.72419 15.0001 4.59991 15.0001 4.47223C15.0001 4.34455 14.9589 4.22027 14.8827 4.11783C12.9649 1.56797 10.366 0 7.50006 0ZM7.70565 7.6189C7.25772 7.64785 6.80876 7.58093 6.38874 7.42263C5.96872 7.26432 5.58728 7.01826 5.26989 6.70087C4.95249 6.38347 4.70644 6.00204 4.54813 5.58202C4.38982 5.16199 4.32291 4.71304 4.35186 4.26511C4.45004 2.69408 5.72344 1.42068 7.29448 1.32249C7.74241 1.29355 8.19136 1.36046 8.61138 1.51877C9.0314 1.67707 9.41284 1.92313 9.73023 2.24053C10.0476 2.55792 10.2937 2.93935 10.452 3.35938C10.6103 3.7794 10.6772 4.22835 10.6483 4.67628C10.547 6.24425 9.27361 7.51764 7.70565 7.6189ZM7.61052 6.16447C7.26595 6.18661 6.92282 6.10323 6.62683 5.92543C6.33084 5.74764 6.09606 5.48387 5.95376 5.16928C5.81147 4.85468 5.76841 4.50419 5.83033 4.16451C5.89225 3.82483 6.05621 3.51208 6.30036 3.26792C6.54451 3.02377 6.85726 2.85982 7.19694 2.7979C7.53663 2.73598 7.88711 2.77903 8.20171 2.92133C8.5163 3.06363 8.78007 3.29841 8.95786 3.5944C9.13566 3.89038 9.21904 4.23352 9.1969 4.57809C9.17101 4.99034 8.99556 5.37897 8.70349 5.67105C8.41141 5.96313 8.02277 6.13858 7.61052 6.16447Z"
          fill="#4677FF"/>
</svg>
