<svg width="15" height="15" viewBox="0 0 15 15" fill="none" xmlns="http://www.w3.org/2000/svg">
    <path d="M7.50014 14.9997C11.6357 14.9997 15 11.6351 15 7.49983C15 3.36458 11.6354 -0.000152588 7.50014 -0.000152588C3.36489 -0.000152588 0 3.36429 0 7.49983C0 11.6354 3.36457 14.9997 7.50014 14.9997ZM13.3994 6.17031C12.7738 5.80554 12.9302 6.22233 12.9302 6.22233L13.3473 6.5871C13.7644 6.9519 14.0772 7.10856 13.9208 7.61937C13.7644 8.13017 13.5037 7.68176 12.9825 8.0989C12.4613 8.51604 13.608 8.62033 13.6602 9.24583C13.7124 9.87134 13.0347 9.55865 12.7219 10.1841C12.4092 10.8097 12.6699 11.4875 12.5135 12.061C12.3571 12.6345 11.0538 13.4163 10.5804 13.6772C10.107 13.9381 10.4283 13.1037 10.5804 12.5302C10.7325 11.9567 10.2193 11.3311 10.2193 10.2885C10.2193 9.24583 9.90655 9.55865 8.96823 9.55865C8.02991 9.55865 7.61287 9.03715 7.50851 8.04681C7.40415 7.05648 8.29042 6.06592 8.7075 5.75317C9.12457 5.44042 9.69828 5.12763 10.2714 5.44038C10.8446 5.75314 11.0534 6.06592 11.6789 6.06592C12.3044 6.06592 12.3044 5.85752 12.6694 5.59676C13.0345 5.336 12.148 5.02328 11.6268 5.07768C11.1057 5.13209 11.2097 4.7627 10.5322 4.50207C9.85465 4.24143 9.59386 4.7628 9.38518 4.86684C9.1765 4.97088 8.44692 5.28394 8.37384 4.86684C8.30076 4.44973 8.75936 4.39771 9.22877 4.39771C9.69818 4.39771 9.28079 4.03294 9.12444 3.77218C8.9681 3.51141 8.65529 3.51144 8.42927 3.30792C8.20325 3.10439 8.70734 2.72956 9.22845 2.854C9.74957 2.97843 9.5412 3.3551 10.1147 3.30305C10.6882 3.251 10.1147 2.72956 10.1147 2.22449C10.1147 1.71941 10.7403 1.73891 11.1573 1.53751C11.5744 1.33612 12.0956 2.41675 12.4607 2.85397C12.5816 2.99879 12.754 2.93459 12.9305 2.78674C13.8763 3.8723 14.4732 5.21761 14.6433 6.64732C13.898 6.92619 13.9464 6.48945 13.3994 6.17031ZM7.50014 0.304231C7.78427 0.304751 8.06812 0.3221 8.3502 0.356187C8.28481 0.533716 8.19443 0.701013 8.0818 0.853025C8.0818 0.853025 7.87344 1.53055 7.40412 1.58288C6.9348 1.63522 6.36148 1.58288 6.10075 1.99999C5.84002 2.4171 5.89235 3.14699 5.47525 2.72985C5.05814 2.31271 5.42323 2.2808 5.00609 1.85364C4.58895 1.42648 4.48462 1.42651 4.27623 1.42651C4.21476 1.42651 4.14508 1.32034 4.08972 1.16517C5.13715 0.598809 6.3094 0.302883 7.50014 0.304231ZM3.1495 1.77311C3.13792 1.84826 3.20393 1.95749 3.52432 2.09105C4.14986 2.35178 4.29405 2.86809 4.00595 2.8477C3.71786 2.8273 2.54709 2.98702 3.62384 3.29977C4.70059 3.61252 4.61201 3.97914 4.13315 4.13551C3.65429 4.29189 3.7568 3.61497 3.65244 4.29281C3.54809 4.97065 3.44313 4.91863 3.10422 5.02299C2.76532 5.12735 2.13947 5.64881 2.13947 6.01361C2.13947 6.37842 1.93075 6.58255 2.34786 6.8953C2.76497 7.20805 2.21742 7.78007 2.02016 7.36325C1.78345 6.86307 1.61794 6.58694 1.35721 6.53479C1.09647 6.48264 0.760593 6.89956 1.35721 7.31667C1.95382 7.73378 1.98274 7.99451 1.98274 8.30726C1.98274 8.62001 2.41445 8.62001 2.74607 8.56815C3.07769 8.51629 3.75798 9.4024 3.99135 9.76717C4.27672 10.2027 4.71222 10.5181 5.21499 10.6534C5.78847 10.8098 5.9969 11.1749 5.68415 11.4353C5.3714 11.6957 5.31938 12.3215 4.95429 12.478C4.5892 12.6344 4.53718 13.1035 4.32876 13.3122C4.19381 13.45 4.07926 13.6065 3.98861 13.7767C3.67822 13.6021 3.38109 13.4049 3.09964 13.1868C3.09111 13.1405 3.0817 13.0937 3.07737 13.0514C3.02535 12.5299 2.97301 11.9044 2.66026 11.644C2.34751 11.3836 2.1388 11.0185 2.03473 10.6014C1.93066 10.1842 2.1911 9.55874 1.98271 9.1416C1.77431 8.72446 1.77431 9.11545 1.35717 8.52921C0.940035 7.94297 0.940131 7.94249 0.679399 7.47343C0.540076 7.22243 0.44606 6.82238 0.388251 6.40097C0.67495 4.55909 1.66476 2.90017 3.1495 1.77311Z"
          fill="#4677FF"/>
</svg>
