<svg width="1001" height="295" xmlns="http://www.w3.org/2000/svg" clip-rule="evenodd">

 <g>
  <title>background</title>
  <rect fill="none" id="canvas_background" height="297" width="1003" y="-1" x="-1"/>
 </g>
 <g>
  <title>Layer 1</title>
  <g transform="matrix(1,0,0,1,418.42,-69.146) " id="V2">
   <g id="svg_1" transform="matrix(0.316438,0,0,0.316438,21.2007,546.28) ">
    <path id="svg_2" fill="rgb(255,255,255)" d="m-504.668163,-1030.104447c0,-241.212 -195.838,-437.045 -437.049,-437.045l-437.045,0l0,437.045c0,241.216 195.833,437.046 437.045,437.046c241.211,0 437.049,-195.83 437.049,-437.046z"/>
   </g>
   <g id="svg_3" transform="matrix(0.629024,0,0,0.629024,141.113,332.831) ">
    <path id="svg_4" fill="rgb(255,255,255)" fill-rule="nonzero" d="m-220.711487,-226.115398l-131.039,0l0,-187.161l37.459,0l0,149.703l93.58,0l0,37.458z"/>
    <rect id="svg_5" fill="rgb(255,255,255)" fill-rule="nonzero" height="187.161" width="37.458" y="-413.276398" x="-201.264487"/>
    <path id="svg_6" fill="rgb(255,255,255)" fill-rule="nonzero" d="m29.227513,-188.657398l-42.548,0l-22.449,-33.673c-1.218,0.174 -2.371,0.261 -3.459,0.261c-1.087,0 -2.153,0 -3.197,0c-8.875,0 -17.424,-1.153 -25.647,-3.459c-8.222,-2.305 -15.923,-5.568 -23.101,-9.788c-7.179,-4.22 -13.726,-9.289 -19.643,-15.206c-5.917,-5.916 -10.985,-12.464 -15.205,-19.642c-4.22,-7.179 -7.483,-14.879 -9.789,-23.102c-2.306,-8.222 -3.459,-16.771 -3.459,-25.646c0,-8.875 1.153,-17.446 3.459,-25.712c2.306,-8.266 5.569,-15.967 9.789,-23.101c4.22,-7.135 9.288,-13.661 15.205,-19.578c5.917,-5.917 12.464,-10.963 19.643,-15.14c7.178,-4.176 14.879,-7.418 23.101,-9.723c8.223,-2.306 16.772,-3.459 25.647,-3.459c8.875,0 17.445,1.153 25.711,3.459c8.266,2.305 15.967,5.547 23.102,9.723c7.135,4.177 13.661,9.223 19.577,15.14c5.917,5.917 10.964,12.443 15.14,19.578c4.177,7.134 7.418,14.835 9.724,23.101c2.305,8.266 3.458,16.837 3.458,25.712c0,9.223 -1.283,18.185 -3.85,26.886c-2.567,8.701 -6.199,16.815 -10.898,24.341c-4.699,7.527 -10.376,14.336 -17.032,20.426c-6.657,6.091 -14.074,11.181 -22.253,15.271l28.974,43.331zm-12.138,-130.255c0,-8.179 -1.566,-15.902 -4.698,-23.167c-3.133,-7.265 -7.375,-13.574 -12.726,-18.925c-5.351,-5.351 -11.659,-9.593 -18.925,-12.725c-7.265,-3.133 -14.987,-4.699 -23.166,-4.699c-8.266,0 -16.01,1.566 -23.232,4.699c-7.222,3.132 -13.531,7.374 -18.925,12.725c-5.395,5.351 -9.658,11.66 -12.791,18.925c-3.132,7.265 -4.698,14.988 -4.698,23.167c0,8.179 1.566,15.858 4.698,23.036c3.133,7.178 7.396,13.465 12.791,18.86c5.394,5.394 11.703,9.658 18.925,12.79c7.222,3.133 14.966,4.699 23.232,4.699c8.179,0 15.901,-1.566 23.166,-4.699c7.266,-3.132 13.574,-7.396 18.925,-12.79c5.351,-5.395 9.593,-11.682 12.726,-18.86c3.132,-7.178 4.698,-14.857 4.698,-23.036z"/>
    <path id="svg_7" fill="rgb(255,255,255)" fill-rule="nonzero" d="m226.437513,-300.901398c0,10.354 -1.96,20.078 -5.87,29.17c-3.92,9.093 -9.27,17.011 -16.056,23.754c-6.787,6.744 -14.727,12.073 -23.819,15.989c-9.093,3.915 -18.816,5.873 -29.171,5.873c-10.354,0 -20.078,-1.958 -29.17,-5.873c-9.093,-3.916 -17.011,-9.245 -23.754,-15.989c-6.744,-6.743 -12.073,-14.661 -15.989,-23.754c-3.915,-9.092 -5.873,-18.816 -5.873,-29.17l0,-112.375l37.328,0l0,112.375c0,5.134 0.979,9.963 2.937,14.487c1.957,4.525 4.633,8.484 8.026,11.877c3.394,3.394 7.375,6.069 11.943,8.027c4.568,1.958 9.419,2.937 14.552,2.937c5.134,0 9.985,-0.979 14.553,-2.937c4.568,-1.958 8.549,-4.633 11.942,-8.027c3.393,-3.393 6.069,-7.352 8.027,-11.877c1.958,-4.524 2.936,-9.353 2.936,-14.487l0,-112.375l37.458,0l0,112.375z"/>
    <rect id="svg_8" fill="rgb(255,255,255)" fill-rule="nonzero" height="187.161" width="37.458" y="-413.276398" x="258.937513"/>
    <path id="svg_9" fill="rgb(255,255,255)" fill-rule="nonzero" d="m481.077513,-319.695398c0,8.614 -1.11,16.902 -3.33,24.863c-2.22,7.962 -5.37,15.401 -9.46,22.318c-4.09,6.918 -8.96,13.226 -14.62,18.925c-5.66,5.699 -11.96,10.594 -18.92,14.683c-6.97,4.09 -14.43,7.244 -22.39,9.463c-7.96,2.219 -16.25,3.328 -24.86,3.328l-56.39,0l0,-187.161l56.39,0c8.61,0 16.9,1.11 24.86,3.328c7.96,2.219 15.42,5.373 22.39,9.463c6.96,4.089 13.26,8.984 18.92,14.683c5.66,5.699 10.53,12.008 14.62,18.925c4.09,6.917 7.24,14.357 9.46,22.318c2.22,7.962 3.33,16.25 3.33,24.864zm-37.46,0c0,-7.744 -1.46,-15.01 -4.37,-21.797c-2.92,-6.786 -6.92,-12.725 -12.01,-17.815c-5.09,-5.09 -11.05,-9.115 -17.88,-12.073c-6.83,-2.958 -14.12,-4.437 -21.86,-4.437l-18.67,0l0,112.244l18.67,0c7.74,0 15.03,-1.458 21.86,-4.373c6.83,-2.914 12.79,-6.917 17.88,-12.007c5.09,-5.09 9.09,-11.05 12.01,-17.881c2.91,-6.83 4.37,-14.117 4.37,-21.861z"/>
    <path id="svg_10" fill="rgb(255,255,255)" fill-rule="nonzero" d="m-202.047487,-14.939398c0,7.744 -1.479,15.009 -4.438,21.796c-2.958,6.787 -6.982,12.725 -12.072,17.818c-5.091,5.09 -11.029,9.11 -17.816,12.07c-6.787,2.96 -14.052,4.44 -21.796,4.44l-93.581,0l0,-187.163l93.581,0c7.744,0 15.009,1.479 21.796,4.438c6.787,2.958 12.725,6.982 17.816,12.072c5.09,5.091 9.114,11.029 12.072,17.816c2.959,6.787 4.438,14.052 4.438,21.796c0,3.481 -0.479,7.048 -1.436,10.703c-0.957,3.654 -2.306,7.178 -4.046,10.571c-1.74,3.394 -3.828,6.483 -6.265,9.267c-2.436,2.784 -5.133,5.09 -8.092,6.918c3.046,1.653 5.787,3.893 8.223,6.721c2.436,2.828 4.525,5.939 6.265,9.332c1.74,3.393 3.067,6.939 3.98,10.637c0.914,3.698 1.371,7.287 1.371,10.768zm-112.244,18.664l56.122,0c2.61,0 5.046,-0.479 7.309,-1.436c2.262,-0.957 4.242,-2.284 5.938,-3.981c1.697,-1.697 3.024,-3.676 3.981,-5.938c0.957,-2.263 1.436,-4.699 1.436,-7.309c0,-2.611 -0.479,-5.047 -1.436,-7.309c-0.957,-2.262 -2.284,-4.242 -3.981,-5.939c-1.696,-1.696 -3.676,-3.023 -5.938,-3.98c-2.263,-0.958 -4.699,-1.436 -7.309,-1.436l-56.122,0l0,37.328zm0,-74.786l56.122,0c2.61,0 5.046,-0.479 7.309,-1.436c2.262,-0.957 4.242,-2.284 5.938,-3.981c1.697,-1.697 3.024,-3.698 3.981,-6.004c0.957,-2.305 1.436,-4.763 1.436,-7.374c0,-2.61 -0.479,-5.046 -1.436,-7.309c-0.957,-2.262 -2.284,-4.241 -3.981,-5.938c-1.696,-1.697 -3.676,-3.024 -5.938,-3.981c-2.263,-0.957 -4.699,-1.436 -7.309,-1.436l-56.122,0l0,37.459z"/>
    <path id="svg_11" fill="rgb(255,255,255)" fill-rule="nonzero" d="m9.650513,-51.614398c0,8.875 -1.153,17.424 -3.459,25.646c-2.306,8.223 -5.547,15.923 -9.723,23.102c-4.177,7.178 -9.224,13.726 -15.14,19.642c-5.917,5.917 -12.443,10.989 -19.578,15.209c-7.135,4.22 -14.835,7.48 -23.101,9.78c-8.266,2.31 -16.837,3.46 -25.712,3.46c-8.875,0 -17.424,-1.15 -25.647,-3.46c-8.222,-2.3 -15.923,-5.56 -23.101,-9.78c-7.178,-4.22 -13.726,-9.292 -19.643,-15.209c-5.916,-5.916 -10.985,-12.464 -15.205,-19.642c-4.22,-7.179 -7.483,-14.879 -9.789,-23.102c-2.305,-8.222 -3.458,-16.771 -3.458,-25.646c0,-8.876 1.153,-17.446 3.458,-25.712c2.306,-8.266 5.569,-15.967 9.789,-23.102c4.22,-7.134 9.289,-13.66 15.205,-19.577c5.917,-5.917 12.465,-10.963 19.643,-15.14c7.178,-4.177 14.879,-7.418 23.101,-9.723c8.223,-2.306 16.772,-3.459 25.647,-3.459c8.875,0 17.446,1.153 25.712,3.459c8.266,2.305 15.966,5.546 23.101,9.723c7.135,4.177 13.661,9.223 19.578,15.14c5.916,5.917 10.963,12.443 15.14,19.577c4.176,7.135 7.417,14.836 9.723,23.102c2.306,8.266 3.459,16.836 3.459,25.712zm-37.197,0c0,-8.179 -1.567,-15.902 -4.699,-23.167c-3.132,-7.265 -7.374,-13.574 -12.725,-18.925c-5.352,-5.351 -11.66,-9.593 -18.925,-12.725c-7.266,-3.133 -14.988,-4.699 -23.167,-4.699c-8.266,0 -16.01,1.566 -23.232,4.699c-7.222,3.132 -13.53,7.374 -18.925,12.725c-5.395,5.351 -9.658,11.66 -12.79,18.925c-3.133,7.265 -4.699,14.988 -4.699,23.167c0,8.179 1.566,15.857 4.699,23.036c3.132,7.178 7.395,13.465 12.79,18.859c5.395,5.395 11.703,9.659 18.925,12.791c7.222,3.132 14.966,4.699 23.232,4.699c8.179,0 15.901,-1.567 23.167,-4.699c7.265,-3.132 13.573,-7.396 18.925,-12.791c5.351,-5.394 9.593,-11.681 12.725,-18.859c3.132,-7.179 4.699,-14.857 4.699,-23.036z"/>
    <path id="svg_12" fill="rgb(255,255,255)" fill-rule="nonzero" d="m181.801513,-33.603398c0,10.354 -1.958,20.078 -5.873,29.17c-3.916,9.093 -9.267,17.011 -16.054,23.754c-6.787,6.744 -14.726,12.074 -23.819,15.994c-9.093,3.91 -18.816,5.87 -29.17,5.87c-10.355,0 -20.078,-1.96 -29.171,-5.87c-9.093,-3.92 -17.011,-9.25 -23.754,-15.994c-6.743,-6.743 -12.073,-14.661 -15.988,-23.754c-3.916,-9.092 -5.873,-18.816 -5.873,-29.17l0,-112.375l37.327,0l0,112.375c0,5.134 0.979,9.963 2.937,14.487c1.958,4.525 4.633,8.484 8.027,11.877c3.393,3.394 7.374,6.069 11.942,8.027c4.568,1.958 9.419,2.937 14.553,2.937c5.133,0 9.984,-0.979 14.552,-2.937c4.568,-1.958 8.549,-4.633 11.942,-8.027c3.394,-3.393 6.069,-7.352 8.027,-11.877c1.958,-4.524 2.937,-9.353 2.937,-14.487l0,-112.375l37.458,0l0,112.375z"/>
    <path id="svg_13" fill="rgb(255,255,255)" fill-rule="nonzero" d="m364.007513,41.184602l-40.07,0l-72.18,-123.21l0,123.21l-37.46,0l0,-187.163l40.07,0l72.18,123.338l0,-123.338l37.46,0l0,187.163z"/>
    <path id="svg_14" fill="rgb(255,255,255)" fill-rule="nonzero" d="m548.157513,21.996602c-8.7,7.488 -18.44,13.228 -29.23,17.228c-10.79,4 -21.97,6 -33.54,6c-8.88,0 -17.43,-1.15 -25.65,-3.46c-8.22,-2.3 -15.92,-5.56 -23.1,-9.78c-7.18,-4.22 -13.73,-9.292 -19.64,-15.209c-5.92,-5.916 -10.99,-12.464 -15.21,-19.642c-4.22,-7.179 -7.48,-14.879 -9.79,-23.102c-2.3,-8.222 -3.46,-16.771 -3.46,-25.646c0,-8.876 1.16,-17.446 3.46,-25.712c2.31,-8.266 5.57,-15.988 9.79,-23.167c4.22,-7.178 9.29,-13.726 15.21,-19.643c5.91,-5.916 12.46,-10.985 19.64,-15.205c7.18,-4.22 14.88,-7.483 23.1,-9.788c8.22,-2.306 16.77,-3.459 25.65,-3.459c11.57,0 22.75,1.979 33.54,5.938c10.79,3.959 20.53,9.724 29.23,17.294l-19.83,32.629c-5.49,-5.917 -11.97,-10.463 -19.45,-13.639c-7.48,-3.176 -15.31,-4.764 -23.49,-4.764c-8.27,0 -16.02,1.566 -23.24,4.699c-7.22,3.132 -13.53,7.374 -18.92,12.725c-5.4,5.351 -9.66,11.66 -12.79,18.925c-3.13,7.265 -4.7,14.988 -4.7,23.167c0,8.179 1.57,15.857 4.7,23.036c3.13,7.178 7.39,13.465 12.79,18.859c5.39,5.395 11.7,9.659 18.92,12.791c7.22,3.132 14.97,4.699 23.24,4.699c8.18,0 16.01,-1.588 23.49,-4.764c7.48,-3.176 13.96,-7.722 19.45,-13.639l19.83,32.629z"/>
    <path id="svg_15" fill="rgb(255,255,255)" fill-rule="nonzero" d="m698.127513,41.184602l-128.3,0l0,-187.163l128.3,0l0,37.458l-90.84,0l0,37.459l61.47,0l0,37.458l-61.47,0l0,37.328l90.84,0l0,37.46z"/>
   </g>
  </g>
 </g>
</svg>