<?xml version="1.0" encoding="UTF-8"?>
<svg xmlns="http://www.w3.org/2000/svg" xmlns:xlink="http://www.w3.org/1999/xlink" width="166pt" height="49pt" viewBox="0 0 166 49" version="1.1">
<g id="surface1">
<path style=" stroke:none;fill-rule:nonzero;fill:rgb(100%,100%,100%);fill-opacity:1;" d="M 46.421875 25.109375 C 46.421875 12.429688 36.144531 2.136719 23.488281 2.136719 L 0.550781 2.136719 L 0.550781 25.109375 C 0.550781 37.789062 10.828125 48.082031 23.488281 48.082031 C 36.144531 48.082031 46.421875 37.789062 46.421875 25.109375 Z M 46.421875 25.109375 "/>
<path style=" stroke:none;fill-rule:nonzero;fill:rgb(100%,100%,100%);fill-opacity:1;" d="M 69.765625 20.171875 L 56.097656 20.171875 L 56.097656 0.617188 L 60.003906 0.617188 L 60.003906 16.261719 L 69.765625 16.261719 Z M 69.765625 20.171875 "/>
<path style=" stroke:none;fill-rule:nonzero;fill:rgb(100%,100%,100%);fill-opacity:1;" d="M 71.796875 0.617188 L 75.703125 0.617188 L 75.703125 20.171875 L 71.796875 20.171875 Z M 71.796875 0.617188 "/>
<path style=" stroke:none;fill-rule:nonzero;fill:rgb(100%,100%,100%);fill-opacity:1;" d="M 95.839844 24.085938 L 91.398438 24.085938 L 89.058594 20.570312 C 88.929688 20.585938 88.8125 20.597656 88.699219 20.597656 C 88.585938 20.597656 88.472656 20.597656 88.363281 20.597656 C 87.4375 20.597656 86.546875 20.476562 85.6875 20.234375 C 84.832031 19.992188 84.027344 19.652344 83.277344 19.210938 C 82.53125 18.769531 81.847656 18.242188 81.230469 17.625 C 80.613281 17.003906 80.085938 16.320312 79.644531 15.570312 C 79.203125 14.820312 78.863281 14.015625 78.621094 13.15625 C 78.382812 12.296875 78.261719 11.40625 78.261719 10.476562 C 78.261719 9.550781 78.382812 8.65625 78.621094 7.792969 C 78.863281 6.929688 79.203125 6.125 79.644531 5.378906 C 80.085938 4.632812 80.613281 3.949219 81.230469 3.332031 C 81.847656 2.714844 82.53125 2.1875 83.277344 1.75 C 84.027344 1.3125 84.832031 0.976562 85.6875 0.734375 C 86.546875 0.492188 87.4375 0.375 88.363281 0.375 C 89.289062 0.375 90.183594 0.492188 91.046875 0.734375 C 91.910156 0.976562 92.710938 1.3125 93.457031 1.75 C 94.199219 2.1875 94.882812 2.714844 95.5 3.332031 C 96.117188 3.949219 96.640625 4.632812 97.078125 5.378906 C 97.511719 6.125 97.851562 6.929688 98.09375 7.792969 C 98.332031 8.65625 98.453125 9.550781 98.453125 10.476562 C 98.453125 11.441406 98.320312 12.378906 98.050781 13.285156 C 97.78125 14.195312 97.402344 15.042969 96.914062 15.832031 C 96.425781 16.617188 95.832031 17.328125 95.136719 17.964844 C 94.441406 18.601562 93.667969 19.132812 92.816406 19.558594 Z M 94.574219 10.476562 C 94.574219 9.625 94.410156 8.816406 94.082031 8.058594 C 93.753906 7.296875 93.3125 6.640625 92.753906 6.082031 C 92.195312 5.519531 91.539062 5.078125 90.78125 4.75 C 90.023438 4.421875 89.21875 4.257812 88.363281 4.257812 C 87.5 4.257812 86.695312 4.421875 85.941406 4.75 C 85.1875 5.078125 84.527344 5.519531 83.964844 6.082031 C 83.402344 6.640625 82.960938 7.296875 82.632812 8.058594 C 82.304688 8.816406 82.140625 9.625 82.140625 10.476562 C 82.140625 11.332031 82.304688 12.136719 82.632812 12.886719 C 82.960938 13.632812 83.402344 14.292969 83.964844 14.855469 C 84.527344 15.417969 85.1875 15.863281 85.941406 16.191406 C 86.695312 16.519531 87.5 16.683594 88.363281 16.683594 C 89.21875 16.683594 90.023438 16.519531 90.78125 16.191406 C 91.539062 15.863281 92.195312 15.417969 92.753906 14.855469 C 93.3125 14.292969 93.753906 13.632812 94.082031 12.886719 C 94.410156 12.136719 94.574219 11.332031 94.574219 10.476562 Z M 94.574219 10.476562 "/>
<path style=" stroke:none;fill-rule:nonzero;fill:rgb(100%,100%,100%);fill-opacity:1;" d="M 116.410156 12.359375 C 116.410156 13.441406 116.207031 14.457031 115.796875 15.40625 C 115.390625 16.359375 114.832031 17.183594 114.121094 17.890625 C 113.414062 18.59375 112.585938 19.152344 111.636719 19.558594 C 110.691406 19.96875 109.675781 20.171875 108.59375 20.171875 C 107.515625 20.171875 106.5 19.96875 105.550781 19.558594 C 104.605469 19.152344 103.777344 18.59375 103.074219 17.890625 C 102.371094 17.183594 101.816406 16.359375 101.40625 15.40625 C 101 14.457031 100.792969 13.441406 100.792969 12.359375 L 100.792969 0.617188 L 104.6875 0.617188 L 104.6875 12.359375 C 104.6875 12.894531 104.789062 13.402344 104.996094 13.875 C 105.199219 14.347656 105.476562 14.761719 105.832031 15.113281 C 106.1875 15.46875 106.601562 15.75 107.078125 15.953125 C 107.554688 16.15625 108.058594 16.261719 108.59375 16.261719 C 109.132812 16.261719 109.636719 16.15625 110.113281 15.953125 C 110.589844 15.75 111.003906 15.46875 111.359375 15.113281 C 111.714844 14.761719 111.992188 14.347656 112.195312 13.875 C 112.402344 13.402344 112.503906 12.894531 112.503906 12.359375 L 112.503906 0.617188 L 116.410156 0.617188 Z M 116.410156 12.359375 "/>
<path style=" stroke:none;fill-rule:nonzero;fill:rgb(100%,100%,100%);fill-opacity:1;" d="M 119.800781 0.617188 L 123.707031 0.617188 L 123.707031 20.171875 L 119.800781 20.171875 Z M 119.800781 0.617188 "/>
<path style=" stroke:none;fill-rule:nonzero;fill:rgb(100%,100%,100%);fill-opacity:1;" d="M 142.972656 10.394531 C 142.972656 11.296875 142.855469 12.160156 142.625 12.992188 C 142.394531 13.824219 142.066406 14.601562 141.636719 15.324219 C 141.210938 16.046875 140.703125 16.707031 140.113281 17.304688 C 139.523438 17.898438 138.867188 18.410156 138.140625 18.835938 C 137.414062 19.265625 136.632812 19.59375 135.804688 19.824219 C 134.972656 20.058594 134.109375 20.171875 133.210938 20.171875 L 127.328125 20.171875 L 127.328125 0.617188 L 133.210938 0.617188 C 134.109375 0.617188 134.972656 0.734375 135.804688 0.964844 C 136.632812 1.199219 137.414062 1.527344 138.140625 1.953125 C 138.867188 2.382812 139.523438 2.894531 140.113281 3.488281 C 140.703125 4.085938 141.210938 4.742188 141.636719 5.464844 C 142.066406 6.1875 142.394531 6.964844 142.625 7.796875 C 142.855469 8.628906 142.972656 9.496094 142.972656 10.394531 Z M 139.066406 10.394531 C 139.066406 9.585938 138.914062 8.828125 138.609375 8.117188 C 138.304688 7.410156 137.886719 6.789062 137.355469 6.257812 C 136.824219 5.726562 136.203125 5.304688 135.492188 4.996094 C 134.777344 4.6875 134.019531 4.53125 133.210938 4.53125 L 131.261719 4.53125 L 131.261719 16.261719 L 133.210938 16.261719 C 134.019531 16.261719 134.777344 16.109375 135.492188 15.804688 C 136.203125 15.5 136.824219 15.082031 137.355469 14.546875 C 137.886719 14.015625 138.304688 13.394531 138.609375 12.679688 C 138.914062 11.964844 139.066406 11.207031 139.066406 10.394531 Z M 139.066406 10.394531 "/>
<path style=" stroke:none;fill-rule:nonzero;fill:rgb(100%,100%,100%);fill-opacity:1;" d="M 71.714844 42.238281 C 71.714844 43.046875 71.558594 43.804688 71.25 44.515625 C 70.941406 45.222656 70.523438 45.84375 69.992188 46.375 C 69.460938 46.910156 68.839844 47.328125 68.132812 47.636719 C 67.425781 47.945312 66.667969 48.101562 65.859375 48.101562 L 56.097656 48.101562 L 56.097656 28.546875 L 65.859375 28.546875 C 66.667969 28.546875 67.425781 28.699219 68.132812 29.011719 C 68.839844 29.320312 69.460938 29.738281 69.992188 30.269531 C 70.523438 30.804688 70.941406 31.421875 71.25 32.132812 C 71.558594 32.84375 71.714844 33.601562 71.714844 34.410156 C 71.714844 34.773438 71.664062 35.148438 71.5625 35.527344 C 71.464844 35.910156 71.324219 36.277344 71.140625 36.632812 C 70.960938 36.988281 70.742188 37.308594 70.488281 37.601562 C 70.234375 37.890625 69.953125 38.132812 69.644531 38.324219 C 69.960938 38.496094 70.246094 38.730469 70.5 39.027344 C 70.753906 39.320312 70.972656 39.648438 71.15625 40 C 71.335938 40.355469 71.476562 40.726562 71.570312 41.113281 C 71.664062 41.5 71.714844 41.875 71.714844 42.238281 Z M 60.003906 44.1875 L 65.859375 44.1875 C 66.132812 44.1875 66.386719 44.136719 66.621094 44.039062 C 66.859375 43.9375 67.0625 43.800781 67.242188 43.621094 C 67.417969 43.445312 67.554688 43.238281 67.65625 43 C 67.757812 42.765625 67.804688 42.511719 67.804688 42.238281 C 67.804688 41.964844 67.757812 41.710938 67.65625 41.472656 C 67.554688 41.238281 67.417969 41.03125 67.242188 40.851562 C 67.0625 40.675781 66.859375 40.539062 66.621094 40.4375 C 66.386719 40.335938 66.132812 40.289062 65.859375 40.289062 L 60.003906 40.289062 Z M 60.003906 36.375 L 65.859375 36.375 C 66.132812 36.375 66.386719 36.324219 66.621094 36.222656 C 66.859375 36.125 67.0625 35.984375 67.242188 35.808594 C 67.417969 35.628906 67.554688 35.421875 67.65625 35.179688 C 67.757812 34.941406 67.804688 34.683594 67.804688 34.410156 C 67.804688 34.136719 67.757812 33.882812 67.65625 33.648438 C 67.554688 33.410156 67.417969 33.203125 67.242188 33.027344 C 67.0625 32.847656 66.859375 32.710938 66.621094 32.609375 C 66.386719 32.511719 66.132812 32.460938 65.859375 32.460938 L 60.003906 32.460938 Z M 60.003906 36.375 "/>
<path style=" stroke:none;fill-rule:nonzero;fill:rgb(100%,100%,100%);fill-opacity:1;" d="M 93.796875 38.40625 C 93.796875 39.332031 93.675781 40.226562 93.4375 41.085938 C 93.195312 41.945312 92.855469 42.75 92.421875 43.5 C 91.984375 44.25 91.460938 44.933594 90.84375 45.550781 C 90.226562 46.167969 89.542969 46.699219 88.800781 47.140625 C 88.054688 47.582031 87.253906 47.921875 86.390625 48.164062 C 85.527344 48.402344 84.632812 48.523438 83.707031 48.523438 C 82.78125 48.523438 81.890625 48.402344 81.03125 48.164062 C 80.175781 47.921875 79.371094 47.582031 78.621094 47.140625 C 77.875 46.699219 77.191406 46.167969 76.574219 45.550781 C 75.957031 44.933594 75.429688 44.25 74.988281 43.5 C 74.546875 42.75 74.207031 41.945312 73.964844 41.085938 C 73.726562 40.226562 73.605469 39.332031 73.605469 38.40625 C 73.605469 37.476562 73.726562 36.582031 73.964844 35.71875 C 74.207031 34.855469 74.546875 34.050781 74.988281 33.304688 C 75.429688 32.558594 75.957031 31.878906 76.574219 31.261719 C 77.191406 30.640625 77.875 30.113281 78.621094 29.679688 C 79.371094 29.242188 80.175781 28.902344 81.03125 28.664062 C 81.890625 28.421875 82.78125 28.300781 83.707031 28.300781 C 84.632812 28.300781 85.527344 28.421875 86.390625 28.664062 C 87.253906 28.902344 88.054688 29.242188 88.800781 29.679688 C 89.542969 30.113281 90.226562 30.640625 90.84375 31.261719 C 91.460938 31.878906 91.984375 32.558594 92.421875 33.304688 C 92.855469 34.050781 93.195312 34.855469 93.4375 35.71875 C 93.675781 36.582031 93.796875 37.476562 93.796875 38.40625 Z M 89.917969 38.40625 C 89.917969 37.550781 89.753906 36.746094 89.425781 35.984375 C 89.097656 35.226562 88.65625 34.566406 88.097656 34.007812 C 87.539062 33.449219 86.882812 33.003906 86.125 32.679688 C 85.367188 32.351562 84.5625 32.1875 83.707031 32.1875 C 82.84375 32.1875 82.039062 32.351562 81.285156 32.679688 C 80.53125 33.003906 79.875 33.449219 79.308594 34.007812 C 78.746094 34.566406 78.304688 35.226562 77.976562 35.984375 C 77.648438 36.746094 77.484375 37.550781 77.484375 38.40625 C 77.484375 39.261719 77.648438 40.0625 77.976562 40.8125 C 78.304688 41.5625 78.746094 42.21875 79.308594 42.78125 C 79.875 43.347656 80.53125 43.792969 81.285156 44.121094 C 82.039062 44.445312 82.84375 44.609375 83.707031 44.609375 C 84.5625 44.609375 85.367188 44.445312 86.125 44.121094 C 86.882812 43.792969 87.539062 43.347656 88.097656 42.78125 C 88.65625 42.21875 89.097656 41.5625 89.425781 40.8125 C 89.753906 40.0625 89.917969 39.261719 89.917969 38.40625 Z M 89.917969 38.40625 "/>
<path style=" stroke:none;fill-rule:nonzero;fill:rgb(100%,100%,100%);fill-opacity:1;" d="M 111.753906 40.289062 C 111.753906 41.371094 111.550781 42.386719 111.140625 43.335938 C 110.734375 44.285156 110.175781 45.113281 109.464844 45.816406 C 108.757812 46.523438 107.929688 47.078125 106.980469 47.488281 C 106.035156 47.898438 105.019531 48.101562 103.9375 48.101562 C 102.859375 48.101562 101.84375 47.898438 100.894531 47.488281 C 99.949219 47.078125 99.121094 46.523438 98.417969 45.816406 C 97.714844 45.113281 97.160156 44.285156 96.75 43.335938 C 96.34375 42.386719 96.136719 41.371094 96.136719 40.289062 L 96.136719 28.546875 L 100.03125 28.546875 L 100.03125 40.289062 C 100.03125 40.824219 100.132812 41.328125 100.339844 41.800781 C 100.542969 42.273438 100.820312 42.6875 101.175781 43.042969 C 101.53125 43.398438 101.945312 43.675781 102.421875 43.878906 C 102.898438 44.085938 103.402344 44.1875 103.9375 44.1875 C 104.476562 44.1875 104.980469 44.085938 105.457031 43.878906 C 105.933594 43.675781 106.347656 43.398438 106.703125 43.042969 C 107.058594 42.6875 107.335938 42.273438 107.539062 41.800781 C 107.746094 41.328125 107.847656 40.824219 107.847656 40.289062 L 107.847656 28.546875 L 111.753906 28.546875 Z M 111.753906 40.289062 "/>
<path style=" stroke:none;fill-rule:nonzero;fill:rgb(100%,100%,100%);fill-opacity:1;" d="M 130.761719 48.101562 L 126.582031 48.101562 L 119.050781 35.226562 L 119.050781 48.101562 L 115.144531 48.101562 L 115.144531 28.546875 L 119.324219 28.546875 L 126.851562 41.433594 L 126.851562 28.546875 L 130.761719 28.546875 Z M 130.761719 48.101562 "/>
<path style=" stroke:none;fill-rule:nonzero;fill:rgb(100%,100%,100%);fill-opacity:1;" d="M 149.96875 46.097656 C 149.0625 46.878906 148.046875 47.480469 146.921875 47.898438 C 145.796875 48.316406 144.628906 48.523438 143.421875 48.523438 C 142.496094 48.523438 141.605469 48.402344 140.746094 48.164062 C 139.890625 47.921875 139.085938 47.582031 138.335938 47.140625 C 137.589844 46.699219 136.90625 46.167969 136.289062 45.550781 C 135.671875 44.933594 135.140625 44.25 134.703125 43.5 C 134.261719 42.75 133.921875 41.945312 133.679688 41.085938 C 133.441406 40.226562 133.320312 39.332031 133.320312 38.40625 C 133.320312 37.476562 133.441406 36.582031 133.679688 35.71875 C 133.921875 34.855469 134.261719 34.050781 134.703125 33.296875 C 135.140625 32.546875 135.671875 31.863281 136.289062 31.246094 C 136.90625 30.628906 137.589844 30.097656 138.335938 29.65625 C 139.085938 29.21875 139.890625 28.875 140.746094 28.636719 C 141.605469 28.394531 142.496094 28.273438 143.421875 28.273438 C 144.628906 28.273438 145.796875 28.480469 146.921875 28.894531 C 148.046875 29.308594 149.0625 29.910156 149.96875 30.699219 L 147.902344 34.109375 C 147.328125 33.492188 146.652344 33.015625 145.871094 32.683594 C 145.09375 32.351562 144.277344 32.1875 143.421875 32.1875 C 142.558594 32.1875 141.75 32.351562 140.996094 32.679688 C 140.246094 33.003906 139.585938 33.449219 139.023438 34.007812 C 138.460938 34.566406 138.015625 35.226562 137.691406 35.984375 C 137.363281 36.746094 137.199219 37.550781 137.199219 38.40625 C 137.199219 39.261719 137.363281 40.0625 137.691406 40.8125 C 138.015625 41.5625 138.460938 42.21875 139.023438 42.78125 C 139.585938 43.347656 140.246094 43.792969 140.996094 44.121094 C 141.75 44.445312 142.558594 44.609375 143.421875 44.609375 C 144.277344 44.609375 145.09375 44.445312 145.871094 44.113281 C 146.652344 43.78125 147.328125 43.304688 147.902344 42.6875 Z M 149.96875 46.097656 "/>
<path style=" stroke:none;fill-rule:nonzero;fill:rgb(100%,100%,100%);fill-opacity:1;" d="M 165.613281 48.101562 L 152.230469 48.101562 L 152.230469 28.546875 L 165.613281 28.546875 L 165.613281 32.460938 L 156.136719 32.460938 L 156.136719 36.375 L 162.550781 36.375 L 162.550781 40.289062 L 156.136719 40.289062 L 156.136719 44.1875 L 165.613281 44.1875 Z M 165.613281 48.101562 "/>
</g>
</svg>
