<svg xmlns="http://www.w3.org/2000/svg" width="22" height="22" viewBox="491 478 22 22"><path d="M508.18 499.655a1.175 1.175 0 0 1-.344-.834v-1.627h-.18c-2.17 0-3.211-.338-4.048-2.43l-.345-.864a1.169 1.169 0 0 1 .01-.901 1.172 1.172 0 0 1 1.085-.717c.487 0 .917.292 1.096.744l.346.863c.195.489.347.74.504.837.152.094.405.111.878.111l.474-.001h.18v-1.627c0-.316.123-.612.345-.834a1.176 1.176 0 0 1 1.67 0l2.805 2.806c.459.46.459 1.209 0 1.668l-2.806 2.807a1.175 1.175 0 0 1-.835.344c-.315 0-.611-.122-.834-.345Zm.134-.834a.7.7 0 0 0 .701.701.7.7 0 0 0 .497-.204l2.805-2.807-2.805 2.807a.7.7 0 0 1-.993-.001.7.7 0 0 1-.205-.496Zm-4.606-5.098.344.863c.75 1.875 1.584 2.13 3.604 2.13h.658-.658c-2.02 0-2.854-.255-3.604-2.13l-.344-.863Zm3.475 1.593h-.02.02Zm.027 0Zm-1.755-1.012Zm-.052-.12Zm-.407-1.014-.006-.013.006.013Zm-.01-.022Zm-12.806 4.047c-.65 0-1.18-.53-1.18-1.18 0-.65.53-1.18 1.18-1.18h4.165c1.246 0 2.35-.747 2.813-1.904l3.494-8.738a5.363 5.363 0 0 1 5.004-3.387h.18v-1.626c0-.316.123-.612.345-.834a1.176 1.176 0 0 1 1.67 0l2.805 2.806c.459.46.459 1.208 0 1.668l-2.806 2.807a1.18 1.18 0 0 1-2.014-.835v-1.627h-.18c-1.245 0-2.35.749-2.814 1.906l-3.493 8.737a5.364 5.364 0 0 1-5.004 3.387h-4.165Zm-.701-1.18a.7.7 0 0 0 .701.702h4.165a4.889 4.889 0 0 0 4.56-3.087l3.494-8.738a3.493 3.493 0 0 1 3.257-2.204h.658-.658c-1.442 0-2.72.865-3.257 2.204l-3.494 8.738a4.889 4.889 0 0 1-4.56 3.087h-4.165a.7.7 0 0 1-.701-.702Zm16.835-11.223Zm4.003-2.31-2.805 2.806 2.805-2.806Zm-13.77 2.496-.346-.865c-.196-.49-.347-.74-.504-.837-.153-.095-.406-.112-.88-.112l-.472.001h-4.165a1.18 1.18 0 0 1 0-2.36h4.165c2.168 0 3.21.339 4.047 2.431l.346.866a1.182 1.182 0 0 1-1.096 1.617c-.485 0-.916-.291-1.095-.741Zm.099-1.042.345.864-.345-.864Zm-.016-.038Zm-.044-.107Zm-7.107-1.805a.7.7 0 0 0 .701.702h4.165-4.165a.7.7 0 0 1-.701-.702Zm5.187.7Zm.171 0h-.019.02Z" fill="#fff" fill-rule="evenodd" data-name="shuffle"/></svg>