<?xml version="1.0" encoding="UTF-8" standalone="no"?>
<svg
   width="28.391001"
   height="26.996"
   viewBox="1455.501 11.502 28.391 26.996"
   version="1.1"
   id="svg1"
   sodipodi:docname="Pfad 74 (1).svg"
   inkscape:export-filename="..\Desktop\Pfad 74 (1).svg"
   inkscape:export-xdpi="96"
   inkscape:export-ydpi="96"
   xmlns:inkscape="http://www.inkscape.org/namespaces/inkscape"
   xmlns:sodipodi="http://sodipodi.sourceforge.net/DTD/sodipodi-0.dtd"
   xmlns="http://www.w3.org/2000/svg"
   xmlns:svg="http://www.w3.org/2000/svg">
  <defs
     id="defs1" />
  <sodipodi:namedview
     id="namedview1"
     pagecolor="#ffffff"
     bordercolor="#000000"
     borderopacity="0.25"
     inkscape:showpageshadow="2"
     inkscape:pageopacity="0.0"
     inkscape:pagecheckerboard="0"
     inkscape:deskcolor="#d1d1d1" />
  <path
     d="m 1483.214,23.245 c 0.236,-0.172 0.52,-0.414 0.61,-0.692 a 1.381,1.381 0 0 0 -1.316,-1.808 h -8.734 l -2.764,-8.292 a 1.382,1.382 0 0 0 -2.626,0 l -2.764,8.292 h -8.734 a 1.382,1.382 0 0 0 -0.815,2.5 l 7.13,5.154 -2.763,8.292 a 1.386,1.386 0 0 0 2.128,1.548 l 7.076,-5.143 7.13,5.113 a 1.386,1.386 0 0 0 2.13,-1.545 l -2.764,-8.292 z m -1.177,-1 h -8.263 a 1.5,1.5 0 0 1 -1.423,-1.026 l -2.654,-7.962 -2.654,7.962 a 1.5,1.5 0 0 1 -1.423,1.026 h -8.372 l 6.832,4.938 a 1.5,1.5 0 0 1 0.545,1.69 l -2.646,7.938 6.78,-4.929 a 1.5,1.5 0 0 1 1.757,-0.005 l 6.845,4.908 -2.646,-7.94 a 1.5,1.5 0 0 1 0.543,-1.688 l 6.78,-4.912 z m -4.39,14.745 z"
     fill="#fff"
     fill-rule="evenodd"
     data-name="Pfad 74"
     id="path1"
     style="fill:#ffffff" />
  <path
     style="fill:#ffffff;stroke-width:0.0220971"
     d="m 1469.5323,13.242361 c -0.1536,0.154592 -0.1595,0.396408 -0.2469,0.589828 -0.8209,2.442985 -1.6199,4.897846 -2.4634,7.328828 -0.089,0.354764 -0.3814,0.61859 -0.7011,0.772362 -0.2333,0.110674 -0.5109,0.06737 -0.7574,0.08828 -2.4239,0.02254 -4.856,0.01056 -7.283,0.01928 -0.2602,0.01581 -0.5293,-0.03243 -0.7831,0.03016 -0.1682,0.127982 -0.1025,0.389052 0.066,0.485618 1.0151,0.781738 2.0676,1.513916 3.1016,2.270357 1.2015,0.872917 2.4111,1.735489 3.6054,2.618019 0.3754,0.35059 0.5356,0.934038 0.3254,1.414071 -0.832,2.585944 -1.7215,5.153269 -2.5494,7.740424 -0.057,0.216753 0.2247,0.382081 0.3944,0.244708 1.1487,-0.783543 2.2621,-1.617839 3.3912,-2.429292 1.1349,-0.82105 2.2638,-1.650104 3.4051,-2.461458 0.4348,-0.220525 1.0009,-0.191123 1.3801,0.129873 2.1839,1.518588 4.3213,3.102959 6.5055,4.621084 0.1485,0.105854 0.3465,0.243013 0.525,0.120999 0.1737,-0.152795 -0.01,-0.375907 -0.041,-0.553567 -0.7887,-2.383881 -1.5991,-4.761693 -2.3705,-7.149108 -0.088,-0.327524 -0.2513,-0.66753 -0.1564,-1.016806 0.07,-0.379491 0.3362,-0.689043 0.6581,-0.886805 2.0878,-1.532165 4.2014,-3.029011 6.2803,-4.573161 0.1418,-0.115207 0.3816,-0.242418 0.294,-0.464426 -0.075,-0.209429 -0.3428,-0.121025 -0.5145,-0.140172 -2.6103,-0.0089 -5.2208,0.0028 -7.831,-0.02267 -0.2128,0.01055 -0.4437,-0.03213 -0.6307,-0.158089 -0.279,-0.160163 -0.5039,-0.420764 -0.5774,-0.738454 -0.8902,-2.583883 -1.7402,-5.180429 -2.6082,-7.772073 -0.071,-0.166059 -0.274,-0.157559 -0.4184,-0.10781 z"
     id="path7" />
</svg>
