<svg xmlns="http://www.w3.org/2000/svg" width="22" height="22" viewBox="3.438 1.375 15.125 18.563"><path d="M17.188 2.75H14.07a4.118 4.118 0 0 0-6.142 0H4.812c-.759 0-1.374.616-1.374 1.375v14.438c0 .759.615 1.374 1.375 1.375h12.375c.759-.001 1.374-.616 1.375-1.375V4.124c-.001-.759-.616-1.374-1.375-1.375ZM11 2.75a2.753 2.753 0 0 1 2.75 2.75h-5.5A2.753 2.753 0 0 1 11 2.75Zm2.75 11h-5.5a.687.687 0 1 1 0-1.375h5.5a.687.687 0 1 1 0 1.375Zm0-2.75h-5.5a.687.687 0 1 1 0-1.375h5.5a.687.687 0 1 1 0 1.375Z" fill="#fff" fill-rule="evenodd" data-name="Pfad 85"/></svg>