<svg xmlns="http://www.w3.org/2000/svg" width="28" height="28" viewBox="1 1 22 22"><path d="M21 1H3a2 2 0 0 0-2 2v2a2 2 0 0 0 2 2h18a2 2 0 0 0 2-2V3a2 2 0 0 0-2-2ZM5 5a.5.5 0 0 1-1 0V3a.5.5 0 0 1 1 0v2Zm2 0a.5.5 0 0 1-1 0V3a.5.5 0 0 1 1 0v2Zm2 0a.5.5 0 0 1-1 0V3a.5.5 0 0 1 1 0v2Zm7 0a1 1 0 1 1 0-2 1 1 0 0 1 0 2Zm3 0a1 1 0 1 1 0-2 1 1 0 0 1 0 2Zm2 4.017H3a2 2 0 0 0-2 2v2a2 2 0 0 0 2 2h18a2 2 0 0 0 2-2v-2a2 2 0 0 0-2-2Zm-16 4a.5.5 0 0 1-1 0v-2a.5.5 0 0 1 1 0v2Zm2 0a.5.5 0 0 1-1 0v-2a.5.5 0 0 1 1 0v2Zm2 0a.5.5 0 0 1-1 0v-2a.5.5 0 0 1 1 0v2Zm7 0a1 1 0 1 1 0-2 1 1 0 0 1 0 2Zm3 0a1 1 0 1 1 0-2 1 1 0 0 1 0 2ZM21 17H3a2 2 0 0 0-2 2v2a2 2 0 0 0 2 2h18a2 2 0 0 0 2-2v-2a2 2 0 0 0-2-2ZM5 20.984a.5.5 0 0 1-1 0v-2a.5.5 0 0 1 1 0v2Zm2 0a.5.5 0 0 1-1 0v-2a.5.5 0 0 1 1 0v2Zm2 0a.5.5 0 0 1-1 0v-2a.5.5 0 0 1 1 0v2Zm7 0a1 1 0 1 1 0-2 1 1 0 0 1 0 2Zm3 0a1 1 0 1 1 0-2 1 1 0 0 1 0 2Z" fill="#fff" fill-rule="evenodd" data-name="Pfad 121"/></svg>