<svg xmlns="http://www.w3.org/2000/svg" width="38" height="39.013" viewBox="0 0 40 39.013">
    <path d="M156.318,107.44A20,20,0,0,0,150,146.419c1,.183,1.365-.433,1.365-.964,0-.475-.017-1.732-.027-3.4-5.563,1.209-6.737-2.68-6.737-2.68a5.3,5.3,0,0,0-2.221-2.926c-1.816-1.241.138-1.216.138-1.216a4.2,4.2,0,0,1,3.063,2.06c1.784,3.057,4.682,2.174,5.821,1.662a4.275,4.275,0,0,1,1.27-2.674c-4.441-.5-9.11-2.22-9.11-9.885a7.732,7.732,0,0,1,2.059-5.367,7.185,7.185,0,0,1,.2-5.293s1.678-.538,5.5,2.05a18.966,18.966,0,0,1,10.014,0c3.818-2.588,5.494-2.05,5.494-2.05a7.187,7.187,0,0,1,.2,5.293,7.718,7.718,0,0,1,2.055,5.367c0,7.683-4.677,9.374-9.132,9.869a4.775,4.775,0,0,1,1.358,3.7c0,2.674-.025,4.831-.025,5.487,0,.534.361,1.157,1.375.961a20,20,0,0,0-6.335-38.976Z"
          transform="translate(-136.32 -107.44)" fill="#fff" fill-rule="evenodd"/>
</svg>