<svg xmlns="http://www.w3.org/2000/svg" width="22.015" height="21.999" viewBox="490.999 478 22.015 21.999"><path d="M502.2 499.998c-6.122.054-11.134-4.859-11.201-10.98.067-6.125 5.079-11.038 11.201-10.983 2.114 0 4.173.596 5.946 1.702l2.128-1.414a1.24 1.24 0 0 1 2.056 1.15l-.917 4.882c-.023.075-.052.15-.085.22-.061.049-.012.097-.061.17-.049.073-.158.123-.158.183l-.11.135a1.004 1.004 0 0 1-.245.134.382.382 0 0 1-.122.073 1.216 1.216 0 0 1-.415.074h-.207l-5.174-.855a1.223 1.223 0 0 1-.535-2.19l-.004-.002 1.564-1.04a8.861 8.861 0 0 0-3.66-.782 8.664 8.664 0 0 0-8.761 8.542 8.662 8.662 0 0 0 8.76 8.541 8.712 8.712 0 0 0 8.384-6.003 1.22 1.22 0 0 1 1.525-.794 1.221 1.221 0 0 1 .854 1.526 11.129 11.129 0 0 1-10.763 7.711Z" fill="#fff" fill-rule="evenodd" data-name="Vereinigungsmenge 27"/></svg>