<svg xmlns="http://www.w3.org/2000/svg" width="27.003" height="27" viewBox="1501.998 11.5 27.003 27"><path d="M1525.9 12.587a3.719 3.719 0 0 0-5.254 0l-1.315 1.322-14 13.994-.03.03c-.008.007-.008.015-.016.015-.014.022-.037.044-.051.066 0 .008-.008.008-.008.015-.015.022-.022.037-.037.06-.007.007-.007.014-.015.022-.007.022-.015.037-.022.06 0 .007-.008.007-.008.014l-3.106 9.341a.731.731 0 0 0 .178.758.748.748 0 0 0 .766.179l9.334-3.114c.007 0 .007 0 .015-.007a.27.27 0 0 0 .066-.03c.006 0 .011-.003.015-.007.022-.015.052-.03.075-.045.022-.015.044-.037.067-.052.007-.008.014-.008.014-.015.008-.007.023-.015.03-.03l15.316-15.316a3.718 3.718 0 0 0 0-5.254l-2.014-2.006Zm-14.246 21.522-5.172-5.172 14.424-14.507 5.173 5.172-14.425 14.507Zm-5.172-5.172 5.172 5.172-7.743 2.474 2.571-7.646Zm20.384-10.13-.787.795-5.173-5.172.796-.795a2.23 2.23 0 0 1 3.15 0l2.022 2.02c.863.875.86 2.282-.008 3.152Zm0 0" fill="#fff" fill-rule="evenodd" data-name="pen"/></svg>