<svg xmlns="http://www.w3.org/2000/svg" xmlns:xlink="http://www.w3.org/1999/xlink" width="37" height="35.405"
     viewBox="0 0 40 35.405">
    <defs>
        <clipPath id="a">
            <rect width="40" height="35.405" fill="#fff"/>
        </clipPath>
    </defs>
    <g clip-path="url(#a)">
        <path d="M8.911,7.952a25.279,25.279,0,0,0,2.438,9.71c2.438,4.755,5.834,7.792,8.631,8.991A18.067,18.067,0,0,0,27.213,20.3H19.261a12.46,12.46,0,0,1-4.076-7.992H38.841a36.184,36.184,0,0,1-5.994,13.506A28.372,28.372,0,0,1,20.1,35.4h-.24A29.077,29.077,0,0,1,3.916,20.5C2,16.583,0,9.51,0,0H40a61.472,61.472,0,0,1-.519,7.992H8.911Z"
              fill="#fff"/>
    </g>
</svg>