<svg xmlns="http://www.w3.org/2000/svg" width="22.499" height="22" viewBox="0.004 0 22.499 22"><g data-name="Gruppe maskieren 16" clip-path="url(&quot;#a&quot;)"><path d="M20.346 14.41a1.1 1.1 0 0 0-1.473.495A8.8 8.8 0 1 1 10.997 2.2a8.722 8.722 0 0 1 7.876 4.894 1.107 1.107 0 0 0 1.98-.99 10.999 10.999 0 1 0 0 9.79 1.1 1.1 0 0 0-.507-1.485Z" fill="#fff" fill-rule="evenodd" data-name="login"/><path d="M21.969 10.967a1.222 1.222 0 0 0-1.227-1.227l-8.838.052.009-2.239a1.222 1.222 0 0 0-.76-1.123 1.222 1.222 0 0 0-1.332.26l-3.457 3.456c-.111.115-.2.25-.259.398a1.222 1.222 0 0 0 0 .933c.06.148.148.283.26.398l3.456 3.457c.35.347.876.45 1.331.259.457-.187.757-.63.76-1.124l-.008-2.238 8.88.009a1.222 1.222 0 0 0 1.185-1.27Z" fill="#fff" fill-rule="evenodd" data-name="Pfad 102"/></g><defs><clipPath id="a"><path d="M0 0h22v22H0V0z" data-name="Rechteck 146"/></clipPath></defs></svg>