<svg xmlns="http://www.w3.org/2000/svg"  width="28.391" height="26.996" viewBox="1455.501 11.502 28.391 26.996"><path d="M1483.214 23.245c.236-.172.52-.414.61-.692a1.381 1.381 0 0 0-1.316-1.808h-8.734l-2.764-8.292a1.382 1.382 0 0 0-2.626 0l-2.764 8.292h-8.734a1.382 1.382 0 0 0-.815 2.5l7.13 5.154-2.763 8.292a1.386 1.386 0 0 0 2.128 1.548l7.076-5.143 7.13 5.113a1.386 1.386 0 0 0 2.13-1.545l-2.764-8.292 7.076-5.127Zm-1.177-1h-8.263a1.5 1.5 0 0 1-1.423-1.026l-2.654-7.962-2.654 7.962a1.5 1.5 0 0 1-1.423 1.026h-8.372l6.832 4.938a1.5 1.5 0 0 1 .545 1.69l-2.646 7.938 6.78-4.929a1.5 1.5 0 0 1 1.757-.005l6.845 4.908-2.646-7.94a1.5 1.5 0 0 1 .543-1.688l6.78-4.912Zm-4.39 14.745Z" fill="#fff" fill-rule="evenodd" data-name="Pfad 74"/></svg>