<svg xmlns="http://www.w3.org/2000/svg" width="23.523" height="27" viewBox="1413.975 11.5 23.523 27"><g data-name="Gruppe 111"><path d="M1413.975 16.888a.75.75 0 0 1 .75-.75h22.022a.75.75 0 0 1 0 1.5h-22.022a.75.75 0 0 1-.75-.75Z" fill="#fff" fill-rule="evenodd" data-name="Pfad 78"/><path d="M1420.998 13.001a.408.408 0 0 0-.409.409v2.477c0 .15-.044.29-.12.408h10.535a.747.747 0 0 1-.121-.408V13.41a.408.408 0 0 0-.408-.409h-9.477Zm11.266 3.294a.747.747 0 0 0 .12-.408V13.41a1.91 1.91 0 0 0-1.91-1.91h-9.476a1.91 1.91 0 0 0-1.91 1.91v2.477c0 .15.044.29.12.408h-2.164a.75.75 0 0 0-.751.75v17.227a4.228 4.228 0 0 0 4.228 4.228h10.43a4.228 4.228 0 0 0 4.229-4.228V17.046a.75.75 0 0 0-.751-.75h-2.165Zm-14.47 1.502v16.475a2.726 2.726 0 0 0 2.727 2.727h10.43a2.726 2.726 0 0 0 2.727-2.727V17.797h-15.884Z" fill="#fff" fill-rule="evenodd" data-name="Pfad 79"/><path d="M1427.882 32.795V21.682a.752.752 0 0 1 1.503 0v11.113a.751.751 0 1 1-1.503 0Zm-5.795 0V21.682a.752.752 0 0 1 1.502 0v11.113a.752.752 0 0 1-1.502 0Z" fill="#fff" fill-rule="evenodd" data-name="Vereinigungsmenge 14"/></g></svg>