<svg xmlns="http://www.w3.org/2000/svg" width="16.5" height="22" viewBox="22.213 18.246 16.5 22"><path d="M23.213 40.247a1 1 0 0 1-1-1v-10.83a1 1 0 0 1 1-1h14.5c.55 0 1 .448 1 1v10.83c0 .552-.45 1-1 1h-14.5Zm5.4-7.35c0 .632.317 1.214.85 1.556v1.893c0 .138.111.25.25.25h1.5a.25.25 0 0 0 .25-.25v-1.892a1.852 1.852 0 0 0-.999-3.407c-1.022 0-1.851.83-1.851 1.85Zm5.516-5.484v-3.667a3.671 3.671 0 0 0-3.667-3.666 3.67 3.67 0 0 0-3.666 3.666v3.667h-1.834v-3.667a5.501 5.501 0 0 1 11 0v3.667H34.13Zm-7.333 0h7.333-7.333Z" fill="#fff" fill-rule="evenodd" data-name="Vereinigungsmenge 23"/></svg>