<svg xmlns="http://www.w3.org/2000/svg" width="22" height="22" viewBox="19.462 18.247 22 22"><g data-name="Gruppe maskieren 22" clip-path="url(&quot;#a&quot;)"><g data-name="Server 2"><path d="M39.462 18.247h-18a2 2 0 0 0-2 2v2a2 2 0 0 0 2 2h18a2 2 0 0 0 2-2v-2a2 2 0 0 0-2-2Zm-16 4a.5.5 0 0 1-1 0v-2a.5.5 0 0 1 1 0v2Zm2 0a.5.5 0 0 1-1 0v-2a.5.5 0 0 1 1 0v2Zm2 0a.5.5 0 0 1-1 0v-2a.5.5 0 0 1 1 0v2Zm7 0a1 1 0 1 1 0-2 1 1 0 0 1 0 2Zm3 0a1 1 0 1 1 0-2 1 1 0 0 1 0 2Zm2 4.017h-18a2 2 0 0 0-2 2v2a2 2 0 0 0 2 2h18a2 2 0 0 0 2-2v-2a2 2 0 0 0-2-2Zm-16 4a.5.5 0 0 1-1 0v-2a.5.5 0 0 1 1 0v2Zm2 0a.5.5 0 0 1-1 0v-2a.5.5 0 0 1 1 0v2Zm2 0a.5.5 0 0 1-1 0v-2a.5.5 0 0 1 1 0v2Zm7 0a1 1 0 1 1 0-2 1 1 0 0 1 0 2Zm3 0a1 1 0 1 1 0-2 1 1 0 0 1 0 2Zm2 3.983h-18a2 2 0 0 0-2 2v2a2 2 0 0 0 2 2h18a2 2 0 0 0 2-2v-2a2 2 0 0 0-2-2Zm-16 3.984a.5.5 0 0 1-1 0v-2a.5.5 0 0 1 1 0v2Zm2 0a.5.5 0 0 1-1 0v-2a.5.5 0 0 1 1 0v2Zm2 0a.5.5 0 0 1-1 0v-2a.5.5 0 0 1 1 0v2Zm7 0a1 1 0 1 1 0-2 1 1 0 0 1 0 2Zm3 0a1 1 0 1 1 0-2 1 1 0 0 1 0 2Z" fill="#fff" fill-rule="evenodd" data-name="Pfad 121"/></g></g><defs><clipPath id="a"><path d="M0 0h22v22H0V0z" data-name="Rechteck 150" transform="translate(19.462 18.247)"/></clipPath></defs></svg>