<svg xmlns="http://www.w3.org/2000/svg" xmlns:xlink="http://www.w3.org/1999/xlink" width="40" height="40"
     viewBox="0 0 40 40">
    <defs>
        <clipPath id="a">
            <rect width="40" height="40" transform="translate(502 573)" fill="#fff" stroke="#707070" stroke-width="1"/>
        </clipPath>
    </defs>
    <g transform="translate(-502 -573)" clip-path="url(#a)">
        <path d="M24.579,48.254c15.094,0,23.35-12.506,23.35-23.35,0-.355,0-.709-.024-1.061A16.7,16.7,0,0,0,52,19.6a16.381,16.381,0,0,1-4.714,1.291,8.235,8.235,0,0,0,3.608-4.539,16.446,16.446,0,0,1-5.211,1.992A8.214,8.214,0,0,0,31.7,25.824,23.3,23.3,0,0,1,14.784,17.25,8.213,8.213,0,0,0,17.325,28.2,8.146,8.146,0,0,1,13.6,27.178v.1a8.21,8.21,0,0,0,6.584,8.045,8.194,8.194,0,0,1-3.706.141,8.216,8.216,0,0,0,7.667,5.7,16.467,16.467,0,0,1-10.192,3.52A16.706,16.706,0,0,1,12,44.568a23.234,23.234,0,0,0,12.579,3.68"
              transform="translate(490 560.997)" fill="#fff"/>
    </g>
</svg>