<svg xmlns="http://www.w3.org/2000/svg" width="27" height="27" viewBox="1547 11.5 27 27"><path d="M1547 25c0-7.456 6.044-13.5 13.5-13.5S1574 17.544 1574 25s-6.044 13.5-13.5 13.5S1547 32.456 1547 25Zm1.588 0c0 6.579 5.333 11.911 11.912 11.911 6.578 0 11.911-5.332 11.911-11.911s-5.333-11.911-11.911-11.911c-6.579 0-11.912 5.332-11.912 11.911Zm9.42 4.936a.795.795 0 0 1-.42-.7v-8.471a.795.795 0 0 1 1.234-.661l6.354 4.235a.794.794 0 0 1 0 1.322l-6.354 4.235a.792.792 0 0 1-.815.04Zm1.168-2.185 4.127-2.751-4.127-2.751v5.502Z" fill="#fff" fill-rule="evenodd" data-name="Vereinigungsmenge 13"/></svg>