<svg xmlns="http://www.w3.org/2000/svg" width="22" height="22.001" viewBox="491 478 22 22.001"><path d="M491 489c0-6.075 4.925-11 11-11s11 4.925 11 11-4.925 11-11 11-11-4.925-11-11Zm2.5 0c0 4.687 3.813 8.5 8.5 8.5 4.687 0 8.5-3.813 8.5-8.5 0-4.687-3.813-8.5-8.5-8.5-4.687 0-8.5 3.813-8.5 8.5Zm8.497 5.5c-.332 0-.645-.13-.88-.366a1.24 1.24 0 0 1-.367-.884v-3h-3c-.689 0-1.25-.561-1.25-1.25 0-.334.13-.647.366-.884.235-.235.549-.366.884-.367h3v-3c0-.334.13-.647.367-.883.236-.236.55-.367.883-.367.689.001 1.25.563 1.25 1.251v3h3a1.25 1.25 0 1 1 0 2.5h-3v3c0 .335-.13.649-.366.884a1.24 1.24 0 0 1-.884.365Z" fill="#fff" fill-rule="evenodd" data-name="Vereinigungsmenge 25"/></svg>