<svg xmlns="http://www.w3.org/2000/svg" xmlns:xlink="http://www.w3.org/1999/xlink" width="40" height="40"
     viewBox="0 0 40 40">
    <defs>
        <clipPath id="a">
            <rect width="40" height="40" transform="translate(450 573)" fill="#fff" stroke="#707070" stroke-width="1"/>
        </clipPath>
    </defs>
    <g transform="translate(-450 -573)" clip-path="url(#a)">
        <path d="M3.522-43.806c-2.756,0-11.954-.055-14.594-.764a5.96,5.96,0,0,1-2.384-1.311,4.714,4.714,0,0,1-1.451-2.244,31.536,31.536,0,0,1-.7-5.923c-.085-1.967-.067-3.584-.067-3.6s-.018-1.633.067-3.6a31.539,31.539,0,0,1,.7-5.924,4.72,4.72,0,0,1,1.441-2.244,5.9,5.9,0,0,1,2.394-1.311c2.79-.726,12.956-.762,14.966-.762h.424c.032,0,3.164,0,6.638.1a58.953,58.953,0,0,1,8.981.711,4.978,4.978,0,0,1,3.53,3.5,33.505,33.505,0,0,1,.746,5.924c.109,1.966.117,3.584.117,3.6s0,1.636-.1,3.609a32.608,32.608,0,0,1-.733,5.914,4.77,4.77,0,0,1-1.416,2.244,5.739,5.739,0,0,1-2.368,1.311c-2.789.726-12.952.762-14.963.762H4.317C4.285-43.808,3.995-43.806,3.522-43.806ZM.483-63.795h0V-51.5l9.981-6.146Z"
              transform="translate(465.671 650.648)" fill="#fff"/>
    </g>
</svg>