<svg xmlns="http://www.w3.org/2000/svg" width="27.003" height="27" viewBox="0 0 27.003 27">
    <path d="M23.9,1.058a3.719,3.719,0,0,0-5.254,0L17.331,2.38l-14,13.993-.03.03c-.007.007-.007.015-.015.015-.015.022-.037.044-.052.067s-.008.007-.008.015-.022.037-.037.06-.007.015-.015.022-.015.037-.023.06c0,.007-.007.007-.007.015L.038,26a.731.731,0,0,0,.178.758.748.748,0,0,0,.528.216.877.877,0,0,0,.238-.037l9.334-3.114c.007,0,.007,0,.015-.007a.269.269,0,0,0,.067-.03.026.026,0,0,0,.015-.007c.022-.015.052-.03.074-.045s.045-.037.067-.052.015-.008.015-.015.023-.015.03-.03L25.915,8.318a3.718,3.718,0,0,0,0-5.254ZM9.655,22.58,4.483,17.408,18.907,2.9l5.172,5.172ZM4.483,17.408,9.655,22.58,1.911,25.053ZM24.867,7.277l-.788.8L18.907,2.9l.8-.8a2.229,2.229,0,0,1,3.151,0l2.021,2.021a2.236,2.236,0,0,1-.007,3.151Zm0,0"
          transform="translate(0.001 0.029)" fill="#fff" opacity="0.5"/>
</svg>