<svg xmlns="http://www.w3.org/2000/svg" width="24.963" height="18.282" viewBox="277.913 2.859 24.963 18.282"><path d="M285.078 20.634a1.698 1.698 0 0 0 1.213.507 1.718 1.718 0 0 0 1.22-.507l14.85-14.82c.326-.324.511-.765.515-1.224.004-.459-.174-.9-.494-1.224a1.701 1.701 0 0 0-1.213-.507 1.73 1.73 0 0 0-1.22.507l-13.624 13.595-5.465-5.544a1.701 1.701 0 0 0-1.212-.507 1.73 1.73 0 0 0-1.221.507c-.326.325-.51.765-.514 1.224-.004.46.174.9.494 1.224l6.671 6.769Z" fill="#4dac68" fill-rule="evenodd" data-name="Pfad 91"/></svg>