<svg xmlns="http://www.w3.org/2000/svg" width="512" height="512" viewBox="0 0 512 512"><mask id="a"><circle cx="256" cy="256" r="256" fill="#fff"/></mask><g mask="url(#a)"><path fill="#338af3" d="M0 0h512v141l-64 115 64 115v141H0V371l64-115L0 141Z"/><path fill="#eee" d="M0 141h512v23l-256 16L0 164Z"/><path fill="#333" d="M0 164h512v38l-256 16L0 202Z"/><path fill="#6da544" d="m0 220 256 16 256-16v-18H0Z"/><path fill="#eee" d="M0 371h512v-23l-256-16L0 348Z"/><path fill="#ff9811" d="M0 348h512v-38l-256-16L0 310Z"/><path fill="#6da544" d="m0 292 256-16 256 16v18H0Z"/><path fill="#ffda44" d="M0 220h512v72H0z"/><circle cx="256" cy="248" r="64" fill="#eee"/><path fill="#eee" d="m178 301 78-29 78 29v27H178Z"/></g></svg>