<svg xmlns="http://www.w3.org/2000/svg" width="512" height="512" viewBox="0 0 512 512"><mask id="a"><circle cx="256" cy="256" r="256" fill="#fff"/></mask><g mask="url(#a)"><path fill="#eee" d="m0 160 256-32 256 32v192l-256 32L0 352Z"/><path fill="#0052b4" d="M0 0h512v160H0Z"/><path fill="#496e2d" d="M0 352h512v160H0Z"/><path fill="#d80027" d="M0 0v512l256-256L0 0z"/><path fill="#ff9811" d="m345 229-12 11 40 40-40 40 11 11 40-40 40 40 11-11-40-40 40-40-11-11-40 40z"/><path fill="#d80027" d="m384 181 21 62-54-38h66l-53 39z"/></g></svg>