<svg xmlns="http://www.w3.org/2000/svg" width="512" height="512" data-name="Layer 1"><defs><mask id="a" width="512" height="512" x="0" y="0" maskUnits="userSpaceOnUse"><circle cx="256" cy="256" r="256" fill="#fff"/></mask></defs><g mask="url(#a)"><path fill="#6da544" d="M0 0h512v512H0V0Z"/><path fill="#eee" d="M253.9 161.3a62.7 62.7 0 1 1 71.5 30.3 33.7 33.7 0 1 0 25.3 62.3 62.7 62.7 0 1 1-30.3 71.5 33.7 33.7 0 1 0-62.3 25.3 62.7 62.7 0 1 1-71.5-30.3 33.7 33.7 0 1 0-25.3-62.3 62.7 62.7 0 1 1 30.3-71.5 33.7 33.7 0 1 0 62.3-25.3Z"/></g></svg>