<svg width="17" height="15" viewBox="0 0 17 15" fill="none" xmlns="http://www.w3.org/2000/svg">
    <path d="M15.9373 12.6636C15.8251 12.5515 15.6804 12.4776 15.5239 12.4524C15.3673 12.4272 15.2068 12.452 15.0651 12.5233L13.8275 11.2857L14.1826 10.9306C14.356 10.7571 14.455 10.5229 14.4585 10.2776C14.4621 10.0323 14.3699 9.79531 14.2016 9.61687C14.0332 9.43843 13.802 9.33261 13.5569 9.32187C13.3118 9.31113 13.0722 9.39631 12.8889 9.55934L10.676 7.07229L14.0212 4.09555C14.2782 3.86676 14.4506 3.55798 14.5104 3.21912L14.9937 0.482441C15.0051 0.417362 15.0007 0.350476 14.9809 0.287452C14.961 0.224428 14.9262 0.167123 14.8795 0.120396C14.8328 0.0736684 14.7755 0.0388955 14.7124 0.0190244C14.6494 -0.000846731 14.5825 -0.00523014 14.5175 0.00624568L11.7809 0.489289C11.4421 0.549059 11.1333 0.72141 10.9046 0.978455L8.07906 4.15377L5.25373 0.978581C5.02497 0.721539 4.71618 0.549191 4.37731 0.489415L1.64069 0.00630882C1.57562 -0.00517888 1.50873 -0.000805253 1.4457 0.019059C1.38267 0.0389232 1.32536 0.0736922 1.27863 0.120418C1.23189 0.167145 1.19712 0.22445 1.17724 0.287476C1.15737 0.350503 1.15299 0.417392 1.16447 0.482472L1.64751 3.21915C1.70729 3.55802 1.87964 3.86681 2.13668 4.09558L5.48194 7.07233L3.26898 9.55937C3.08556 9.39712 2.84622 9.31259 2.60158 9.32366C2.35695 9.33472 2.12622 9.44051 1.95819 9.61866C1.79016 9.7968 1.69802 10.0333 1.70126 10.2782C1.70449 10.523 1.80286 10.757 1.97554 10.9307L2.33061 11.2857L1.09311 12.5233C0.932961 12.4427 0.749334 12.4218 0.575155 12.4643C0.400977 12.5068 0.24764 12.61 0.142639 12.7553C0.037637 12.9006 -0.012162 13.0786 0.00217093 13.2573C0.0165039 13.4361 0.0940312 13.6038 0.220852 13.7306L1.26931 14.779C1.39602 14.9059 1.5638 14.9835 1.74254 14.9979C1.92128 15.0122 2.09929 14.9624 2.24465 14.8574C2.39001 14.7524 2.49321 14.5991 2.53573 14.4249C2.57826 14.2507 2.55733 14.067 2.47669 13.9069L3.71425 12.6694L4.06935 13.0245C4.24276 13.1984 4.47716 13.2978 4.72271 13.3015C4.96827 13.3053 5.2056 13.2131 5.38423 13.0446C5.56287 12.876 5.66872 12.6445 5.67927 12.3991C5.68981 12.1538 5.60423 11.914 5.44072 11.7307L8.07906 9.38302L10.7174 11.7307C10.5544 11.914 10.4692 12.1537 10.4799 12.3987C10.4907 12.6438 10.5965 12.875 10.7749 13.0434C10.9534 13.2117 11.1904 13.3039 11.4357 13.3004C11.681 13.2968 11.9152 13.1978 12.0887 13.0244L12.444 12.6694L13.6815 13.9069C13.601 14.0671 13.5802 14.2506 13.6227 14.4248C13.6653 14.5989 13.7684 14.7521 13.9137 14.8571C14.059 14.9621 14.2369 15.0119 14.4156 14.9976C14.5943 14.9833 14.762 14.9058 14.8887 14.7791L15.9373 13.7306C16.0788 13.5891 16.1582 13.3972 16.1582 13.1971C16.1582 12.997 16.0788 12.8051 15.9373 12.6636ZM6.23446 6.22689L2.8892 3.25014C2.82253 3.19064 2.77777 3.11048 2.76208 3.02251L2.45789 1.29976L4.18063 1.60383C4.26861 1.61948 4.34878 1.66424 4.40827 1.73092L7.32164 5.00508L6.23446 6.22689ZM11.5177 10.9307C11.5022 10.9152 11.4863 10.9 11.4698 10.8853L8.93027 8.6257L9.83059 7.8246L12.0435 10.3116C12.0582 10.3282 12.0735 10.344 12.089 10.3595L11.5177 10.9307Z"
          fill="#4677FF"/>
</svg>
