<svg width="15" height="15" viewBox="0 0 15 15" fill="none" xmlns="http://www.w3.org/2000/svg">
    <path d="M3.21333 6.32689L1.77435 10.1651V10.1654C2.12648 11.5722 2.90046 12.8158 3.99609 13.7538L5.80155 13.0768C3.88386 11.3592 2.93734 8.83276 3.21333 6.32689Z"
          fill="#4677FF"/>
    <path d="M1.28716 11.4644L0.184195 14.4053C0.0523669 14.7565 0.395998 15.104 0.749883 14.971L3.07679 14.0986C2.29631 13.3411 1.69087 12.4383 1.28716 11.4644Z"
          fill="#4677FF"/>
    <path d="M6.29809 5.96889L4.65786 4.32866C3.32798 7.32854 4.23715 10.7574 6.74631 12.7226L8.49698 12.0661C6.95946 10.4783 6.12786 8.26202 6.29809 5.96889Z"
          fill="#4677FF"/>
    <path d="M7.15613 6.82693C7.22351 8.69157 8.03556 10.4537 9.4095 11.7236H9.40979L10.6929 11.2426C10.9926 11.1301 11.0746 10.7454 10.8493 10.5202L7.15613 6.82693Z"
          fill="#4677FF"/>
    <path d="M10.3657 8.20748C10.5373 8.3791 10.8155 8.3791 10.9871 8.20748C12.6403 6.55429 14.25 7.06541 14.2661 7.07074C14.4963 7.14746 14.7452 7.02305 14.8219 6.79281C14.8987 6.56264 14.7742 6.31372 14.544 6.23697C14.4574 6.20811 12.3987 5.55301 10.3657 7.58604C10.194 7.75763 10.194 8.0359 10.3657 8.20748Z"
          fill="#4677FF"/>
    <path d="M7.56921 4.78947C9.60229 2.75668 8.94696 0.697826 8.91825 0.611112C8.8415 0.380853 8.59249 0.256642 8.36223 0.333395C8.13226 0.410148 8.00776 0.658863 8.08451 0.889122C8.08979 0.905235 8.60098 2.515 6.94757 4.16812C6.77705 4.33864 6.77532 4.61668 6.94757 4.78947C7.12009 4.96196 7.39807 4.96061 7.56921 4.78947Z"
          fill="#4677FF"/>
    <path d="M8.50133 5.72174C8.32972 5.89335 8.32972 6.17156 8.50133 6.34317C8.67136 6.51323 8.94764 6.51546 9.12016 6.34578C9.34716 6.23267 10.0518 6.65692 10.4434 6.26548C10.8307 5.87808 10.4192 5.1878 10.522 4.94588C10.7642 4.84282 11.4542 5.2546 11.8416 4.86725C12.229 4.47986 11.8174 3.78957 11.9202 3.54763C12.1628 3.44454 12.8525 3.85637 13.2398 3.469C13.6273 3.0816 13.2157 2.39132 13.3185 2.14937C13.5596 2.04681 14.251 2.4577 14.6381 2.07071C15.0295 1.67924 14.6061 0.973375 14.7184 0.747539C14.8874 0.575752 14.8865 0.29947 14.7158 0.128708C14.5442 -0.0429027 14.2659 -0.0429027 14.0943 0.128708C13.748 0.475065 13.8157 0.96403 13.881 1.31361C13.5314 1.24837 13.0425 1.18061 12.6961 1.52694C12.3498 1.87329 12.4175 2.36226 12.4828 2.71184C12.1332 2.64663 11.6442 2.57881 11.2979 2.92519C10.9515 3.27155 11.0193 3.76051 11.0845 4.11009C10.7349 4.04485 10.246 3.97706 9.89964 4.32342C9.55328 4.66978 9.62104 5.15874 9.68628 5.50832C9.33667 5.44314 8.84765 5.37538 8.50133 5.72174Z"
          fill="#4677FF"/>
    <path d="M10.9871 1.99305C11.1587 1.82144 11.1587 1.54322 10.9871 1.37161C10.8155 1.2 10.5373 1.2 10.3656 1.37161C10.194 1.54322 10.194 1.82144 10.3656 1.99305C10.5373 2.16466 10.8155 2.16466 10.9871 1.99305Z"
          fill="#4677FF"/>
    <path d="M13.7836 5.229C14.0262 5.229 14.223 5.03225 14.223 4.78956C14.223 4.54687 14.0262 4.35013 13.7836 4.35013C13.5409 4.35013 13.3441 4.54687 13.3441 4.78956C13.3441 5.03225 13.5409 5.229 13.7836 5.229Z"
          fill="#4677FF"/>
    <path d="M12.8514 8.82893C12.6798 9.00054 12.6798 9.27876 12.8514 9.45037C13.023 9.62198 13.3012 9.62198 13.4729 9.45037C13.6445 9.27876 13.6445 9.00054 13.4729 8.82893C13.3013 8.65732 13.023 8.65732 12.8514 8.82893Z"
          fill="#4677FF"/>
    <path d="M6.63698 2.61448C6.80859 2.44287 6.80859 2.16465 6.63698 1.99304C6.46537 1.82143 6.18716 1.82143 6.01555 1.99304C5.84394 2.16462 5.84394 2.44287 6.01555 2.61448C6.18716 2.78609 6.4654 2.78609 6.63698 2.61448Z"
          fill="#4677FF"/>
</svg>
