<svg xmlns="http://www.w3.org/2000/svg" xmlns:xlink="http://www.w3.org/1999/xlink" width="40" height="40"
     viewBox="0 0 40 40">
    <defs>
        <clipPath id="a">
            <rect width="40" height="40" transform="translate(294 573)" fill="#fff" stroke="#707070" stroke-width="1"/>
        </clipPath>
    </defs>
    <g transform="translate(-294 -573)" clip-path="url(#a)">
        <path d="M131.9,9.048V27.491c0,3.072-.053,5.188-.053,7.271H121.738c-6.041,0-9.357-2.829-9.357-7.273a6.081,6.081,0,0,1,4.347-6.024,5.762,5.762,0,0,1-3.5-5.51c0-4.114,3.279-6.906,9.025-6.906H131.9Zm10.6,0c5.747,0,9.025,2.792,9.025,6.906a5.762,5.762,0,0,1-3.5,5.51,6.081,6.081,0,0,1,4.347,6.024c0,4.445-3.315,7.273-9.357,7.273H132.91c0-2.084-.049-4.2-.053-7.271V9.048h9.651Zm-15.8,14.694h-4.568c-3.021,0-4.531,1.139-4.531,3.38,0,2.351,1.4,3.527,4.163,3.527h2.394c1.916,0,2.542-.918,2.542-3.71v-3.2Zm15.908,0h-4.568v3.2c0,2.792.626,3.71,2.542,3.71h2.394c2.763,0,4.163-1.176,4.163-3.527C147.15,24.88,145.64,23.741,142.619,23.741Zm-15.872-10.58h-4.2c-2.689,0-4.089,1.212-4.089,3.269s1.4,3.269,4.089,3.269h4.2Zm15.466,0h-4.2V19.7h4.2c2.689,0,4.089-1.212,4.089-3.269s-1.4-3.269-4.089-3.269Z"
              transform="translate(181.619 571.095)" fill="#fff"/>
    </g>
</svg>