<svg xmlns="http://www.w3.org/2000/svg" width="20" height="14.647" viewBox="0 0 20 14.647">
    <path d="M6.689,14.241a1.363,1.363,0,0,0,.972.407,1.376,1.376,0,0,0,.529-.106,1.391,1.391,0,0,0,.45-.3l11.9-11.873a1.4,1.4,0,0,0,.412-.981,1.38,1.38,0,0,0-.4-.981A1.363,1.363,0,0,0,19.581,0,1.386,1.386,0,0,0,18.6.406L7.688,11.3,3.31,6.856a1.363,1.363,0,0,0-.972-.406,1.386,1.386,0,0,0-.978.406,1.4,1.4,0,0,0-.412.981,1.38,1.38,0,0,0,.4.981Z"
          transform="translate(-0.948)" fill="#4677ff"/>
</svg>